  0
SECTION
  2
HEADER
  9
$ACADVER
  1
AC1009
  9
$INSUNITS
 70
     1
 9
$MEASUREMENT
 70
    0
  0
ENDSEC
  0
SECTION
  2
TABLES
  0
TABLE
  2
LAYER
 70
     8
  0
LAYER
  2
0
 62
     7
 70
0
  6
CONTINUOUS
  0
LAYER
  2
1
 62
     1
 70
0
  6
CONTINUOUS
  0
LAYER
  2
2
 62
     2
 70
0
  6
CONTINUOUS
  0
LAYER
  2
3
 62
     3
 70
0
  6
CONTINUOUS
  0
LAYER
  2
4
 62
     4
 70
0
  6
CONTINUOUS
  0
LAYER
  2
5
 62
     5
 70
0
  6
CONTINUOUS
  0
LAYER
  2
6
 62
     6
 70
0
  6
CONTINUOUS
  0
LAYER
  2
7
 62
     7
 70
0
  6
CONTINUOUS
  0
ENDTAB
  0
TABLE
  2
STYLE
 70
     1
  0
STYLE
 70
     0
  2
STANDARD
  3
TXT
 40
0.00
 41
1.00
 42
1.00
 50
0.00
 71
     0
  0
ENDTAB
  0
ENDSEC
  0
SECTION
  2
BLOCKS
  0
BLOCK
  8
0
  2
EPAD
 70
0
 10
0.0
 20
0.0
  0
POLYLINE
  8
0
 66
1
 70
1
 40
0.5
 41
0.5
  0
VERTEX
  8
0
 10
-0.25
 20
0.0
 42
1.0
  0
VERTEX
  8
0
 10
0.25
 20
0.0
 42
1.0
  0
SEQEND
  8
0
  0
ENDBLK
  8
0
  0
BLOCK
  8
0
  2
RPAD
 70
0
 10
0.0
 20
0.0
  0
TRACE
  8
0
 10
-0.5
 20
-0.5
 11
-0.5
 21
0.5
 12
0.5
 22
-0.5
 13
0.5
 23
0.5
  0
ENDBLK
  8
0
  0
ENDSEC
0
SECTION
2
ENTITIES
0
POLYLINE
8
1
66
1
40
0.016000
41
0.016000
0
VERTEX
8
1
10
-1.600000
20
0.600000
0
VERTEX
8
1
10
-1.600000
20
-0.700000
0
SEQEND
8
1
0
POLYLINE
8
1
66
1
40
0.016000
41
0.016000
0
VERTEX
8
1
10
-1.700000
20
0.400000
0
VERTEX
8
1
10
-1.700000
20
1.300000
0
SEQEND
8
1
0
POLYLINE
8
1
66
1
40
0.016000
41
0.016000
0
VERTEX
8
1
10
-1.900000
20
0.000000
0
VERTEX
8
1
10
-1.900000
20
1.000000
0
SEQEND
8
1
0
POLYLINE
8
1
66
1
40
0.016000
41
0.016000
0
VERTEX
8
1
10
-2.100000
20
-0.400000
0
VERTEX
8
1
10
-2.100000
20
0.700000
0
SEQEND
8
1
0
POLYLINE
8
1
66
1
40
0.016000
41
0.016000
0
VERTEX
8
1
10
-1.500000
20
1.600000
0
VERTEX
8
1
10
-1.500000
20
3.100000
0
VERTEX
8
1
10
-1.400000
20
3.100000
0
SEQEND
8
1
0
POLYLINE
8
1
66
1
40
0.016000
41
0.016000
0
VERTEX
8
1
10
-1.600000
20
0.600000
0
VERTEX
8
1
10
-1.600000
20
2.900000
0
VERTEX
8
1
10
-1.400000
20
2.900000
0
SEQEND
8
1
0
POLYLINE
8
1
66
1
40
0.016000
41
0.016000
0
VERTEX
8
1
10
-1.700000
20
1.300000
0
VERTEX
8
1
10
-1.700000
20
2.700000
0
VERTEX
8
1
10
-1.400000
20
2.700000
0
SEQEND
8
1
0
POLYLINE
8
1
66
1
40
0.016000
41
0.016000
0
VERTEX
8
1
10
-1.800000
20
0.200000
0
VERTEX
8
1
10
-1.800000
20
2.500000
0
VERTEX
8
1
10
-1.400000
20
2.500000
0
SEQEND
8
1
0
POLYLINE
8
1
66
1
40
0.016000
41
0.016000
0
VERTEX
8
1
10
-0.400000
20
2.600000
0
VERTEX
8
1
10
-0.400000
20
2.600000
0
SEQEND
8
1
0
POLYLINE
8
1
66
1
40
0.016000
41
0.016000
0
VERTEX
8
1
10
-1.900000
20
1.000000
0
VERTEX
8
1
10
-1.900000
20
2.300000
0
VERTEX
8
1
10
-1.400000
20
2.300000
0
SEQEND
8
1
0
POLYLINE
8
1
66
1
40
0.016000
41
0.016000
0
VERTEX
8
1
10
-2.000000
20
-0.200000
0
VERTEX
8
1
10
-2.000000
20
2.100000
0
VERTEX
8
1
10
-1.400000
20
2.100000
0
SEQEND
8
1
0
POLYLINE
8
1
66
1
40
0.016000
41
0.016000
0
VERTEX
8
1
10
-0.400000
20
2.200000
0
VERTEX
8
1
10
-0.400000
20
2.200000
0
SEQEND
8
1
0
POLYLINE
8
1
66
1
40
0.016000
41
0.016000
0
VERTEX
8
1
10
-0.400000
20
1.800000
0
VERTEX
8
1
10
-0.400000
20
1.800000
0
SEQEND
8
1
0
POLYLINE
8
1
66
1
40
0.016000
41
0.016000
0
VERTEX
8
1
10
-1.500000
20
0.800000
0
VERTEX
8
1
10
-1.400000
20
0.800000
0
SEQEND
8
1
0
POLYLINE
8
1
66
1
40
0.016000
41
0.016000
0
VERTEX
8
1
10
-1.600000
20
0.600000
0
VERTEX
8
1
10
-1.400000
20
0.600000
0
SEQEND
8
1
0
POLYLINE
8
1
66
1
40
0.016000
41
0.016000
0
VERTEX
8
1
10
-0.400000
20
0.700000
0
VERTEX
8
1
10
-0.400000
20
0.700000
0
SEQEND
8
1
0
POLYLINE
8
1
66
1
40
0.016000
41
0.016000
0
VERTEX
8
1
10
-1.700000
20
0.400000
0
VERTEX
8
1
10
-1.400000
20
0.400000
0
SEQEND
8
1
0
POLYLINE
8
1
66
1
40
0.016000
41
0.016000
0
VERTEX
8
1
10
-1.800000
20
0.200000
0
VERTEX
8
1
10
-1.400000
20
0.200000
0
SEQEND
8
1
0
POLYLINE
8
1
66
1
40
0.016000
41
0.016000
0
VERTEX
8
1
10
-0.400000
20
0.300000
0
VERTEX
8
1
10
-0.400000
20
0.300000
0
SEQEND
8
1
0
POLYLINE
8
1
66
1
40
0.016000
41
0.016000
0
VERTEX
8
1
10
-1.900000
20
0.000000
0
VERTEX
8
1
10
-1.400000
20
0.000000
0
SEQEND
8
1
0
POLYLINE
8
1
66
1
40
0.016000
41
0.016000
0
VERTEX
8
1
10
-2.000000
20
-0.200000
0
VERTEX
8
1
10
-1.400000
20
-0.200000
0
SEQEND
8
1
0
POLYLINE
8
1
66
1
40
0.016000
41
0.016000
0
VERTEX
8
1
10
-0.400000
20
-0.100000
0
VERTEX
8
1
10
-0.400000
20
-0.100000
0
SEQEND
8
1
0
POLYLINE
8
1
66
1
40
0.016000
41
0.016000
0
VERTEX
8
1
10
-2.100000
20
-0.400000
0
VERTEX
8
1
10
-1.400000
20
-0.400000
0
SEQEND
8
1
0
POLYLINE
8
1
66
1
40
0.016000
41
0.016000
0
VERTEX
8
1
10
-0.400000
20
-0.500000
0
VERTEX
8
1
10
-0.400000
20
-0.500000
0
SEQEND
8
1
0
POLYLINE
8
1
66
1
40
0.016000
41
0.016000
0
VERTEX
8
1
10
-1.500000
20
0.800000
0
VERTEX
8
1
10
-1.500000
20
-1.500000
0
VERTEX
8
1
10
-1.300000
20
-1.500000
0
SEQEND
8
1
0
POLYLINE
8
1
66
1
40
0.016000
41
0.016000
0
VERTEX
8
1
10
-0.300000
20
-1.600000
0
VERTEX
8
1
10
-0.300000
20
-1.600000
0
SEQEND
8
1
0
POLYLINE
8
1
66
1
40
0.016000
41
0.016000
0
VERTEX
8
1
10
-1.700000
20
0.400000
0
VERTEX
8
1
10
-1.700000
20
-1.900000
0
VERTEX
8
1
10
-1.300000
20
-1.900000
0
SEQEND
8
1
0
POLYLINE
8
1
66
1
40
0.016000
41
0.016000
0
VERTEX
8
1
10
-1.800000
20
-1.000000
0
VERTEX
8
1
10
-1.800000
20
-2.100000
0
VERTEX
8
1
10
-1.300000
20
-2.100000
0
SEQEND
8
1
0
POLYLINE
8
1
66
1
40
0.016000
41
0.016000
0
VERTEX
8
1
10
-0.300000
20
-2.000000
0
VERTEX
8
1
10
-0.300000
20
-2.000000
0
SEQEND
8
1
0
POLYLINE
8
1
66
1
40
0.016000
41
0.016000
0
VERTEX
8
1
10
-1.900000
20
0.000000
0
VERTEX
8
1
10
-1.900000
20
-2.300000
0
VERTEX
8
1
10
-1.300000
20
-2.300000
0
SEQEND
8
1
0
POLYLINE
8
1
66
1
40
0.016000
41
0.016000
0
VERTEX
8
1
10
-0.300000
20
-2.400000
0
VERTEX
8
1
10
-0.300000
20
-2.400000
0
SEQEND
8
1
0
POLYLINE
8
1
66
1
40
0.016000
41
0.016000
0
VERTEX
8
1
10
-2.100000
20
-0.400000
0
VERTEX
8
1
10
-2.100000
20
-2.700000
0
VERTEX
8
1
10
-1.300000
20
-2.700000
0
SEQEND
8
1
0
POLYLINE
8
1
66
1
40
0.016000
41
0.016000
0
VERTEX
8
1
10
-2.200000
20
-1.600000
0
VERTEX
8
1
10
-2.200000
20
-2.900000
0
VERTEX
8
1
10
-1.300000
20
-2.900000
0
SEQEND
8
1
0
POLYLINE
8
1
66
1
40
0.016000
41
0.016000
0
VERTEX
8
1
10
-0.300000
20
-2.800000
0
VERTEX
8
1
10
-0.300000
20
-2.800000
0
SEQEND
8
1
0
POLYLINE
8
1
66
1
40
0.016000
41
0.016000
0
VERTEX
8
1
10
-1.300000
20
-2.500000
0
VERTEX
8
1
10
-2.000000
20
-2.500000
0
VERTEX
8
1
10
-2.000000
20
-1.200000
0
SEQEND
8
1
0
POLYLINE
8
1
66
1
40
0.016000
41
0.016000
0
VERTEX
8
1
10
0.700000
20
-1.300000
0
VERTEX
8
1
10
0.700000
20
-1.700000
0
VERTEX
8
1
10
0.700000
20
-2.100000
0
SEQEND
8
1
0
POLYLINE
8
1
66
1
40
0.016000
41
0.016000
0
VERTEX
8
1
10
-1.600000
20
-0.700000
0
VERTEX
8
1
10
-1.300000
20
-0.700000
0
VERTEX
8
1
10
-1.300000
20
-0.900000
0
VERTEX
8
1
10
0.100000
20
-0.900000
0
VERTEX
8
1
10
0.100000
20
-0.700000
0
VERTEX
8
1
10
1.200000
20
-0.700000
0
SEQEND
8
1
0
POLYLINE
8
1
66
1
40
0.016000
41
0.016000
0
VERTEX
8
1
10
0.700000
20
-1.300000
0
VERTEX
8
1
10
0.700000
20
-0.900000
0
VERTEX
8
1
10
1.200000
20
-0.900000
0
SEQEND
8
1
0
POLYLINE
8
1
66
1
40
0.016000
41
0.016000
0
VERTEX
8
1
10
-1.800000
20
-1.000000
0
VERTEX
8
1
10
0.100000
20
-1.000000
0
VERTEX
8
1
10
0.100000
20
-1.100000
0
VERTEX
8
1
10
1.200000
20
-1.100000
0
SEQEND
8
1
0
POLYLINE
8
1
66
1
40
0.016000
41
0.016000
0
VERTEX
8
1
10
0.700000
20
-1.300000
0
VERTEX
8
1
10
1.200000
20
-1.300000
0
SEQEND
8
1
0
POLYLINE
8
1
66
1
40
0.016000
41
0.016000
0
VERTEX
8
1
10
-2.000000
20
-1.200000
0
VERTEX
8
1
10
0.100000
20
-1.200000
0
VERTEX
8
1
10
0.100000
20
-1.500000
0
VERTEX
8
1
10
1.200000
20
-1.500000
0
SEQEND
8
1
0
POLYLINE
8
1
66
1
40
0.016000
41
0.016000
0
VERTEX
8
1
10
0.700000
20
-1.700000
0
VERTEX
8
1
10
1.200000
20
-1.700000
0
SEQEND
8
1
0
POLYLINE
8
1
66
1
40
0.016000
41
0.016000
0
VERTEX
8
1
10
-2.200000
20
-1.600000
0
VERTEX
8
1
10
-1.300000
20
-1.600000
0
VERTEX
8
1
10
-1.300000
20
-1.300000
0
VERTEX
8
1
10
0.000000
20
-1.300000
0
VERTEX
8
1
10
0.000000
20
-1.900000
0
VERTEX
8
1
10
1.200000
20
-1.900000
0
SEQEND
8
1
0
POLYLINE
8
1
66
1
40
0.016000
41
0.016000
0
VERTEX
8
1
10
0.700000
20
-2.100000
0
VERTEX
8
1
10
1.200000
20
-2.100000
0
SEQEND
8
1
0
POLYLINE
8
1
66
1
40
0.016000
41
0.016000
0
VERTEX
8
1
10
-1.400000
20
1.900000
0
VERTEX
8
1
10
-2.100000
20
1.900000
0
VERTEX
8
1
10
-2.100000
20
1.100000
0
SEQEND
8
1
0
POLYLINE
8
1
66
1
40
0.016000
41
0.016000
0
VERTEX
8
1
10
-2.100000
20
0.700000
0
VERTEX
8
1
10
-2.100000
20
1.100000
0
SEQEND
8
1
0
POLYLINE
8
1
66
1
40
0.016000
41
0.016000
0
VERTEX
8
1
10
-1.700000
20
1.300000
0
VERTEX
8
1
10
2.700000
20
1.300000
0
SEQEND
8
1
0
POLYLINE
8
1
66
1
40
0.016000
41
0.016000
0
VERTEX
8
1
10
-1.900000
20
1.000000
0
VERTEX
8
1
10
-1.400000
20
1.000000
0
VERTEX
8
1
10
-1.400000
20
1.200000
0
VERTEX
8
1
10
2.700000
20
1.200000
0
SEQEND
8
1
0
POLYLINE
8
1
66
1
40
0.016000
41
0.016000
0
VERTEX
8
1
10
-2.100000
20
1.100000
0
VERTEX
8
1
10
2.700000
20
1.100000
0
SEQEND
8
1
0
POLYLINE
8
1
66
1
40
0.016000
41
0.016000
0
VERTEX
8
1
10
2.200000
20
-0.800000
0
VERTEX
8
1
10
2.200000
20
0.900000
0
VERTEX
8
1
10
2.700000
20
0.900000
0
SEQEND
8
1
0
POLYLINE
8
1
66
1
40
0.016000
41
0.016000
0
VERTEX
8
1
10
2.200000
20
-1.200000
0
VERTEX
8
1
10
2.300000
20
-1.200000
0
VERTEX
8
1
10
2.300000
20
0.800000
0
VERTEX
8
1
10
2.700000
20
0.800000
0
SEQEND
8
1
0
POLYLINE
8
1
66
1
40
0.016000
41
0.016000
0
VERTEX
8
1
10
2.200000
20
-1.600000
0
VERTEX
8
1
10
2.400000
20
-1.600000
0
VERTEX
8
1
10
2.400000
20
0.700000
0
VERTEX
8
1
10
2.700000
20
0.700000
0
SEQEND
8
1
0
POLYLINE
8
1
66
1
40
0.016000
41
0.016000
0
VERTEX
8
1
10
2.200000
20
-2.000000
0
VERTEX
8
1
10
2.500000
20
-2.000000
0
VERTEX
8
1
10
2.500000
20
0.600000
0
VERTEX
8
1
10
2.700000
20
0.600000
0
SEQEND
8
1
0
POLYLINE
8
1
66
1
40
0.016000
41
0.016000
0
VERTEX
8
1
10
4.600000
20
1.100000
0
VERTEX
8
1
10
4.600000
20
1.400000
0
VERTEX
8
1
10
3.700000
20
1.400000
0
SEQEND
8
1
0
POLYLINE
8
1
66
1
40
0.016000
41
0.016000
0
VERTEX
8
1
10
4.300000
20
1.100000
0
VERTEX
8
1
10
4.300000
20
1.300000
0
VERTEX
8
1
10
3.700000
20
1.300000
0
SEQEND
8
1
0
POLYLINE
8
1
66
1
40
0.016000
41
0.016000
0
VERTEX
8
1
10
4.000000
20
1.100000
0
VERTEX
8
1
10
4.000000
20
1.200000
0
VERTEX
8
1
10
3.700000
20
1.200000
0
SEQEND
8
1
0
POLYLINE
8
1
66
1
40
0.016000
41
0.016000
0
VERTEX
8
1
10
3.700000
20
1.100000
0
VERTEX
8
1
10
3.700000
20
1.100000
0
SEQEND
8
1
0
POLYLINE
8
1
66
1
40
0.016000
41
0.016000
0
VERTEX
8
1
10
2.700000
20
0.400000
0
VERTEX
8
1
10
2.600000
20
0.400000
0
VERTEX
8
1
10
2.600000
20
-3.200000
0
SEQEND
8
1
0
POLYLINE
8
1
66
1
40
0.016000
41
0.016000
0
VERTEX
8
1
10
3.700000
20
0.400000
0
VERTEX
8
1
10
3.700000
20
-0.600000
0
VERTEX
8
1
10
2.900000
20
-0.600000
0
VERTEX
8
1
10
2.900000
20
-0.900000
0
SEQEND
8
1
0
POLYLINE
8
1
66
1
40
0.016000
41
0.016000
0
VERTEX
8
1
10
2.600000
20
-3.200000
0
VERTEX
8
1
10
2.700000
20
-3.200000
0
VERTEX
8
1
10
2.700000
20
-1.100000
0
VERTEX
8
1
10
2.900000
20
-1.100000
0
SEQEND
8
1
0
POLYLINE
8
1
66
1
40
0.016000
41
0.016000
0
VERTEX
8
1
10
3.900000
20
-1.000000
0
VERTEX
8
1
10
3.900000
20
-1.000000
0
SEQEND
8
1
0
POLYLINE
8
1
66
1
40
0.016000
41
0.016000
0
VERTEX
8
1
10
-1.500000
20
1.600000
0
VERTEX
8
1
10
-1.500000
20
1.400000
0
SEQEND
8
1
0
POLYLINE
8
1
66
1
40
0.016000
41
0.016000
0
VERTEX
8
1
10
-1.500000
20
0.800000
0
VERTEX
8
1
10
-1.500000
20
1.400000
0
SEQEND
8
1
0
POLYLINE
8
1
66
1
40
0.016000
41
0.016000
0
VERTEX
8
1
10
2.700000
20
1.400000
0
VERTEX
8
1
10
-1.500000
20
1.400000
0
SEQEND
8
1
0
POLYLINE
8
1
66
1
40
0.016000
41
0.016000
0
VERTEX
8
1
10
-4.600000
20
1.500000
0
VERTEX
8
1
10
-4.800000
20
1.500000
0
SEQEND
8
1
0
POLYLINE
8
1
66
1
40
0.016000
41
0.016000
0
VERTEX
8
1
10
-2.100000
20
0.700000
0
VERTEX
8
1
10
-2.800000
20
0.700000
0
SEQEND
8
1
0
POLYLINE
8
1
66
1
40
0.016000
41
0.016000
0
VERTEX
8
1
10
-4.000000
20
1.200000
0
VERTEX
8
1
10
-4.000000
20
0.700000
0
VERTEX
8
1
10
-2.800000
20
0.700000
0
SEQEND
8
1
0
POLYLINE
8
1
66
1
40
0.016000
41
0.016000
0
VERTEX
8
1
10
-1.500000
20
1.600000
0
VERTEX
8
1
10
-3.400000
20
1.600000
0
SEQEND
8
1
0
POLYLINE
8
1
66
1
40
0.016000
41
0.016000
0
VERTEX
8
1
10
-4.000000
20
1.500000
0
VERTEX
8
1
10
-3.900000
20
1.500000
0
VERTEX
8
1
10
-3.900000
20
1.600000
0
VERTEX
8
1
10
-3.400000
20
1.600000
0
SEQEND
8
1
0
POLYLINE
8
1
66
1
40
0.016000
41
0.016000
0
VERTEX
8
1
10
-1.700000
20
1.300000
0
VERTEX
8
1
10
-1.700000
20
1.400000
0
VERTEX
8
1
10
-3.200000
20
1.400000
0
SEQEND
8
1
0
POLYLINE
8
1
66
1
40
0.016000
41
0.016000
0
VERTEX
8
1
10
-4.000000
20
1.400000
0
VERTEX
8
1
10
-3.200000
20
1.400000
0
SEQEND
8
1
0
POLYLINE
8
1
66
1
40
0.016000
41
0.016000
0
VERTEX
8
1
10
-1.900000
20
1.000000
0
VERTEX
8
1
10
-2.300000
20
1.000000
0
VERTEX
8
1
10
-2.300000
20
1.300000
0
VERTEX
8
1
10
-3.000000
20
1.300000
0
SEQEND
8
1
0
POLYLINE
8
1
66
1
40
0.016000
41
0.016000
0
VERTEX
8
1
10
-4.000000
20
1.300000
0
VERTEX
8
1
10
-3.000000
20
1.300000
0
SEQEND
8
1
0
POLYLINE
8
1
66
1
40
0.016000
41
0.016000
0
VERTEX
8
1
10
-3.400000
20
1.600000
0
VERTEX
8
1
10
-3.400000
20
0.600000
0
SEQEND
8
1
0
POLYLINE
8
1
66
1
40
0.016000
41
0.016000
0
VERTEX
8
1
10
-3.200000
20
1.400000
0
VERTEX
8
1
10
-3.200000
20
0.600000
0
SEQEND
8
1
0
POLYLINE
8
1
66
1
40
0.016000
41
0.016000
0
VERTEX
8
1
10
-3.400000
20
0.100000
0
VERTEX
8
1
10
-3.200000
20
0.100000
0
VERTEX
8
1
10
-3.200000
20
0.100000
0
SEQEND
8
1
0
POLYLINE
8
1
66
1
40
0.016000
41
0.016000
0
VERTEX
8
1
10
-3.000000
20
1.300000
0
VERTEX
8
1
10
-3.000000
20
0.600000
0
SEQEND
8
1
0
POLYLINE
8
1
66
1
40
0.016000
41
0.016000
0
VERTEX
8
1
10
-3.200000
20
0.100000
0
VERTEX
8
1
10
-3.000000
20
0.100000
0
VERTEX
8
1
10
-3.000000
20
0.100000
0
SEQEND
8
1
0
POLYLINE
8
1
66
1
40
0.016000
41
0.016000
0
VERTEX
8
1
10
-2.800000
20
0.700000
0
VERTEX
8
1
10
-2.800000
20
0.600000
0
SEQEND
8
1
0
POLYLINE
8
1
66
1
40
0.016000
41
0.016000
0
VERTEX
8
1
10
-2.800000
20
0.000000
0
VERTEX
8
1
10
-2.800000
20
0.100000
0
SEQEND
8
1
0
POLYLINE
8
1
66
1
40
0.016000
41
0.016000
0
VERTEX
8
1
10
-3.000000
20
0.100000
0
VERTEX
8
1
10
-2.800000
20
0.100000
0
VERTEX
8
1
10
-2.800000
20
0.100000
0
SEQEND
8
1
0
POLYLINE
8
1
66
1
40
0.016000
41
0.016000
0
VERTEX
8
1
10
-4.800000
20
-0.800000
0
VERTEX
8
1
10
-4.900000
20
-0.800000
0
SEQEND
8
1
0
POLYLINE
8
1
66
1
40
0.016000
41
0.016000
0
VERTEX
8
1
10
-1.600000
20
-0.700000
0
VERTEX
8
1
10
-1.600000
20
-0.800000
0
SEQEND
8
1
0
POLYLINE
8
1
66
1
40
0.016000
41
0.016000
0
VERTEX
8
1
10
-1.300000
20
-1.700000
0
VERTEX
8
1
10
-1.600000
20
-1.700000
0
VERTEX
8
1
10
-1.600000
20
-0.800000
0
SEQEND
8
1
0
POLYLINE
8
1
66
1
40
0.016000
41
0.016000
0
VERTEX
8
1
10
-1.800000
20
0.200000
0
VERTEX
8
1
10
-1.800000
20
-0.900000
0
SEQEND
8
1
0
POLYLINE
8
1
66
1
40
0.016000
41
0.016000
0
VERTEX
8
1
10
-1.800000
20
-1.000000
0
VERTEX
8
1
10
-1.800000
20
-0.900000
0
SEQEND
8
1
0
POLYLINE
8
1
66
1
40
0.016000
41
0.016000
0
VERTEX
8
1
10
-2.000000
20
-0.200000
0
VERTEX
8
1
10
-2.000000
20
-1.000000
0
SEQEND
8
1
0
POLYLINE
8
1
66
1
40
0.016000
41
0.016000
0
VERTEX
8
1
10
-2.000000
20
-1.200000
0
VERTEX
8
1
10
-2.000000
20
-1.000000
0
SEQEND
8
1
0
POLYLINE
8
1
66
1
40
0.016000
41
0.016000
0
VERTEX
8
1
10
-2.200000
20
-1.600000
0
VERTEX
8
1
10
-2.200000
20
-1.100000
0
SEQEND
8
1
0
POLYLINE
8
1
66
1
40
0.016000
41
0.016000
0
VERTEX
8
1
10
-4.200000
20
-0.900000
0
VERTEX
8
1
10
-2.700000
20
-0.900000
0
SEQEND
8
1
0
POLYLINE
8
1
66
1
40
0.016000
41
0.016000
0
VERTEX
8
1
10
-1.800000
20
-0.900000
0
VERTEX
8
1
10
-2.700000
20
-0.900000
0
SEQEND
8
1
0
POLYLINE
8
1
66
1
40
0.016000
41
0.016000
0
VERTEX
8
1
10
-4.200000
20
-1.000000
0
VERTEX
8
1
10
-3.100000
20
-1.000000
0
SEQEND
8
1
0
POLYLINE
8
1
66
1
40
0.016000
41
0.016000
0
VERTEX
8
1
10
-2.000000
20
-1.000000
0
VERTEX
8
1
10
-3.100000
20
-1.000000
0
SEQEND
8
1
0
POLYLINE
8
1
66
1
40
0.016000
41
0.016000
0
VERTEX
8
1
10
-4.200000
20
-1.100000
0
VERTEX
8
1
10
-2.900000
20
-1.100000
0
SEQEND
8
1
0
POLYLINE
8
1
66
1
40
0.016000
41
0.016000
0
VERTEX
8
1
10
-2.200000
20
-1.100000
0
VERTEX
8
1
10
-2.900000
20
-1.100000
0
SEQEND
8
1
0
POLYLINE
8
1
66
1
40
0.016000
41
0.016000
0
VERTEX
8
1
10
-2.700000
20
-0.900000
0
VERTEX
8
1
10
-2.700000
20
-1.200000
0
SEQEND
8
1
0
POLYLINE
8
1
66
1
40
0.016000
41
0.016000
0
VERTEX
8
1
10
-2.700000
20
-1.800000
0
VERTEX
8
1
10
-2.700000
20
-1.700000
0
VERTEX
8
1
10
-2.700000
20
-1.700000
0
SEQEND
8
1
0
POLYLINE
8
1
66
1
40
0.016000
41
0.016000
0
VERTEX
8
1
10
-2.900000
20
-1.100000
0
VERTEX
8
1
10
-2.900000
20
-1.200000
0
SEQEND
8
1
0
POLYLINE
8
1
66
1
40
0.016000
41
0.016000
0
VERTEX
8
1
10
-2.700000
20
-1.700000
0
VERTEX
8
1
10
-2.900000
20
-1.700000
0
VERTEX
8
1
10
-2.900000
20
-1.700000
0
SEQEND
8
1
0
POLYLINE
8
1
66
1
40
0.016000
41
0.016000
0
VERTEX
8
1
10
-3.100000
20
-1.000000
0
VERTEX
8
1
10
-3.100000
20
-1.200000
0
SEQEND
8
1
0
POLYLINE
8
1
66
1
40
0.016000
41
0.016000
0
VERTEX
8
1
10
-3.100000
20
-1.700000
0
VERTEX
8
1
10
-3.100000
20
-1.700000
0
SEQEND
8
1
0
POLYLINE
8
1
66
1
40
0.016000
41
0.016000
0
VERTEX
8
1
10
-3.300000
20
-1.700000
0
VERTEX
8
1
10
-3.100000
20
-1.700000
0
SEQEND
8
1
0
POLYLINE
8
1
66
1
40
0.016000
41
0.016000
0
VERTEX
8
1
10
-4.200000
20
-0.800000
0
VERTEX
8
1
10
-3.300000
20
-0.800000
0
SEQEND
8
1
0
POLYLINE
8
1
66
1
40
0.016000
41
0.016000
0
VERTEX
8
1
10
-1.600000
20
-0.800000
0
VERTEX
8
1
10
-3.300000
20
-0.800000
0
SEQEND
8
1
0
POLYLINE
8
1
66
1
40
0.016000
41
0.016000
0
VERTEX
8
1
10
-3.300000
20
-1.200000
0
VERTEX
8
1
10
-3.300000
20
-0.800000
0
SEQEND
8
1
0
POLYLINE
8
1
66
1
40
0.016000
41
0.016000
0
VERTEX
8
1
10
0.700000
20
-2.100000
0
VERTEX
8
1
10
0.700000
20
-3.200000
0
SEQEND
8
1
0
POLYLINE
8
1
66
1
40
0.016000
41
0.016000
0
VERTEX
8
1
10
2.600000
20
-3.200000
0
VERTEX
8
1
10
0.700000
20
-3.200000
0
SEQEND
8
1
0
POLYLINE
8
1
66
1
40
0.016000
41
0.016000
0
VERTEX
8
1
10
-2.200000
20
-1.100000
0
VERTEX
8
1
10
-2.200000
20
-0.600000
0
SEQEND
8
1
0
POLYLINE
8
1
66
1
40
0.016000
41
0.016000
0
VERTEX
8
1
10
-1.400000
20
1.700000
0
VERTEX
8
1
10
-2.200000
20
1.700000
0
VERTEX
8
1
10
-2.200000
20
-0.600000
0
SEQEND
8
1
0
POLYLINE
8
1
66
1
40
0.016000
41
0.016000
0
VERTEX
8
1
10
-1.400000
20
-0.600000
0
VERTEX
8
1
10
-2.200000
20
-0.600000
0
SEQEND
8
1
0
POLYLINE
8
1
66
1
40
0.016000
41
0.016000
0
VERTEX
8
1
10
-2.900000
20
-1.700000
0
VERTEX
8
1
10
-3.000000
20
-1.700000
0
SEQEND
8
1
0
POLYLINE
8
1
66
1
40
0.016000
41
0.016000
0
VERTEX
8
1
10
-3.100000
20
-1.700000
0
VERTEX
8
1
10
-3.000000
20
-1.700000
0
SEQEND
8
1
0
POLYLINE
8
1
66
1
40
0.016000
41
0.016000
0
VERTEX
8
1
10
-3.000000
20
-2.700000
0
VERTEX
8
1
10
-3.000000
20
-1.700000
0
SEQEND
8
1
0
POLYLINE
8
1
66
1
40
0.016000
41
0.016000
0
VERTEX
8
1
10
-0.400000
20
3.000000
0
VERTEX
8
1
10
-0.400000
20
3.000000
0
SEQEND
8
1
0
POLYLINE
8
1
66
1
40
0.016000
41
0.016000
0
VERTEX
8
1
10
-3.000000
20
-3.200000
0
VERTEX
8
1
10
0.700000
20
-3.200000
0
SEQEND
8
1
0
POLYLINE
8
1
66
1
40
0.016000
41
0.016000
0
VERTEX
8
1
10
-3.000000
20
-3.200000
0
VERTEX
8
1
10
-3.000000
20
-3.200000
0
SEQEND
8
1
0
POLYLINE
8
1
66
1
40
0.016000
41
0.016000
0
VERTEX
8
1
10
-3.200000
20
-3.200000
0
VERTEX
8
1
10
-3.000000
20
-3.200000
0
SEQEND
8
1
0
POLYLINE
8
1
66
1
40
0.016000
41
0.016000
0
VERTEX
8
1
10
-3.700000
20
-3.200000
0
VERTEX
8
1
10
-4.100000
20
-3.200000
0
SEQEND
8
1
0
CIRCLE
8
1
10
-1.500000
20
0.800000
40
0.020000
0
CIRCLE
8
1
10
-1.600000
20
0.600000
40
0.020000
0
CIRCLE
8
1
10
-1.600000
20
-0.700000
40
0.020000
0
CIRCLE
8
1
10
-1.700000
20
0.400000
40
0.020000
0
CIRCLE
8
1
10
-1.700000
20
1.300000
40
0.020000
0
CIRCLE
8
1
10
-1.800000
20
0.200000
40
0.020000
0
CIRCLE
8
1
10
-1.800000
20
-1.000000
40
0.020000
0
CIRCLE
8
1
10
-1.900000
20
0.000000
40
0.020000
0
CIRCLE
8
1
10
-1.900000
20
1.000000
40
0.020000
0
CIRCLE
8
1
10
-2.000000
20
-0.200000
40
0.020000
0
CIRCLE
8
1
10
-1.500000
20
1.600000
40
0.020000
0
CIRCLE
8
1
10
-2.100000
20
-0.400000
40
0.020000
0
CIRCLE
8
1
10
-2.100000
20
0.700000
40
0.020000
0
CIRCLE
8
1
10
-2.200000
20
-1.600000
40
0.020000
0
POLYLINE
8
2
66
1
40
0.016000
41
0.016000
0
VERTEX
8
2
10
-0.300000
20
2.550000
0
VERTEX
8
2
10
-0.200000
20
2.550000
0
VERTEX
8
2
10
-0.200000
20
2.650000
0
VERTEX
8
2
10
-0.300000
20
2.650000
0
VERTEX
8
2
10
-0.300000
20
2.550000
0
SEQEND
8
2
0
TEXT
8
2
10
-0.290000
20
2.560000
40
0.080000
41
1.000000
1
?
0
POLYLINE
8
2
66
1
40
0.016000
41
0.016000
0
VERTEX
8
2
10
-0.400000
20
2.600000
0
VERTEX
8
2
10
-0.300000
20
2.600000
0
SEQEND
8
2
0
POLYLINE
8
2
66
1
40
0.016000
41
0.016000
0
VERTEX
8
2
10
-0.600000
20
2.600000
0
VERTEX
8
2
10
-0.601037
20
2.622022
0
VERTEX
8
2
10
-0.604082
20
2.643047
0
VERTEX
8
2
10
-0.609031
20
2.663018
0
VERTEX
8
2
10
-0.615781
20
2.681875
0
VERTEX
8
2
10
-0.624231
20
2.699561
0
VERTEX
8
2
10
-0.634277
20
2.716016
0
VERTEX
8
2
10
-0.645818
20
2.731181
0
VERTEX
8
2
10
-0.658750
20
2.745000
0
VERTEX
8
2
10
-0.672971
20
2.757412
0
VERTEX
8
2
10
-0.688379
20
2.768359
0
VERTEX
8
2
10
-0.704870
20
2.777783
0
VERTEX
8
2
10
-0.722344
20
2.785625
0
VERTEX
8
2
10
-0.740696
20
2.791826
0
VERTEX
8
2
10
-0.759824
20
2.796328
0
VERTEX
8
2
10
-0.779626
20
2.799073
0
VERTEX
8
2
10
-0.800000
20
2.800000
0
VERTEX
8
2
10
-1.200000
20
2.800000
0
VERTEX
8
2
10
-1.200000
20
2.400000
0
VERTEX
8
2
10
-0.800000
20
2.400000
0
VERTEX
8
2
10
-0.779626
20
2.401037
0
VERTEX
8
2
10
-0.759824
20
2.404082
0
VERTEX
8
2
10
-0.740696
20
2.409031
0
VERTEX
8
2
10
-0.722344
20
2.415781
0
VERTEX
8
2
10
-0.704870
20
2.424231
0
VERTEX
8
2
10
-0.688379
20
2.434277
0
VERTEX
8
2
10
-0.672971
20
2.445818
0
VERTEX
8
2
10
-0.658750
20
2.458750
0
VERTEX
8
2
10
-0.645818
20
2.472971
0
VERTEX
8
2
10
-0.634277
20
2.488379
0
VERTEX
8
2
10
-0.624231
20
2.504870
0
VERTEX
8
2
10
-0.615781
20
2.522344
0
VERTEX
8
2
10
-0.609031
20
2.540696
0
VERTEX
8
2
10
-0.604082
20
2.559824
0
VERTEX
8
2
10
-0.601037
20
2.579626
0
VERTEX
8
2
10
-0.600000
20
2.600000
0
SEQEND
8
2
0
POLYLINE
8
2
66
1
40
0.016000
41
0.016000
0
VERTEX
8
2
10
-1.400000
20
2.700000
0
VERTEX
8
2
10
-1.200000
20
2.700000
0
SEQEND
8
2
0
TEXT
8
0
10
-1.380000
20
2.710000
40
0.080000
41
1.000000
1
4
0
POLYLINE
8
2
66
1
40
0.016000
41
0.016000
0
VERTEX
8
2
10
-1.400000
20
2.500000
0
VERTEX
8
2
10
-1.200000
20
2.500000
0
SEQEND
8
2
0
TEXT
8
0
10
-1.380000
20
2.510000
40
0.080000
41
1.000000
1
5
0
POLYLINE
8
2
66
1
40
0.016000
41
0.016000
0
VERTEX
8
2
10
-0.400000
20
2.600000
0
VERTEX
8
2
10
-0.600000
20
2.600000
0
SEQEND
8
2
0
TEXT
8
0
10
-0.500000
20
2.610000
40
0.080000
41
1.000000
1
6
0
TEXT
8
0
10
-1.208000
20
2.823000
40
0.120000
41
0.666667
1
U1:B
0
TEXT
8
0
10
-1.208000
20
2.302000
40
0.080000
41
1.000000
1
74HC08
0
POLYLINE
8
2
66
1
40
0.016000
41
0.016000
0
VERTEX
8
2
10
-0.300000
20
2.150000
0
VERTEX
8
2
10
-0.200000
20
2.150000
0
VERTEX
8
2
10
-0.200000
20
2.250000
0
VERTEX
8
2
10
-0.300000
20
2.250000
0
VERTEX
8
2
10
-0.300000
20
2.150000
0
SEQEND
8
2
0
TEXT
8
2
10
-0.290000
20
2.160000
40
0.080000
41
1.000000
1
?
0
POLYLINE
8
2
66
1
40
0.016000
41
0.016000
0
VERTEX
8
2
10
-0.400000
20
2.200000
0
VERTEX
8
2
10
-0.300000
20
2.200000
0
SEQEND
8
2
0
POLYLINE
8
2
66
1
40
0.016000
41
0.016000
0
VERTEX
8
2
10
-0.600000
20
2.200000
0
VERTEX
8
2
10
-0.601037
20
2.222022
0
VERTEX
8
2
10
-0.604082
20
2.243047
0
VERTEX
8
2
10
-0.609031
20
2.263018
0
VERTEX
8
2
10
-0.615781
20
2.281875
0
VERTEX
8
2
10
-0.624231
20
2.299561
0
VERTEX
8
2
10
-0.634277
20
2.316016
0
VERTEX
8
2
10
-0.645818
20
2.331182
0
VERTEX
8
2
10
-0.658750
20
2.345000
0
VERTEX
8
2
10
-0.672971
20
2.357412
0
VERTEX
8
2
10
-0.688379
20
2.368360
0
VERTEX
8
2
10
-0.704870
20
2.377783
0
VERTEX
8
2
10
-0.722344
20
2.385625
0
VERTEX
8
2
10
-0.740696
20
2.391826
0
VERTEX
8
2
10
-0.759824
20
2.396328
0
VERTEX
8
2
10
-0.779626
20
2.399072
0
VERTEX
8
2
10
-0.800000
20
2.400000
0
VERTEX
8
2
10
-1.200000
20
2.400000
0
VERTEX
8
2
10
-1.200000
20
2.000000
0
VERTEX
8
2
10
-0.800000
20
2.000000
0
VERTEX
8
2
10
-0.779626
20
2.001037
0
VERTEX
8
2
10
-0.759824
20
2.004082
0
VERTEX
8
2
10
-0.740696
20
2.009031
0
VERTEX
8
2
10
-0.722344
20
2.015781
0
VERTEX
8
2
10
-0.704870
20
2.024231
0
VERTEX
8
2
10
-0.688379
20
2.034277
0
VERTEX
8
2
10
-0.672971
20
2.045818
0
VERTEX
8
2
10
-0.658750
20
2.058750
0
VERTEX
8
2
10
-0.645818
20
2.072971
0
VERTEX
8
2
10
-0.634277
20
2.088379
0
VERTEX
8
2
10
-0.624231
20
2.104871
0
VERTEX
8
2
10
-0.615781
20
2.122344
0
VERTEX
8
2
10
-0.609031
20
2.140696
0
VERTEX
8
2
10
-0.604082
20
2.159824
0
VERTEX
8
2
10
-0.601037
20
2.179626
0
VERTEX
8
2
10
-0.600000
20
2.200000
0
SEQEND
8
2
0
POLYLINE
8
2
66
1
40
0.016000
41
0.016000
0
VERTEX
8
2
10
-1.400000
20
2.300000
0
VERTEX
8
2
10
-1.200000
20
2.300000
0
SEQEND
8
2
0
TEXT
8
0
10
-1.380000
20
2.310000
40
0.080000
41
1.000000
1
9
0
POLYLINE
8
2
66
1
40
0.016000
41
0.016000
0
VERTEX
8
2
10
-1.400000
20
2.100000
0
VERTEX
8
2
10
-1.200000
20
2.100000
0
SEQEND
8
2
0
TEXT
8
0
10
-1.460000
20
2.110000
40
0.080000
41
1.000000
1
10
0
POLYLINE
8
2
66
1
40
0.016000
41
0.016000
0
VERTEX
8
2
10
-0.400000
20
2.200000
0
VERTEX
8
2
10
-0.600000
20
2.200000
0
SEQEND
8
2
0
TEXT
8
0
10
-0.500000
20
2.210000
40
0.080000
41
1.000000
1
8
0
TEXT
8
0
10
-1.208000
20
2.423000
40
0.120000
41
0.666667
1
U1:C
0
TEXT
8
0
10
-1.208000
20
1.902000
40
0.080000
41
1.000000
1
74HC08
0
POLYLINE
8
2
66
1
40
0.016000
41
0.016000
0
VERTEX
8
2
10
-0.300000
20
1.750000
0
VERTEX
8
2
10
-0.200000
20
1.750000
0
VERTEX
8
2
10
-0.200000
20
1.850000
0
VERTEX
8
2
10
-0.300000
20
1.850000
0
VERTEX
8
2
10
-0.300000
20
1.750000
0
SEQEND
8
2
0
TEXT
8
2
10
-0.290000
20
1.760000
40
0.080000
41
1.000000
1
?
0
POLYLINE
8
2
66
1
40
0.016000
41
0.016000
0
VERTEX
8
2
10
-0.400000
20
1.800000
0
VERTEX
8
2
10
-0.300000
20
1.800000
0
SEQEND
8
2
0
POLYLINE
8
2
66
1
40
0.016000
41
0.016000
0
VERTEX
8
2
10
-0.600000
20
1.800000
0
VERTEX
8
2
10
-0.601037
20
1.822022
0
VERTEX
8
2
10
-0.604082
20
1.843047
0
VERTEX
8
2
10
-0.609031
20
1.863018
0
VERTEX
8
2
10
-0.615781
20
1.881875
0
VERTEX
8
2
10
-0.624231
20
1.899561
0
VERTEX
8
2
10
-0.634277
20
1.916016
0
VERTEX
8
2
10
-0.645818
20
1.931182
0
VERTEX
8
2
10
-0.658750
20
1.945000
0
VERTEX
8
2
10
-0.672971
20
1.957412
0
VERTEX
8
2
10
-0.688379
20
1.968359
0
VERTEX
8
2
10
-0.704870
20
1.977783
0
VERTEX
8
2
10
-0.722344
20
1.985625
0
VERTEX
8
2
10
-0.740696
20
1.991826
0
VERTEX
8
2
10
-0.759824
20
1.996328
0
VERTEX
8
2
10
-0.779626
20
1.999072
0
VERTEX
8
2
10
-0.800000
20
2.000000
0
VERTEX
8
2
10
-1.200000
20
2.000000
0
VERTEX
8
2
10
-1.200000
20
1.600000
0
VERTEX
8
2
10
-0.800000
20
1.600000
0
VERTEX
8
2
10
-0.779626
20
1.601037
0
VERTEX
8
2
10
-0.759824
20
1.604082
0
VERTEX
8
2
10
-0.740696
20
1.609031
0
VERTEX
8
2
10
-0.722344
20
1.615781
0
VERTEX
8
2
10
-0.704870
20
1.624231
0
VERTEX
8
2
10
-0.688379
20
1.634277
0
VERTEX
8
2
10
-0.672971
20
1.645818
0
VERTEX
8
2
10
-0.658750
20
1.658750
0
VERTEX
8
2
10
-0.645818
20
1.672971
0
VERTEX
8
2
10
-0.634277
20
1.688379
0
VERTEX
8
2
10
-0.624231
20
1.704870
0
VERTEX
8
2
10
-0.615781
20
1.722344
0
VERTEX
8
2
10
-0.609031
20
1.740696
0
VERTEX
8
2
10
-0.604082
20
1.759824
0
VERTEX
8
2
10
-0.601037
20
1.779626
0
VERTEX
8
2
10
-0.600000
20
1.800000
0
SEQEND
8
2
0
POLYLINE
8
2
66
1
40
0.016000
41
0.016000
0
VERTEX
8
2
10
-1.400000
20
1.900000
0
VERTEX
8
2
10
-1.200000
20
1.900000
0
SEQEND
8
2
0
TEXT
8
0
10
-1.460000
20
1.910000
40
0.080000
41
1.000000
1
12
0
POLYLINE
8
2
66
1
40
0.016000
41
0.016000
0
VERTEX
8
2
10
-1.400000
20
1.700000
0
VERTEX
8
2
10
-1.200000
20
1.700000
0
SEQEND
8
2
0
TEXT
8
0
10
-1.460000
20
1.710000
40
0.080000
41
1.000000
1
13
0
POLYLINE
8
2
66
1
40
0.016000
41
0.016000
0
VERTEX
8
2
10
-0.400000
20
1.800000
0
VERTEX
8
2
10
-0.600000
20
1.800000
0
SEQEND
8
2
0
TEXT
8
0
10
-0.500000
20
1.810000
40
0.080000
41
1.000000
1
11
0
TEXT
8
0
10
-1.208000
20
2.023000
40
0.120000
41
0.666667
1
U1:D
0
TEXT
8
0
10
-1.208000
20
1.502000
40
0.080000
41
1.000000
1
74HC08
0
POLYLINE
8
2
66
1
40
0.016000
41
0.016000
0
VERTEX
8
2
10
-0.300000
20
0.650000
0
VERTEX
8
2
10
-0.200000
20
0.650000
0
VERTEX
8
2
10
-0.200000
20
0.750000
0
VERTEX
8
2
10
-0.300000
20
0.750000
0
VERTEX
8
2
10
-0.300000
20
0.650000
0
SEQEND
8
2
0
TEXT
8
2
10
-0.290000
20
0.660000
40
0.080000
41
1.000000
1
?
0
POLYLINE
8
2
66
1
40
0.016000
41
0.016000
0
VERTEX
8
2
10
-0.400000
20
0.700000
0
VERTEX
8
2
10
-0.300000
20
0.700000
0
SEQEND
8
2
0
POLYLINE
8
2
66
1
40
0.016000
41
0.016000
0
VERTEX
8
2
10
-0.600000
20
0.700000
0
VERTEX
8
2
10
-0.612058
20
0.723669
0
VERTEX
8
2
10
-0.625683
20
0.745918
0
VERTEX
8
2
10
-0.640803
20
0.766731
0
VERTEX
8
2
10
-0.657344
20
0.786094
0
VERTEX
8
2
10
-0.675232
20
0.803992
0
VERTEX
8
2
10
-0.694394
20
0.820410
0
VERTEX
8
2
10
-0.714758
20
0.835335
0
VERTEX
8
2
10
-0.736250
20
0.848750
0
VERTEX
8
2
10
-0.758796
20
0.860642
0
VERTEX
8
2
10
-0.782324
20
0.870996
0
VERTEX
8
2
10
-0.806760
20
0.879797
0
VERTEX
8
2
10
-0.832031
20
0.887031
0
VERTEX
8
2
10
-0.858064
20
0.892683
0
VERTEX
8
2
10
-0.884785
20
0.896738
0
VERTEX
8
2
10
-0.912122
20
0.899182
0
VERTEX
8
2
10
-0.940000
20
0.900000
0
VERTEX
8
2
10
-1.200000
20
0.900000
0
VERTEX
8
2
10
-1.190637
20
0.899072
0
VERTEX
8
2
10
-1.181348
20
0.896328
0
VERTEX
8
2
10
-1.172205
20
0.891826
0
VERTEX
8
2
10
-1.163281
20
0.885625
0
VERTEX
8
2
10
-1.146387
20
0.868359
0
VERTEX
8
2
10
-1.131250
20
0.845000
0
VERTEX
8
2
10
-1.118457
20
0.816016
0
VERTEX
8
2
10
-1.108594
20
0.781875
0
VERTEX
8
2
10
-1.102246
20
0.743047
0
VERTEX
8
2
10
-1.100000
20
0.700000
0
VERTEX
8
2
10
-1.102246
20
0.659824
0
VERTEX
8
2
10
-1.108594
20
0.622344
0
VERTEX
8
2
10
-1.118457
20
0.588379
0
VERTEX
8
2
10
-1.131250
20
0.558750
0
VERTEX
8
2
10
-1.146387
20
0.534277
0
VERTEX
8
2
10
-1.163281
20
0.515781
0
VERTEX
8
2
10
-1.172205
20
0.509031
0
VERTEX
8
2
10
-1.181348
20
0.504082
0
VERTEX
8
2
10
-1.190637
20
0.501037
0
VERTEX
8
2
10
-1.200000
20
0.500000
0
VERTEX
8
2
10
-0.940000
20
0.500000
0
VERTEX
8
2
10
-0.912122
20
0.500928
0
VERTEX
8
2
10
-0.884785
20
0.503672
0
VERTEX
8
2
10
-0.858064
20
0.508174
0
VERTEX
8
2
10
-0.832031
20
0.514375
0
VERTEX
8
2
10
-0.806760
20
0.522217
0
VERTEX
8
2
10
-0.782324
20
0.531641
0
VERTEX
8
2
10
-0.758796
20
0.542588
0
VERTEX
8
2
10
-0.736250
20
0.555000
0
VERTEX
8
2
10
-0.714758
20
0.568819
0
VERTEX
8
2
10
-0.694394
20
0.583984
0
VERTEX
8
2
10
-0.675232
20
0.600439
0
VERTEX
8
2
10
-0.657344
20
0.618125
0
VERTEX
8
2
10
-0.640803
20
0.636982
0
VERTEX
8
2
10
-0.625683
20
0.656953
0
VERTEX
8
2
10
-0.612058
20
0.677978
0
VERTEX
8
2
10
-0.600000
20
0.700000
0
SEQEND
8
2
0
POLYLINE
8
2
66
1
40
0.016000
41
0.016000
0
VERTEX
8
2
10
-1.200000
20
0.800000
0
VERTEX
8
2
10
-1.120000
20
0.800000
0
SEQEND
8
2
0
POLYLINE
8
2
66
1
40
0.016000
41
0.016000
0
VERTEX
8
2
10
-1.200000
20
0.600000
0
VERTEX
8
2
10
-1.120000
20
0.600000
0
SEQEND
8
2
0
POLYLINE
8
2
66
1
40
0.016000
41
0.016000
0
VERTEX
8
2
10
-1.400000
20
0.800000
0
VERTEX
8
2
10
-1.200000
20
0.800000
0
SEQEND
8
2
0
TEXT
8
0
10
-1.380000
20
0.810000
40
0.080000
41
1.000000
1
1
0
POLYLINE
8
2
66
1
40
0.016000
41
0.016000
0
VERTEX
8
2
10
-1.400000
20
0.600000
0
VERTEX
8
2
10
-1.200000
20
0.600000
0
SEQEND
8
2
0
TEXT
8
0
10
-1.380000
20
0.610000
40
0.080000
41
1.000000
1
2
0
POLYLINE
8
2
66
1
40
0.016000
41
0.016000
0
VERTEX
8
2
10
-0.400000
20
0.700000
0
VERTEX
8
2
10
-0.600000
20
0.700000
0
SEQEND
8
2
0
TEXT
8
0
10
-0.500000
20
0.710000
40
0.080000
41
1.000000
1
3
0
TEXT
8
0
10
-1.208000
20
0.923000
40
0.120000
41
0.666667
1
U2:A
0
TEXT
8
0
10
-1.208000
20
0.402000
40
0.080000
41
1.000000
1
74HC32
0
POLYLINE
8
2
66
1
40
0.016000
41
0.016000
0
VERTEX
8
2
10
-0.300000
20
0.250000
0
VERTEX
8
2
10
-0.200000
20
0.250000
0
VERTEX
8
2
10
-0.200000
20
0.350000
0
VERTEX
8
2
10
-0.300000
20
0.350000
0
VERTEX
8
2
10
-0.300000
20
0.250000
0
SEQEND
8
2
0
TEXT
8
2
10
-0.290000
20
0.260000
40
0.080000
41
1.000000
1
?
0
POLYLINE
8
2
66
1
40
0.016000
41
0.016000
0
VERTEX
8
2
10
-0.400000
20
0.300000
0
VERTEX
8
2
10
-0.300000
20
0.300000
0
SEQEND
8
2
0
POLYLINE
8
2
66
1
40
0.016000
41
0.016000
0
VERTEX
8
2
10
-0.600000
20
0.300000
0
VERTEX
8
2
10
-0.612058
20
0.323669
0
VERTEX
8
2
10
-0.625683
20
0.345918
0
VERTEX
8
2
10
-0.640803
20
0.366731
0
VERTEX
8
2
10
-0.657344
20
0.386094
0
VERTEX
8
2
10
-0.675232
20
0.403992
0
VERTEX
8
2
10
-0.694394
20
0.420410
0
VERTEX
8
2
10
-0.714758
20
0.435335
0
VERTEX
8
2
10
-0.736250
20
0.448750
0
VERTEX
8
2
10
-0.758796
20
0.460642
0
VERTEX
8
2
10
-0.782324
20
0.470996
0
VERTEX
8
2
10
-0.806760
20
0.479797
0
VERTEX
8
2
10
-0.832031
20
0.487031
0
VERTEX
8
2
10
-0.858064
20
0.492683
0
VERTEX
8
2
10
-0.884785
20
0.496738
0
VERTEX
8
2
10
-0.912122
20
0.499182
0
VERTEX
8
2
10
-0.940000
20
0.500000
0
VERTEX
8
2
10
-1.200000
20
0.500000
0
VERTEX
8
2
10
-1.190637
20
0.499072
0
VERTEX
8
2
10
-1.181348
20
0.496328
0
VERTEX
8
2
10
-1.172205
20
0.491826
0
VERTEX
8
2
10
-1.163281
20
0.485625
0
VERTEX
8
2
10
-1.146387
20
0.468359
0
VERTEX
8
2
10
-1.131250
20
0.445000
0
VERTEX
8
2
10
-1.118457
20
0.416016
0
VERTEX
8
2
10
-1.108594
20
0.381875
0
VERTEX
8
2
10
-1.102246
20
0.343047
0
VERTEX
8
2
10
-1.100000
20
0.300000
0
VERTEX
8
2
10
-1.102246
20
0.259824
0
VERTEX
8
2
10
-1.108594
20
0.222344
0
VERTEX
8
2
10
-1.118457
20
0.188379
0
VERTEX
8
2
10
-1.131250
20
0.158750
0
VERTEX
8
2
10
-1.146387
20
0.134277
0
VERTEX
8
2
10
-1.163281
20
0.115781
0
VERTEX
8
2
10
-1.172205
20
0.109031
0
VERTEX
8
2
10
-1.181348
20
0.104082
0
VERTEX
8
2
10
-1.190637
20
0.101037
0
VERTEX
8
2
10
-1.200000
20
0.100000
0
VERTEX
8
2
10
-0.940000
20
0.100000
0
VERTEX
8
2
10
-0.912122
20
0.100928
0
VERTEX
8
2
10
-0.884785
20
0.103672
0
VERTEX
8
2
10
-0.858064
20
0.108174
0
VERTEX
8
2
10
-0.832031
20
0.114375
0
VERTEX
8
2
10
-0.806760
20
0.122217
0
VERTEX
8
2
10
-0.782324
20
0.131641
0
VERTEX
8
2
10
-0.758796
20
0.142588
0
VERTEX
8
2
10
-0.736250
20
0.155000
0
VERTEX
8
2
10
-0.714758
20
0.168819
0
VERTEX
8
2
10
-0.694394
20
0.183984
0
VERTEX
8
2
10
-0.675232
20
0.200439
0
VERTEX
8
2
10
-0.657344
20
0.218125
0
VERTEX
8
2
10
-0.640803
20
0.236982
0
VERTEX
8
2
10
-0.625683
20
0.256953
0
VERTEX
8
2
10
-0.612058
20
0.277978
0
VERTEX
8
2
10
-0.600000
20
0.300000
0
SEQEND
8
2
0
POLYLINE
8
2
66
1
40
0.016000
41
0.016000
0
VERTEX
8
2
10
-1.200000
20
0.400000
0
VERTEX
8
2
10
-1.120000
20
0.400000
0
SEQEND
8
2
0
POLYLINE
8
2
66
1
40
0.016000
41
0.016000
0
VERTEX
8
2
10
-1.200000
20
0.200000
0
VERTEX
8
2
10
-1.120000
20
0.200000
0
SEQEND
8
2
0
POLYLINE
8
2
66
1
40
0.016000
41
0.016000
0
VERTEX
8
2
10
-1.400000
20
0.400000
0
VERTEX
8
2
10
-1.200000
20
0.400000
0
SEQEND
8
2
0
TEXT
8
0
10
-1.380000
20
0.410000
40
0.080000
41
1.000000
1
4
0
POLYLINE
8
2
66
1
40
0.016000
41
0.016000
0
VERTEX
8
2
10
-1.400000
20
0.200000
0
VERTEX
8
2
10
-1.200000
20
0.200000
0
SEQEND
8
2
0
TEXT
8
0
10
-1.380000
20
0.210000
40
0.080000
41
1.000000
1
5
0
POLYLINE
8
2
66
1
40
0.016000
41
0.016000
0
VERTEX
8
2
10
-0.400000
20
0.300000
0
VERTEX
8
2
10
-0.600000
20
0.300000
0
SEQEND
8
2
0
TEXT
8
0
10
-0.500000
20
0.310000
40
0.080000
41
1.000000
1
6
0
TEXT
8
0
10
-1.208000
20
0.523000
40
0.120000
41
0.666667
1
U2:B
0
TEXT
8
0
10
-1.208000
20
0.002000
40
0.080000
41
1.000000
1
74HC32
0
POLYLINE
8
2
66
1
40
0.016000
41
0.016000
0
VERTEX
8
2
10
-0.300000
20
-0.150000
0
VERTEX
8
2
10
-0.200000
20
-0.150000
0
VERTEX
8
2
10
-0.200000
20
-0.050000
0
VERTEX
8
2
10
-0.300000
20
-0.050000
0
VERTEX
8
2
10
-0.300000
20
-0.150000
0
SEQEND
8
2
0
TEXT
8
2
10
-0.290000
20
-0.140000
40
0.080000
41
1.000000
1
?
0
POLYLINE
8
2
66
1
40
0.016000
41
0.016000
0
VERTEX
8
2
10
-0.400000
20
-0.100000
0
VERTEX
8
2
10
-0.300000
20
-0.100000
0
SEQEND
8
2
0
POLYLINE
8
2
66
1
40
0.016000
41
0.016000
0
VERTEX
8
2
10
-0.600000
20
-0.100000
0
VERTEX
8
2
10
-0.612058
20
-0.076331
0
VERTEX
8
2
10
-0.625683
20
-0.054082
0
VERTEX
8
2
10
-0.640803
20
-0.033269
0
VERTEX
8
2
10
-0.657344
20
-0.013906
0
VERTEX
8
2
10
-0.675232
20
0.003992
0
VERTEX
8
2
10
-0.694394
20
0.020410
0
VERTEX
8
2
10
-0.714758
20
0.035335
0
VERTEX
8
2
10
-0.736250
20
0.048750
0
VERTEX
8
2
10
-0.758796
20
0.060642
0
VERTEX
8
2
10
-0.782324
20
0.070996
0
VERTEX
8
2
10
-0.806760
20
0.079797
0
VERTEX
8
2
10
-0.832031
20
0.087031
0
VERTEX
8
2
10
-0.858064
20
0.092683
0
VERTEX
8
2
10
-0.884785
20
0.096738
0
VERTEX
8
2
10
-0.912122
20
0.099182
0
VERTEX
8
2
10
-0.940000
20
0.100000
0
VERTEX
8
2
10
-1.200000
20
0.100000
0
VERTEX
8
2
10
-1.190637
20
0.099072
0
VERTEX
8
2
10
-1.181348
20
0.096328
0
VERTEX
8
2
10
-1.172205
20
0.091826
0
VERTEX
8
2
10
-1.163281
20
0.085625
0
VERTEX
8
2
10
-1.146387
20
0.068359
0
VERTEX
8
2
10
-1.131250
20
0.045000
0
VERTEX
8
2
10
-1.118457
20
0.016016
0
VERTEX
8
2
10
-1.108594
20
-0.018125
0
VERTEX
8
2
10
-1.102246
20
-0.056953
0
VERTEX
8
2
10
-1.100000
20
-0.100000
0
VERTEX
8
2
10
-1.102246
20
-0.140176
0
VERTEX
8
2
10
-1.108594
20
-0.177656
0
VERTEX
8
2
10
-1.118457
20
-0.211621
0
VERTEX
8
2
10
-1.131250
20
-0.241250
0
VERTEX
8
2
10
-1.146387
20
-0.265723
0
VERTEX
8
2
10
-1.163281
20
-0.284219
0
VERTEX
8
2
10
-1.172205
20
-0.290969
0
VERTEX
8
2
10
-1.181348
20
-0.295918
0
VERTEX
8
2
10
-1.190637
20
-0.298963
0
VERTEX
8
2
10
-1.200000
20
-0.300000
0
VERTEX
8
2
10
-0.940000
20
-0.300000
0
VERTEX
8
2
10
-0.912122
20
-0.299072
0
VERTEX
8
2
10
-0.884785
20
-0.296328
0
VERTEX
8
2
10
-0.858064
20
-0.291826
0
VERTEX
8
2
10
-0.832031
20
-0.285625
0
VERTEX
8
2
10
-0.806760
20
-0.277783
0
VERTEX
8
2
10
-0.782324
20
-0.268359
0
VERTEX
8
2
10
-0.758796
20
-0.257412
0
VERTEX
8
2
10
-0.736250
20
-0.245000
0
VERTEX
8
2
10
-0.714758
20
-0.231182
0
VERTEX
8
2
10
-0.694394
20
-0.216016
0
VERTEX
8
2
10
-0.675232
20
-0.199561
0
VERTEX
8
2
10
-0.657344
20
-0.181875
0
VERTEX
8
2
10
-0.640803
20
-0.163018
0
VERTEX
8
2
10
-0.625683
20
-0.143047
0
VERTEX
8
2
10
-0.612058
20
-0.122022
0
VERTEX
8
2
10
-0.600000
20
-0.100000
0
SEQEND
8
2
0
POLYLINE
8
2
66
1
40
0.016000
41
0.016000
0
VERTEX
8
2
10
-1.200000
20
0.000000
0
VERTEX
8
2
10
-1.120000
20
0.000000
0
SEQEND
8
2
0
POLYLINE
8
2
66
1
40
0.016000
41
0.016000
0
VERTEX
8
2
10
-1.200000
20
-0.200000
0
VERTEX
8
2
10
-1.120000
20
-0.200000
0
SEQEND
8
2
0
POLYLINE
8
2
66
1
40
0.016000
41
0.016000
0
VERTEX
8
2
10
-1.400000
20
0.000000
0
VERTEX
8
2
10
-1.200000
20
0.000000
0
SEQEND
8
2
0
TEXT
8
0
10
-1.380000
20
0.010000
40
0.080000
41
1.000000
1
9
0
POLYLINE
8
2
66
1
40
0.016000
41
0.016000
0
VERTEX
8
2
10
-1.400000
20
-0.200000
0
VERTEX
8
2
10
-1.200000
20
-0.200000
0
SEQEND
8
2
0
TEXT
8
0
10
-1.460000
20
-0.190000
40
0.080000
41
1.000000
1
10
0
POLYLINE
8
2
66
1
40
0.016000
41
0.016000
0
VERTEX
8
2
10
-0.400000
20
-0.100000
0
VERTEX
8
2
10
-0.600000
20
-0.100000
0
SEQEND
8
2
0
TEXT
8
0
10
-0.500000
20
-0.090000
40
0.080000
41
1.000000
1
8
0
TEXT
8
0
10
-1.208000
20
0.123000
40
0.120000
41
0.666667
1
U2:C
0
TEXT
8
0
10
-1.208000
20
-0.398000
40
0.080000
41
1.000000
1
74HC32
0
POLYLINE
8
2
66
1
40
0.016000
41
0.016000
0
VERTEX
8
2
10
-0.300000
20
-0.550000
0
VERTEX
8
2
10
-0.200000
20
-0.550000
0
VERTEX
8
2
10
-0.200000
20
-0.450000
0
VERTEX
8
2
10
-0.300000
20
-0.450000
0
VERTEX
8
2
10
-0.300000
20
-0.550000
0
SEQEND
8
2
0
TEXT
8
2
10
-0.290000
20
-0.540000
40
0.080000
41
1.000000
1
?
0
POLYLINE
8
2
66
1
40
0.016000
41
0.016000
0
VERTEX
8
2
10
-0.400000
20
-0.500000
0
VERTEX
8
2
10
-0.300000
20
-0.500000
0
SEQEND
8
2
0
POLYLINE
8
2
66
1
40
0.016000
41
0.016000
0
VERTEX
8
2
10
-0.600000
20
-0.500000
0
VERTEX
8
2
10
-0.612058
20
-0.476331
0
VERTEX
8
2
10
-0.625683
20
-0.454082
0
VERTEX
8
2
10
-0.640803
20
-0.433269
0
VERTEX
8
2
10
-0.657344
20
-0.413906
0
VERTEX
8
2
10
-0.675232
20
-0.396008
0
VERTEX
8
2
10
-0.694394
20
-0.379590
0
VERTEX
8
2
10
-0.714758
20
-0.364665
0
VERTEX
8
2
10
-0.736250
20
-0.351250
0
VERTEX
8
2
10
-0.758796
20
-0.339358
0
VERTEX
8
2
10
-0.782324
20
-0.329004
0
VERTEX
8
2
10
-0.806760
20
-0.320203
0
VERTEX
8
2
10
-0.832031
20
-0.312969
0
VERTEX
8
2
10
-0.858064
20
-0.307317
0
VERTEX
8
2
10
-0.884785
20
-0.303262
0
VERTEX
8
2
10
-0.912122
20
-0.300818
0
VERTEX
8
2
10
-0.940000
20
-0.300000
0
VERTEX
8
2
10
-1.200000
20
-0.300000
0
VERTEX
8
2
10
-1.190637
20
-0.300928
0
VERTEX
8
2
10
-1.181348
20
-0.303672
0
VERTEX
8
2
10
-1.172205
20
-0.308174
0
VERTEX
8
2
10
-1.163281
20
-0.314375
0
VERTEX
8
2
10
-1.146387
20
-0.331641
0
VERTEX
8
2
10
-1.131250
20
-0.355000
0
VERTEX
8
2
10
-1.118457
20
-0.383984
0
VERTEX
8
2
10
-1.108594
20
-0.418125
0
VERTEX
8
2
10
-1.102246
20
-0.456953
0
VERTEX
8
2
10
-1.100000
20
-0.500000
0
VERTEX
8
2
10
-1.102246
20
-0.540176
0
VERTEX
8
2
10
-1.108594
20
-0.577656
0
VERTEX
8
2
10
-1.118457
20
-0.611621
0
VERTEX
8
2
10
-1.131250
20
-0.641250
0
VERTEX
8
2
10
-1.146387
20
-0.665723
0
VERTEX
8
2
10
-1.163281
20
-0.684219
0
VERTEX
8
2
10
-1.172205
20
-0.690969
0
VERTEX
8
2
10
-1.181348
20
-0.695918
0
VERTEX
8
2
10
-1.190637
20
-0.698963
0
VERTEX
8
2
10
-1.200000
20
-0.700000
0
VERTEX
8
2
10
-0.940000
20
-0.700000
0
VERTEX
8
2
10
-0.912122
20
-0.699072
0
VERTEX
8
2
10
-0.884785
20
-0.696328
0
VERTEX
8
2
10
-0.858064
20
-0.691826
0
VERTEX
8
2
10
-0.832031
20
-0.685625
0
VERTEX
8
2
10
-0.806760
20
-0.677783
0
VERTEX
8
2
10
-0.782324
20
-0.668359
0
VERTEX
8
2
10
-0.758796
20
-0.657412
0
VERTEX
8
2
10
-0.736250
20
-0.645000
0
VERTEX
8
2
10
-0.714758
20
-0.631181
0
VERTEX
8
2
10
-0.694394
20
-0.616016
0
VERTEX
8
2
10
-0.675232
20
-0.599561
0
VERTEX
8
2
10
-0.657344
20
-0.581875
0
VERTEX
8
2
10
-0.640803
20
-0.563018
0
VERTEX
8
2
10
-0.625683
20
-0.543047
0
VERTEX
8
2
10
-0.612058
20
-0.522022
0
VERTEX
8
2
10
-0.600000
20
-0.500000
0
SEQEND
8
2
0
POLYLINE
8
2
66
1
40
0.016000
41
0.016000
0
VERTEX
8
2
10
-1.200000
20
-0.400000
0
VERTEX
8
2
10
-1.120000
20
-0.400000
0
SEQEND
8
2
0
POLYLINE
8
2
66
1
40
0.016000
41
0.016000
0
VERTEX
8
2
10
-1.200000
20
-0.600000
0
VERTEX
8
2
10
-1.120000
20
-0.600000
0
SEQEND
8
2
0
POLYLINE
8
2
66
1
40
0.016000
41
0.016000
0
VERTEX
8
2
10
-1.400000
20
-0.400000
0
VERTEX
8
2
10
-1.200000
20
-0.400000
0
SEQEND
8
2
0
TEXT
8
0
10
-1.460000
20
-0.390000
40
0.080000
41
1.000000
1
12
0
POLYLINE
8
2
66
1
40
0.016000
41
0.016000
0
VERTEX
8
2
10
-1.400000
20
-0.600000
0
VERTEX
8
2
10
-1.200000
20
-0.600000
0
SEQEND
8
2
0
TEXT
8
0
10
-1.460000
20
-0.590000
40
0.080000
41
1.000000
1
13
0
POLYLINE
8
2
66
1
40
0.016000
41
0.016000
0
VERTEX
8
2
10
-0.400000
20
-0.500000
0
VERTEX
8
2
10
-0.600000
20
-0.500000
0
SEQEND
8
2
0
TEXT
8
0
10
-0.500000
20
-0.490000
40
0.080000
41
1.000000
1
11
0
TEXT
8
0
10
-1.208000
20
-0.277000
40
0.120000
41
0.666667
1
U2:D
0
TEXT
8
0
10
-1.208000
20
-0.798000
40
0.080000
41
1.000000
1
74HC32
0
POLYLINE
8
2
66
1
40
0.016000
41
0.016000
0
VERTEX
8
2
10
-0.200000
20
-1.650000
0
VERTEX
8
2
10
-0.100000
20
-1.650000
0
VERTEX
8
2
10
-0.100000
20
-1.550000
0
VERTEX
8
2
10
-0.200000
20
-1.550000
0
VERTEX
8
2
10
-0.200000
20
-1.650000
0
SEQEND
8
2
0
TEXT
8
2
10
-0.190000
20
-1.640000
40
0.080000
41
1.000000
1
?
0
POLYLINE
8
2
66
1
40
0.016000
41
0.016000
0
VERTEX
8
2
10
-0.300000
20
-1.600000
0
VERTEX
8
2
10
-0.200000
20
-1.600000
0
SEQEND
8
2
0
POLYLINE
8
2
66
1
40
0.016000
41
0.016000
0
VERTEX
8
2
10
-0.500000
20
-1.600000
0
VERTEX
8
2
10
-0.512058
20
-1.576331
0
VERTEX
8
2
10
-0.525683
20
-1.554082
0
VERTEX
8
2
10
-0.540803
20
-1.533269
0
VERTEX
8
2
10
-0.557344
20
-1.513906
0
VERTEX
8
2
10
-0.575232
20
-1.496008
0
VERTEX
8
2
10
-0.594395
20
-1.479590
0
VERTEX
8
2
10
-0.614758
20
-1.464665
0
VERTEX
8
2
10
-0.636250
20
-1.451250
0
VERTEX
8
2
10
-0.658796
20
-1.439358
0
VERTEX
8
2
10
-0.682324
20
-1.429004
0
VERTEX
8
2
10
-0.706760
20
-1.420203
0
VERTEX
8
2
10
-0.732031
20
-1.412969
0
VERTEX
8
2
10
-0.758064
20
-1.407317
0
VERTEX
8
2
10
-0.784785
20
-1.403262
0
VERTEX
8
2
10
-0.812122
20
-1.400818
0
VERTEX
8
2
10
-0.840000
20
-1.400000
0
VERTEX
8
2
10
-1.100000
20
-1.400000
0
VERTEX
8
2
10
-1.090637
20
-1.400928
0
VERTEX
8
2
10
-1.081348
20
-1.403672
0
VERTEX
8
2
10
-1.072205
20
-1.408174
0
VERTEX
8
2
10
-1.063281
20
-1.414375
0
VERTEX
8
2
10
-1.046387
20
-1.431641
0
VERTEX
8
2
10
-1.031250
20
-1.455000
0
VERTEX
8
2
10
-1.018457
20
-1.483984
0
VERTEX
8
2
10
-1.008594
20
-1.518125
0
VERTEX
8
2
10
-1.002246
20
-1.556953
0
VERTEX
8
2
10
-1.000000
20
-1.600000
0
VERTEX
8
2
10
-1.002246
20
-1.640176
0
VERTEX
8
2
10
-1.008594
20
-1.677656
0
VERTEX
8
2
10
-1.018457
20
-1.711621
0
VERTEX
8
2
10
-1.031250
20
-1.741250
0
VERTEX
8
2
10
-1.046387
20
-1.765723
0
VERTEX
8
2
10
-1.063281
20
-1.784219
0
VERTEX
8
2
10
-1.072205
20
-1.790969
0
VERTEX
8
2
10
-1.081348
20
-1.795918
0
VERTEX
8
2
10
-1.090637
20
-1.798963
0
VERTEX
8
2
10
-1.100000
20
-1.800000
0
VERTEX
8
2
10
-0.840000
20
-1.800000
0
VERTEX
8
2
10
-0.812122
20
-1.799072
0
VERTEX
8
2
10
-0.784785
20
-1.796328
0
VERTEX
8
2
10
-0.758064
20
-1.791826
0
VERTEX
8
2
10
-0.732031
20
-1.785625
0
VERTEX
8
2
10
-0.706760
20
-1.777783
0
VERTEX
8
2
10
-0.682324
20
-1.768359
0
VERTEX
8
2
10
-0.658796
20
-1.757412
0
VERTEX
8
2
10
-0.636250
20
-1.745000
0
VERTEX
8
2
10
-0.614758
20
-1.731182
0
VERTEX
8
2
10
-0.594395
20
-1.716016
0
VERTEX
8
2
10
-0.575232
20
-1.699561
0
VERTEX
8
2
10
-0.557344
20
-1.681875
0
VERTEX
8
2
10
-0.540803
20
-1.663018
0
VERTEX
8
2
10
-0.525683
20
-1.643047
0
VERTEX
8
2
10
-0.512058
20
-1.622022
0
VERTEX
8
2
10
-0.500000
20
-1.600000
0
SEQEND
8
2
0
POLYLINE
8
2
66
1
40
0.016000
41
0.016000
0
VERTEX
8
2
10
-1.050000
20
-1.600000
0
VERTEX
8
2
10
-1.051836
20
-1.567246
0
VERTEX
8
2
10
-1.057187
20
-1.536719
0
VERTEX
8
2
10
-1.065820
20
-1.508770
0
VERTEX
8
2
10
-1.077500
20
-1.483750
0
VERTEX
8
2
10
-1.091992
20
-1.462012
0
VERTEX
8
2
10
-1.109063
20
-1.443906
0
VERTEX
8
2
10
-1.128476
20
-1.429785
0
VERTEX
8
2
10
-1.150000
20
-1.420000
0
SEQEND
8
2
0
POLYLINE
8
2
66
1
40
0.016000
41
0.016000
0
VERTEX
8
2
10
-1.050000
20
-1.600000
0
VERTEX
8
2
10
-1.051836
20
-1.632754
0
VERTEX
8
2
10
-1.057187
20
-1.663281
0
VERTEX
8
2
10
-1.065820
20
-1.691230
0
VERTEX
8
2
10
-1.077500
20
-1.716250
0
VERTEX
8
2
10
-1.091992
20
-1.737988
0
VERTEX
8
2
10
-1.109063
20
-1.756094
0
VERTEX
8
2
10
-1.128476
20
-1.770215
0
VERTEX
8
2
10
-1.150000
20
-1.780000
0
SEQEND
8
2
0
POLYLINE
8
2
66
1
40
0.016000
41
0.016000
0
VERTEX
8
2
10
-1.100000
20
-1.500000
0
VERTEX
8
2
10
-1.070000
20
-1.500000
0
SEQEND
8
2
0
POLYLINE
8
2
66
1
40
0.016000
41
0.016000
0
VERTEX
8
2
10
-1.100000
20
-1.700000
0
VERTEX
8
2
10
-1.070000
20
-1.700000
0
SEQEND
8
2
0
POLYLINE
8
2
66
1
40
0.016000
41
0.016000
0
VERTEX
8
2
10
-1.300000
20
-1.500000
0
VERTEX
8
2
10
-1.100000
20
-1.500000
0
SEQEND
8
2
0
TEXT
8
0
10
-1.280000
20
-1.490000
40
0.080000
41
1.000000
1
1
0
POLYLINE
8
2
66
1
40
0.016000
41
0.016000
0
VERTEX
8
2
10
-1.300000
20
-1.700000
0
VERTEX
8
2
10
-1.100000
20
-1.700000
0
SEQEND
8
2
0
TEXT
8
0
10
-1.280000
20
-1.690000
40
0.080000
41
1.000000
1
2
0
POLYLINE
8
2
66
1
40
0.016000
41
0.016000
0
VERTEX
8
2
10
-0.300000
20
-1.600000
0
VERTEX
8
2
10
-0.500000
20
-1.600000
0
SEQEND
8
2
0
TEXT
8
0
10
-0.400000
20
-1.590000
40
0.080000
41
1.000000
1
3
0
TEXT
8
0
10
-1.158000
20
-1.377000
40
0.120000
41
0.666667
1
U3:A
0
TEXT
8
0
10
-1.158000
20
-1.898000
40
0.080000
41
1.000000
1
74HC86
0
POLYLINE
8
2
66
1
40
0.016000
41
0.016000
0
VERTEX
8
2
10
-0.200000
20
-2.050000
0
VERTEX
8
2
10
-0.100000
20
-2.050000
0
VERTEX
8
2
10
-0.100000
20
-1.950000
0
VERTEX
8
2
10
-0.200000
20
-1.950000
0
VERTEX
8
2
10
-0.200000
20
-2.050000
0
SEQEND
8
2
0
TEXT
8
2
10
-0.190000
20
-2.040000
40
0.080000
41
1.000000
1
?
0
POLYLINE
8
2
66
1
40
0.016000
41
0.016000
0
VERTEX
8
2
10
-0.300000
20
-2.000000
0
VERTEX
8
2
10
-0.200000
20
-2.000000
0
SEQEND
8
2
0
POLYLINE
8
2
66
1
40
0.016000
41
0.016000
0
VERTEX
8
2
10
-0.500000
20
-2.000000
0
VERTEX
8
2
10
-0.512058
20
-1.976331
0
VERTEX
8
2
10
-0.525683
20
-1.954082
0
VERTEX
8
2
10
-0.540803
20
-1.933269
0
VERTEX
8
2
10
-0.557344
20
-1.913906
0
VERTEX
8
2
10
-0.575232
20
-1.896008
0
VERTEX
8
2
10
-0.594395
20
-1.879590
0
VERTEX
8
2
10
-0.614758
20
-1.864665
0
VERTEX
8
2
10
-0.636250
20
-1.851250
0
VERTEX
8
2
10
-0.658796
20
-1.839358
0
VERTEX
8
2
10
-0.682324
20
-1.829004
0
VERTEX
8
2
10
-0.706760
20
-1.820203
0
VERTEX
8
2
10
-0.732031
20
-1.812969
0
VERTEX
8
2
10
-0.758064
20
-1.807317
0
VERTEX
8
2
10
-0.784785
20
-1.803262
0
VERTEX
8
2
10
-0.812122
20
-1.800818
0
VERTEX
8
2
10
-0.840000
20
-1.800000
0
VERTEX
8
2
10
-1.100000
20
-1.800000
0
VERTEX
8
2
10
-1.090637
20
-1.800928
0
VERTEX
8
2
10
-1.081348
20
-1.803672
0
VERTEX
8
2
10
-1.072205
20
-1.808174
0
VERTEX
8
2
10
-1.063281
20
-1.814375
0
VERTEX
8
2
10
-1.046387
20
-1.831641
0
VERTEX
8
2
10
-1.031250
20
-1.855000
0
VERTEX
8
2
10
-1.018457
20
-1.883984
0
VERTEX
8
2
10
-1.008594
20
-1.918125
0
VERTEX
8
2
10
-1.002246
20
-1.956953
0
VERTEX
8
2
10
-1.000000
20
-2.000000
0
VERTEX
8
2
10
-1.002246
20
-2.040176
0
VERTEX
8
2
10
-1.008594
20
-2.077656
0
VERTEX
8
2
10
-1.018457
20
-2.111621
0
VERTEX
8
2
10
-1.031250
20
-2.141250
0
VERTEX
8
2
10
-1.046387
20
-2.165723
0
VERTEX
8
2
10
-1.063281
20
-2.184219
0
VERTEX
8
2
10
-1.072205
20
-2.190969
0
VERTEX
8
2
10
-1.081348
20
-2.195918
0
VERTEX
8
2
10
-1.090637
20
-2.198963
0
VERTEX
8
2
10
-1.100000
20
-2.200000
0
VERTEX
8
2
10
-0.840000
20
-2.200000
0
VERTEX
8
2
10
-0.812122
20
-2.199072
0
VERTEX
8
2
10
-0.784785
20
-2.196328
0
VERTEX
8
2
10
-0.758064
20
-2.191826
0
VERTEX
8
2
10
-0.732031
20
-2.185625
0
VERTEX
8
2
10
-0.706760
20
-2.177783
0
VERTEX
8
2
10
-0.682324
20
-2.168360
0
VERTEX
8
2
10
-0.658796
20
-2.157412
0
VERTEX
8
2
10
-0.636250
20
-2.145000
0
VERTEX
8
2
10
-0.614758
20
-2.131181
0
VERTEX
8
2
10
-0.594395
20
-2.116016
0
VERTEX
8
2
10
-0.575232
20
-2.099561
0
VERTEX
8
2
10
-0.557344
20
-2.081875
0
VERTEX
8
2
10
-0.540803
20
-2.063018
0
VERTEX
8
2
10
-0.525683
20
-2.043047
0
VERTEX
8
2
10
-0.512058
20
-2.022022
0
VERTEX
8
2
10
-0.500000
20
-2.000000
0
SEQEND
8
2
0
POLYLINE
8
2
66
1
40
0.016000
41
0.016000
0
VERTEX
8
2
10
-1.050000
20
-2.000000
0
VERTEX
8
2
10
-1.051836
20
-1.967246
0
VERTEX
8
2
10
-1.057187
20
-1.936719
0
VERTEX
8
2
10
-1.065820
20
-1.908770
0
VERTEX
8
2
10
-1.077500
20
-1.883750
0
VERTEX
8
2
10
-1.091992
20
-1.862012
0
VERTEX
8
2
10
-1.109063
20
-1.843906
0
VERTEX
8
2
10
-1.128476
20
-1.829785
0
VERTEX
8
2
10
-1.150000
20
-1.820000
0
SEQEND
8
2
0
POLYLINE
8
2
66
1
40
0.016000
41
0.016000
0
VERTEX
8
2
10
-1.050000
20
-2.000000
0
VERTEX
8
2
10
-1.051836
20
-2.032754
0
VERTEX
8
2
10
-1.057187
20
-2.063281
0
VERTEX
8
2
10
-1.065820
20
-2.091230
0
VERTEX
8
2
10
-1.077500
20
-2.116250
0
VERTEX
8
2
10
-1.091992
20
-2.137988
0
VERTEX
8
2
10
-1.109063
20
-2.156094
0
VERTEX
8
2
10
-1.128476
20
-2.170215
0
VERTEX
8
2
10
-1.150000
20
-2.180000
0
SEQEND
8
2
0
POLYLINE
8
2
66
1
40
0.016000
41
0.016000
0
VERTEX
8
2
10
-1.100000
20
-1.900000
0
VERTEX
8
2
10
-1.070000
20
-1.900000
0
SEQEND
8
2
0
POLYLINE
8
2
66
1
40
0.016000
41
0.016000
0
VERTEX
8
2
10
-1.100000
20
-2.100000
0
VERTEX
8
2
10
-1.070000
20
-2.100000
0
SEQEND
8
2
0
POLYLINE
8
2
66
1
40
0.016000
41
0.016000
0
VERTEX
8
2
10
-1.300000
20
-1.900000
0
VERTEX
8
2
10
-1.100000
20
-1.900000
0
SEQEND
8
2
0
TEXT
8
0
10
-1.280000
20
-1.890000
40
0.080000
41
1.000000
1
4
0
POLYLINE
8
2
66
1
40
0.016000
41
0.016000
0
VERTEX
8
2
10
-1.300000
20
-2.100000
0
VERTEX
8
2
10
-1.100000
20
-2.100000
0
SEQEND
8
2
0
TEXT
8
0
10
-1.280000
20
-2.090000
40
0.080000
41
1.000000
1
5
0
POLYLINE
8
2
66
1
40
0.016000
41
0.016000
0
VERTEX
8
2
10
-0.300000
20
-2.000000
0
VERTEX
8
2
10
-0.500000
20
-2.000000
0
SEQEND
8
2
0
TEXT
8
0
10
-0.400000
20
-1.990000
40
0.080000
41
1.000000
1
6
0
TEXT
8
0
10
-1.158000
20
-1.777000
40
0.120000
41
0.666667
1
U3:B
0
TEXT
8
0
10
-1.158000
20
-2.298000
40
0.080000
41
1.000000
1
74HC86
0
POLYLINE
8
2
66
1
40
0.016000
41
0.016000
0
VERTEX
8
2
10
-0.200000
20
-2.450000
0
VERTEX
8
2
10
-0.100000
20
-2.450000
0
VERTEX
8
2
10
-0.100000
20
-2.350000
0
VERTEX
8
2
10
-0.200000
20
-2.350000
0
VERTEX
8
2
10
-0.200000
20
-2.450000
0
SEQEND
8
2
0
TEXT
8
2
10
-0.190000
20
-2.440000
40
0.080000
41
1.000000
1
?
0
POLYLINE
8
2
66
1
40
0.016000
41
0.016000
0
VERTEX
8
2
10
-0.300000
20
-2.400000
0
VERTEX
8
2
10
-0.200000
20
-2.400000
0
SEQEND
8
2
0
POLYLINE
8
2
66
1
40
0.016000
41
0.016000
0
VERTEX
8
2
10
-0.500000
20
-2.400000
0
VERTEX
8
2
10
-0.512058
20
-2.376331
0
VERTEX
8
2
10
-0.525683
20
-2.354082
0
VERTEX
8
2
10
-0.540803
20
-2.333269
0
VERTEX
8
2
10
-0.557344
20
-2.313906
0
VERTEX
8
2
10
-0.575232
20
-2.296008
0
VERTEX
8
2
10
-0.594395
20
-2.279590
0
VERTEX
8
2
10
-0.614758
20
-2.264665
0
VERTEX
8
2
10
-0.636250
20
-2.251250
0
VERTEX
8
2
10
-0.658796
20
-2.239358
0
VERTEX
8
2
10
-0.682324
20
-2.229004
0
VERTEX
8
2
10
-0.706760
20
-2.220203
0
VERTEX
8
2
10
-0.732031
20
-2.212969
0
VERTEX
8
2
10
-0.758064
20
-2.207317
0
VERTEX
8
2
10
-0.784785
20
-2.203262
0
VERTEX
8
2
10
-0.812122
20
-2.200818
0
VERTEX
8
2
10
-0.840000
20
-2.200000
0
VERTEX
8
2
10
-1.100000
20
-2.200000
0
VERTEX
8
2
10
-1.090637
20
-2.200927
0
VERTEX
8
2
10
-1.081348
20
-2.203672
0
VERTEX
8
2
10
-1.072205
20
-2.208174
0
VERTEX
8
2
10
-1.063281
20
-2.214375
0
VERTEX
8
2
10
-1.046387
20
-2.231641
0
VERTEX
8
2
10
-1.031250
20
-2.255000
0
VERTEX
8
2
10
-1.018457
20
-2.283984
0
VERTEX
8
2
10
-1.008594
20
-2.318125
0
VERTEX
8
2
10
-1.002246
20
-2.356953
0
VERTEX
8
2
10
-1.000000
20
-2.400000
0
VERTEX
8
2
10
-1.002246
20
-2.440176
0
VERTEX
8
2
10
-1.008594
20
-2.477656
0
VERTEX
8
2
10
-1.018457
20
-2.511621
0
VERTEX
8
2
10
-1.031250
20
-2.541250
0
VERTEX
8
2
10
-1.046387
20
-2.565723
0
VERTEX
8
2
10
-1.063281
20
-2.584219
0
VERTEX
8
2
10
-1.072205
20
-2.590969
0
VERTEX
8
2
10
-1.081348
20
-2.595918
0
VERTEX
8
2
10
-1.090637
20
-2.598963
0
VERTEX
8
2
10
-1.100000
20
-2.600000
0
VERTEX
8
2
10
-0.840000
20
-2.600000
0
VERTEX
8
2
10
-0.812122
20
-2.599072
0
VERTEX
8
2
10
-0.784785
20
-2.596328
0
VERTEX
8
2
10
-0.758064
20
-2.591826
0
VERTEX
8
2
10
-0.732031
20
-2.585625
0
VERTEX
8
2
10
-0.706760
20
-2.577783
0
VERTEX
8
2
10
-0.682324
20
-2.568359
0
VERTEX
8
2
10
-0.658796
20
-2.557412
0
VERTEX
8
2
10
-0.636250
20
-2.545000
0
VERTEX
8
2
10
-0.614758
20
-2.531182
0
VERTEX
8
2
10
-0.594395
20
-2.516016
0
VERTEX
8
2
10
-0.575232
20
-2.499561
0
VERTEX
8
2
10
-0.557344
20
-2.481875
0
VERTEX
8
2
10
-0.540803
20
-2.463018
0
VERTEX
8
2
10
-0.525683
20
-2.443047
0
VERTEX
8
2
10
-0.512058
20
-2.422022
0
VERTEX
8
2
10
-0.500000
20
-2.400000
0
SEQEND
8
2
0
POLYLINE
8
2
66
1
40
0.016000
41
0.016000
0
VERTEX
8
2
10
-1.050000
20
-2.400000
0
VERTEX
8
2
10
-1.051836
20
-2.367246
0
VERTEX
8
2
10
-1.057187
20
-2.336719
0
VERTEX
8
2
10
-1.065820
20
-2.308770
0
VERTEX
8
2
10
-1.077500
20
-2.283750
0
VERTEX
8
2
10
-1.091992
20
-2.262012
0
VERTEX
8
2
10
-1.109063
20
-2.243906
0
VERTEX
8
2
10
-1.128476
20
-2.229785
0
VERTEX
8
2
10
-1.150000
20
-2.220000
0
SEQEND
8
2
0
POLYLINE
8
2
66
1
40
0.016000
41
0.016000
0
VERTEX
8
2
10
-1.050000
20
-2.400000
0
VERTEX
8
2
10
-1.051836
20
-2.432754
0
VERTEX
8
2
10
-1.057187
20
-2.463281
0
VERTEX
8
2
10
-1.065820
20
-2.491230
0
VERTEX
8
2
10
-1.077500
20
-2.516250
0
VERTEX
8
2
10
-1.091992
20
-2.537988
0
VERTEX
8
2
10
-1.109063
20
-2.556094
0
VERTEX
8
2
10
-1.128476
20
-2.570215
0
VERTEX
8
2
10
-1.150000
20
-2.580000
0
SEQEND
8
2
0
POLYLINE
8
2
66
1
40
0.016000
41
0.016000
0
VERTEX
8
2
10
-1.100000
20
-2.300000
0
VERTEX
8
2
10
-1.070000
20
-2.300000
0
SEQEND
8
2
0
POLYLINE
8
2
66
1
40
0.016000
41
0.016000
0
VERTEX
8
2
10
-1.100000
20
-2.500000
0
VERTEX
8
2
10
-1.070000
20
-2.500000
0
SEQEND
8
2
0
POLYLINE
8
2
66
1
40
0.016000
41
0.016000
0
VERTEX
8
2
10
-1.300000
20
-2.300000
0
VERTEX
8
2
10
-1.100000
20
-2.300000
0
SEQEND
8
2
0
TEXT
8
0
10
-1.280000
20
-2.290000
40
0.080000
41
1.000000
1
9
0
POLYLINE
8
2
66
1
40
0.016000
41
0.016000
0
VERTEX
8
2
10
-1.300000
20
-2.500000
0
VERTEX
8
2
10
-1.100000
20
-2.500000
0
SEQEND
8
2
0
TEXT
8
0
10
-1.360000
20
-2.490000
40
0.080000
41
1.000000
1
10
0
POLYLINE
8
2
66
1
40
0.016000
41
0.016000
0
VERTEX
8
2
10
-0.300000
20
-2.400000
0
VERTEX
8
2
10
-0.500000
20
-2.400000
0
SEQEND
8
2
0
TEXT
8
0
10
-0.400000
20
-2.390000
40
0.080000
41
1.000000
1
8
0
TEXT
8
0
10
-1.158000
20
-2.177000
40
0.120000
41
0.666667
1
U3:C
0
TEXT
8
0
10
-1.158000
20
-2.698000
40
0.080000
41
1.000000
1
74HC86
0
POLYLINE
8
2
66
1
40
0.016000
41
0.016000
0
VERTEX
8
2
10
-0.200000
20
-2.850000
0
VERTEX
8
2
10
-0.100000
20
-2.850000
0
VERTEX
8
2
10
-0.100000
20
-2.750000
0
VERTEX
8
2
10
-0.200000
20
-2.750000
0
VERTEX
8
2
10
-0.200000
20
-2.850000
0
SEQEND
8
2
0
TEXT
8
2
10
-0.190000
20
-2.840000
40
0.080000
41
1.000000
1
?
0
POLYLINE
8
2
66
1
40
0.016000
41
0.016000
0
VERTEX
8
2
10
-0.300000
20
-2.800000
0
VERTEX
8
2
10
-0.200000
20
-2.800000
0
SEQEND
8
2
0
POLYLINE
8
2
66
1
40
0.016000
41
0.016000
0
VERTEX
8
2
10
-0.500000
20
-2.800000
0
VERTEX
8
2
10
-0.512058
20
-2.776331
0
VERTEX
8
2
10
-0.525683
20
-2.754082
0
VERTEX
8
2
10
-0.540803
20
-2.733269
0
VERTEX
8
2
10
-0.557344
20
-2.713906
0
VERTEX
8
2
10
-0.575232
20
-2.696008
0
VERTEX
8
2
10
-0.594395
20
-2.679590
0
VERTEX
8
2
10
-0.614758
20
-2.664665
0
VERTEX
8
2
10
-0.636250
20
-2.651250
0
VERTEX
8
2
10
-0.658796
20
-2.639358
0
VERTEX
8
2
10
-0.682324
20
-2.629004
0
VERTEX
8
2
10
-0.706760
20
-2.620203
0
VERTEX
8
2
10
-0.732031
20
-2.612969
0
VERTEX
8
2
10
-0.758064
20
-2.607317
0
VERTEX
8
2
10
-0.784785
20
-2.603262
0
VERTEX
8
2
10
-0.812122
20
-2.600818
0
VERTEX
8
2
10
-0.840000
20
-2.600000
0
VERTEX
8
2
10
-1.100000
20
-2.600000
0
VERTEX
8
2
10
-1.090637
20
-2.600928
0
VERTEX
8
2
10
-1.081348
20
-2.603672
0
VERTEX
8
2
10
-1.072205
20
-2.608174
0
VERTEX
8
2
10
-1.063281
20
-2.614375
0
VERTEX
8
2
10
-1.046387
20
-2.631640
0
VERTEX
8
2
10
-1.031250
20
-2.655000
0
VERTEX
8
2
10
-1.018457
20
-2.683984
0
VERTEX
8
2
10
-1.008594
20
-2.718125
0
VERTEX
8
2
10
-1.002246
20
-2.756953
0
VERTEX
8
2
10
-1.000000
20
-2.800000
0
VERTEX
8
2
10
-1.002246
20
-2.840176
0
VERTEX
8
2
10
-1.008594
20
-2.877656
0
VERTEX
8
2
10
-1.018457
20
-2.911621
0
VERTEX
8
2
10
-1.031250
20
-2.941250
0
VERTEX
8
2
10
-1.046387
20
-2.965723
0
VERTEX
8
2
10
-1.063281
20
-2.984219
0
VERTEX
8
2
10
-1.072205
20
-2.990969
0
VERTEX
8
2
10
-1.081348
20
-2.995918
0
VERTEX
8
2
10
-1.090637
20
-2.998963
0
VERTEX
8
2
10
-1.100000
20
-3.000000
0
VERTEX
8
2
10
-0.840000
20
-3.000000
0
VERTEX
8
2
10
-0.812122
20
-2.999073
0
VERTEX
8
2
10
-0.784785
20
-2.996328
0
VERTEX
8
2
10
-0.758064
20
-2.991826
0
VERTEX
8
2
10
-0.732031
20
-2.985625
0
VERTEX
8
2
10
-0.706760
20
-2.977783
0
VERTEX
8
2
10
-0.682324
20
-2.968359
0
VERTEX
8
2
10
-0.658796
20
-2.957412
0
VERTEX
8
2
10
-0.636250
20
-2.945000
0
VERTEX
8
2
10
-0.614758
20
-2.931181
0
VERTEX
8
2
10
-0.594395
20
-2.916016
0
VERTEX
8
2
10
-0.575232
20
-2.899561
0
VERTEX
8
2
10
-0.557344
20
-2.881875
0
VERTEX
8
2
10
-0.540803
20
-2.863018
0
VERTEX
8
2
10
-0.525683
20
-2.843047
0
VERTEX
8
2
10
-0.512058
20
-2.822022
0
VERTEX
8
2
10
-0.500000
20
-2.800000
0
SEQEND
8
2
0
POLYLINE
8
2
66
1
40
0.016000
41
0.016000
0
VERTEX
8
2
10
-1.050000
20
-2.800000
0
VERTEX
8
2
10
-1.051836
20
-2.767246
0
VERTEX
8
2
10
-1.057187
20
-2.736719
0
VERTEX
8
2
10
-1.065820
20
-2.708770
0
VERTEX
8
2
10
-1.077500
20
-2.683750
0
VERTEX
8
2
10
-1.091992
20
-2.662012
0
VERTEX
8
2
10
-1.109063
20
-2.643906
0
VERTEX
8
2
10
-1.128476
20
-2.629785
0
VERTEX
8
2
10
-1.150000
20
-2.620000
0
SEQEND
8
2
0
POLYLINE
8
2
66
1
40
0.016000
41
0.016000
0
VERTEX
8
2
10
-1.050000
20
-2.800000
0
VERTEX
8
2
10
-1.051836
20
-2.832754
0
VERTEX
8
2
10
-1.057187
20
-2.863281
0
VERTEX
8
2
10
-1.065820
20
-2.891230
0
VERTEX
8
2
10
-1.077500
20
-2.916250
0
VERTEX
8
2
10
-1.091992
20
-2.937988
0
VERTEX
8
2
10
-1.109063
20
-2.956094
0
VERTEX
8
2
10
-1.128476
20
-2.970215
0
VERTEX
8
2
10
-1.150000
20
-2.980000
0
SEQEND
8
2
0
POLYLINE
8
2
66
1
40
0.016000
41
0.016000
0
VERTEX
8
2
10
-1.100000
20
-2.700000
0
VERTEX
8
2
10
-1.070000
20
-2.700000
0
SEQEND
8
2
0
POLYLINE
8
2
66
1
40
0.016000
41
0.016000
0
VERTEX
8
2
10
-1.100000
20
-2.900000
0
VERTEX
8
2
10
-1.070000
20
-2.900000
0
SEQEND
8
2
0
POLYLINE
8
2
66
1
40
0.016000
41
0.016000
0
VERTEX
8
2
10
-1.300000
20
-2.700000
0
VERTEX
8
2
10
-1.100000
20
-2.700000
0
SEQEND
8
2
0
TEXT
8
0
10
-1.360000
20
-2.690000
40
0.080000
41
1.000000
1
12
0
POLYLINE
8
2
66
1
40
0.016000
41
0.016000
0
VERTEX
8
2
10
-1.300000
20
-2.900000
0
VERTEX
8
2
10
-1.100000
20
-2.900000
0
SEQEND
8
2
0
TEXT
8
0
10
-1.360000
20
-2.890000
40
0.080000
41
1.000000
1
13
0
POLYLINE
8
2
66
1
40
0.016000
41
0.016000
0
VERTEX
8
2
10
-0.300000
20
-2.800000
0
VERTEX
8
2
10
-0.500000
20
-2.800000
0
SEQEND
8
2
0
TEXT
8
0
10
-0.400000
20
-2.790000
40
0.080000
41
1.000000
1
11
0
TEXT
8
0
10
-1.158000
20
-2.577000
40
0.120000
41
0.666667
1
U3:D
0
TEXT
8
0
10
-1.158000
20
-3.098000
40
0.080000
41
1.000000
1
74HC86
0
CIRCLE
8
1
10
-2.000000
20
-1.200000
40
0.020000
0
CIRCLE
8
1
10
0.700000
20
-1.300000
40
0.020000
0
CIRCLE
8
1
10
0.700000
20
-1.700000
40
0.020000
0
CIRCLE
8
1
10
0.700000
20
-2.100000
40
0.020000
0
POLYLINE
8
2
66
1
40
0.016000
41
0.016000
0
VERTEX
8
2
10
2.000000
20
-0.800000
0
VERTEX
8
2
10
1.987942
20
-0.776331
0
VERTEX
8
2
10
1.974316
20
-0.754082
0
VERTEX
8
2
10
1.959197
20
-0.733269
0
VERTEX
8
2
10
1.942656
20
-0.713906
0
VERTEX
8
2
10
1.924768
20
-0.696008
0
VERTEX
8
2
10
1.905606
20
-0.679590
0
VERTEX
8
2
10
1.885242
20
-0.664665
0
VERTEX
8
2
10
1.863750
20
-0.651250
0
VERTEX
8
2
10
1.841204
20
-0.639358
0
VERTEX
8
2
10
1.817676
20
-0.629004
0
VERTEX
8
2
10
1.793240
20
-0.620203
0
VERTEX
8
2
10
1.767969
20
-0.612969
0
VERTEX
8
2
10
1.741936
20
-0.607317
0
VERTEX
8
2
10
1.715215
20
-0.603262
0
VERTEX
8
2
10
1.687878
20
-0.600818
0
VERTEX
8
2
10
1.660000
20
-0.600000
0
VERTEX
8
2
10
1.400000
20
-0.600000
0
VERTEX
8
2
10
1.409363
20
-0.600928
0
VERTEX
8
2
10
1.418652
20
-0.603672
0
VERTEX
8
2
10
1.427795
20
-0.608174
0
VERTEX
8
2
10
1.436719
20
-0.614375
0
VERTEX
8
2
10
1.453613
20
-0.631641
0
VERTEX
8
2
10
1.468750
20
-0.655000
0
VERTEX
8
2
10
1.481543
20
-0.683984
0
VERTEX
8
2
10
1.491406
20
-0.718125
0
VERTEX
8
2
10
1.497754
20
-0.756953
0
VERTEX
8
2
10
1.500000
20
-0.800000
0
VERTEX
8
2
10
1.497754
20
-0.840176
0
VERTEX
8
2
10
1.491406
20
-0.877656
0
VERTEX
8
2
10
1.481543
20
-0.911621
0
VERTEX
8
2
10
1.468750
20
-0.941250
0
VERTEX
8
2
10
1.453613
20
-0.965723
0
VERTEX
8
2
10
1.436719
20
-0.984219
0
VERTEX
8
2
10
1.427795
20
-0.990969
0
VERTEX
8
2
10
1.418652
20
-0.995918
0
VERTEX
8
2
10
1.409363
20
-0.998963
0
VERTEX
8
2
10
1.400000
20
-1.000000
0
VERTEX
8
2
10
1.660000
20
-1.000000
0
VERTEX
8
2
10
1.687878
20
-0.999072
0
VERTEX
8
2
10
1.715215
20
-0.996328
0
VERTEX
8
2
10
1.741936
20
-0.991826
0
VERTEX
8
2
10
1.767969
20
-0.985625
0
VERTEX
8
2
10
1.793240
20
-0.977783
0
VERTEX
8
2
10
1.817676
20
-0.968359
0
VERTEX
8
2
10
1.841204
20
-0.957412
0
VERTEX
8
2
10
1.863750
20
-0.945000
0
VERTEX
8
2
10
1.885242
20
-0.931181
0
VERTEX
8
2
10
1.905606
20
-0.916016
0
VERTEX
8
2
10
1.924768
20
-0.899561
0
VERTEX
8
2
10
1.942656
20
-0.881875
0
VERTEX
8
2
10
1.959197
20
-0.863018
0
VERTEX
8
2
10
1.974316
20
-0.843047
0
VERTEX
8
2
10
1.987942
20
-0.822022
0
VERTEX
8
2
10
2.000000
20
-0.800000
0
SEQEND
8
2
0
POLYLINE
8
2
66
1
40
0.016000
41
0.016000
0
VERTEX
8
2
10
1.450000
20
-0.800000
0
VERTEX
8
2
10
1.448164
20
-0.767246
0
VERTEX
8
2
10
1.442813
20
-0.736719
0
VERTEX
8
2
10
1.434180
20
-0.708770
0
VERTEX
8
2
10
1.422500
20
-0.683750
0
VERTEX
8
2
10
1.408008
20
-0.662012
0
VERTEX
8
2
10
1.390937
20
-0.643906
0
VERTEX
8
2
10
1.371524
20
-0.629785
0
VERTEX
8
2
10
1.350000
20
-0.620000
0
SEQEND
8
2
0
POLYLINE
8
2
66
1
40
0.016000
41
0.016000
0
VERTEX
8
2
10
1.450000
20
-0.800000
0
VERTEX
8
2
10
1.448164
20
-0.832754
0
VERTEX
8
2
10
1.442813
20
-0.863281
0
VERTEX
8
2
10
1.434180
20
-0.891230
0
VERTEX
8
2
10
1.422500
20
-0.916250
0
VERTEX
8
2
10
1.408008
20
-0.937988
0
VERTEX
8
2
10
1.390937
20
-0.956094
0
VERTEX
8
2
10
1.371524
20
-0.970215
0
VERTEX
8
2
10
1.350000
20
-0.980000
0
SEQEND
8
2
0
POLYLINE
8
2
66
1
40
0.016000
41
0.016000
0
VERTEX
8
2
10
1.400000
20
-0.700000
0
VERTEX
8
2
10
1.430000
20
-0.700000
0
SEQEND
8
2
0
POLYLINE
8
2
66
1
40
0.016000
41
0.016000
0
VERTEX
8
2
10
1.400000
20
-0.900000
0
VERTEX
8
2
10
1.430000
20
-0.900000
0
SEQEND
8
2
0
POLYLINE
8
2
66
1
40
0.016000
41
0.016000
0
VERTEX
8
2
10
1.200000
20
-0.700000
0
VERTEX
8
2
10
1.400000
20
-0.700000
0
SEQEND
8
2
0
TEXT
8
0
10
1.220000
20
-0.690000
40
0.080000
41
1.000000
1
1
0
POLYLINE
8
2
66
1
40
0.016000
41
0.016000
0
VERTEX
8
2
10
1.200000
20
-0.900000
0
VERTEX
8
2
10
1.400000
20
-0.900000
0
SEQEND
8
2
0
TEXT
8
0
10
1.220000
20
-0.890000
40
0.080000
41
1.000000
1
2
0
POLYLINE
8
2
66
1
40
0.016000
41
0.016000
0
VERTEX
8
2
10
2.200000
20
-0.800000
0
VERTEX
8
2
10
2.000000
20
-0.800000
0
SEQEND
8
2
0
TEXT
8
0
10
2.100000
20
-0.790000
40
0.080000
41
1.000000
1
3
0
TEXT
8
0
10
1.342000
20
-0.577000
40
0.120000
41
0.666667
1
U5:A
0
TEXT
8
0
10
1.342000
20
-1.098000
40
0.080000
41
1.000000
1
74HC86
0
POLYLINE
8
2
66
1
40
0.016000
41
0.016000
0
VERTEX
8
2
10
2.000000
20
-1.200000
0
VERTEX
8
2
10
1.987942
20
-1.176331
0
VERTEX
8
2
10
1.974316
20
-1.154082
0
VERTEX
8
2
10
1.959197
20
-1.133269
0
VERTEX
8
2
10
1.942656
20
-1.113906
0
VERTEX
8
2
10
1.924768
20
-1.096008
0
VERTEX
8
2
10
1.905606
20
-1.079590
0
VERTEX
8
2
10
1.885242
20
-1.064665
0
VERTEX
8
2
10
1.863750
20
-1.051250
0
VERTEX
8
2
10
1.841204
20
-1.039358
0
VERTEX
8
2
10
1.817676
20
-1.029004
0
VERTEX
8
2
10
1.793240
20
-1.020203
0
VERTEX
8
2
10
1.767969
20
-1.012969
0
VERTEX
8
2
10
1.741936
20
-1.007317
0
VERTEX
8
2
10
1.715215
20
-1.003262
0
VERTEX
8
2
10
1.687878
20
-1.000818
0
VERTEX
8
2
10
1.660000
20
-1.000000
0
VERTEX
8
2
10
1.400000
20
-1.000000
0
VERTEX
8
2
10
1.409363
20
-1.000928
0
VERTEX
8
2
10
1.418652
20
-1.003672
0
VERTEX
8
2
10
1.427795
20
-1.008174
0
VERTEX
8
2
10
1.436719
20
-1.014375
0
VERTEX
8
2
10
1.453613
20
-1.031641
0
VERTEX
8
2
10
1.468750
20
-1.055000
0
VERTEX
8
2
10
1.481543
20
-1.083984
0
VERTEX
8
2
10
1.491406
20
-1.118125
0
VERTEX
8
2
10
1.497754
20
-1.156953
0
VERTEX
8
2
10
1.500000
20
-1.200000
0
VERTEX
8
2
10
1.497754
20
-1.240176
0
VERTEX
8
2
10
1.491406
20
-1.277656
0
VERTEX
8
2
10
1.481543
20
-1.311621
0
VERTEX
8
2
10
1.468750
20
-1.341250
0
VERTEX
8
2
10
1.453613
20
-1.365723
0
VERTEX
8
2
10
1.436719
20
-1.384219
0
VERTEX
8
2
10
1.427795
20
-1.390969
0
VERTEX
8
2
10
1.418652
20
-1.395918
0
VERTEX
8
2
10
1.409363
20
-1.398963
0
VERTEX
8
2
10
1.400000
20
-1.400000
0
VERTEX
8
2
10
1.660000
20
-1.400000
0
VERTEX
8
2
10
1.687878
20
-1.399072
0
VERTEX
8
2
10
1.715215
20
-1.396328
0
VERTEX
8
2
10
1.741936
20
-1.391826
0
VERTEX
8
2
10
1.767969
20
-1.385625
0
VERTEX
8
2
10
1.793240
20
-1.377783
0
VERTEX
8
2
10
1.817676
20
-1.368359
0
VERTEX
8
2
10
1.841204
20
-1.357412
0
VERTEX
8
2
10
1.863750
20
-1.345000
0
VERTEX
8
2
10
1.885242
20
-1.331182
0
VERTEX
8
2
10
1.905606
20
-1.316016
0
VERTEX
8
2
10
1.924768
20
-1.299561
0
VERTEX
8
2
10
1.942656
20
-1.281875
0
VERTEX
8
2
10
1.959197
20
-1.263018
0
VERTEX
8
2
10
1.974316
20
-1.243047
0
VERTEX
8
2
10
1.987942
20
-1.222022
0
VERTEX
8
2
10
2.000000
20
-1.200000
0
SEQEND
8
2
0
POLYLINE
8
2
66
1
40
0.016000
41
0.016000
0
VERTEX
8
2
10
1.450000
20
-1.200000
0
VERTEX
8
2
10
1.448164
20
-1.167246
0
VERTEX
8
2
10
1.442813
20
-1.136719
0
VERTEX
8
2
10
1.434180
20
-1.108770
0
VERTEX
8
2
10
1.422500
20
-1.083750
0
VERTEX
8
2
10
1.408008
20
-1.062012
0
VERTEX
8
2
10
1.390937
20
-1.043906
0
VERTEX
8
2
10
1.371524
20
-1.029785
0
VERTEX
8
2
10
1.350000
20
-1.020000
0
SEQEND
8
2
0
POLYLINE
8
2
66
1
40
0.016000
41
0.016000
0
VERTEX
8
2
10
1.450000
20
-1.200000
0
VERTEX
8
2
10
1.448164
20
-1.232754
0
VERTEX
8
2
10
1.442813
20
-1.263281
0
VERTEX
8
2
10
1.434180
20
-1.291230
0
VERTEX
8
2
10
1.422500
20
-1.316250
0
VERTEX
8
2
10
1.408008
20
-1.337988
0
VERTEX
8
2
10
1.390937
20
-1.356094
0
VERTEX
8
2
10
1.371524
20
-1.370215
0
VERTEX
8
2
10
1.350000
20
-1.380000
0
SEQEND
8
2
0
POLYLINE
8
2
66
1
40
0.016000
41
0.016000
0
VERTEX
8
2
10
1.400000
20
-1.100000
0
VERTEX
8
2
10
1.430000
20
-1.100000
0
SEQEND
8
2
0
POLYLINE
8
2
66
1
40
0.016000
41
0.016000
0
VERTEX
8
2
10
1.400000
20
-1.300000
0
VERTEX
8
2
10
1.430000
20
-1.300000
0
SEQEND
8
2
0
POLYLINE
8
2
66
1
40
0.016000
41
0.016000
0
VERTEX
8
2
10
1.200000
20
-1.100000
0
VERTEX
8
2
10
1.400000
20
-1.100000
0
SEQEND
8
2
0
TEXT
8
0
10
1.220000
20
-1.090000
40
0.080000
41
1.000000
1
4
0
POLYLINE
8
2
66
1
40
0.016000
41
0.016000
0
VERTEX
8
2
10
1.200000
20
-1.300000
0
VERTEX
8
2
10
1.400000
20
-1.300000
0
SEQEND
8
2
0
TEXT
8
0
10
1.220000
20
-1.290000
40
0.080000
41
1.000000
1
5
0
POLYLINE
8
2
66
1
40
0.016000
41
0.016000
0
VERTEX
8
2
10
2.200000
20
-1.200000
0
VERTEX
8
2
10
2.000000
20
-1.200000
0
SEQEND
8
2
0
TEXT
8
0
10
2.100000
20
-1.190000
40
0.080000
41
1.000000
1
6
0
TEXT
8
0
10
1.342000
20
-0.977000
40
0.120000
41
0.666667
1
U5:B
0
TEXT
8
0
10
1.342000
20
-1.498000
40
0.080000
41
1.000000
1
74HC86
0
POLYLINE
8
2
66
1
40
0.016000
41
0.016000
0
VERTEX
8
2
10
2.000000
20
-1.600000
0
VERTEX
8
2
10
1.987942
20
-1.576331
0
VERTEX
8
2
10
1.974316
20
-1.554082
0
VERTEX
8
2
10
1.959197
20
-1.533269
0
VERTEX
8
2
10
1.942656
20
-1.513906
0
VERTEX
8
2
10
1.924768
20
-1.496008
0
VERTEX
8
2
10
1.905606
20
-1.479590
0
VERTEX
8
2
10
1.885242
20
-1.464665
0
VERTEX
8
2
10
1.863750
20
-1.451250
0
VERTEX
8
2
10
1.841204
20
-1.439358
0
VERTEX
8
2
10
1.817676
20
-1.429004
0
VERTEX
8
2
10
1.793240
20
-1.420203
0
VERTEX
8
2
10
1.767969
20
-1.412969
0
VERTEX
8
2
10
1.741936
20
-1.407317
0
VERTEX
8
2
10
1.715215
20
-1.403262
0
VERTEX
8
2
10
1.687878
20
-1.400818
0
VERTEX
8
2
10
1.660000
20
-1.400000
0
VERTEX
8
2
10
1.400000
20
-1.400000
0
VERTEX
8
2
10
1.409363
20
-1.400928
0
VERTEX
8
2
10
1.418652
20
-1.403672
0
VERTEX
8
2
10
1.427795
20
-1.408174
0
VERTEX
8
2
10
1.436719
20
-1.414375
0
VERTEX
8
2
10
1.453613
20
-1.431641
0
VERTEX
8
2
10
1.468750
20
-1.455000
0
VERTEX
8
2
10
1.481543
20
-1.483984
0
VERTEX
8
2
10
1.491406
20
-1.518125
0
VERTEX
8
2
10
1.497754
20
-1.556953
0
VERTEX
8
2
10
1.500000
20
-1.600000
0
VERTEX
8
2
10
1.497754
20
-1.640176
0
VERTEX
8
2
10
1.491406
20
-1.677656
0
VERTEX
8
2
10
1.481543
20
-1.711621
0
VERTEX
8
2
10
1.468750
20
-1.741250
0
VERTEX
8
2
10
1.453613
20
-1.765723
0
VERTEX
8
2
10
1.436719
20
-1.784219
0
VERTEX
8
2
10
1.427795
20
-1.790969
0
VERTEX
8
2
10
1.418652
20
-1.795918
0
VERTEX
8
2
10
1.409363
20
-1.798963
0
VERTEX
8
2
10
1.400000
20
-1.800000
0
VERTEX
8
2
10
1.660000
20
-1.800000
0
VERTEX
8
2
10
1.687878
20
-1.799072
0
VERTEX
8
2
10
1.715215
20
-1.796328
0
VERTEX
8
2
10
1.741936
20
-1.791826
0
VERTEX
8
2
10
1.767969
20
-1.785625
0
VERTEX
8
2
10
1.793240
20
-1.777783
0
VERTEX
8
2
10
1.817676
20
-1.768359
0
VERTEX
8
2
10
1.841204
20
-1.757412
0
VERTEX
8
2
10
1.863750
20
-1.745000
0
VERTEX
8
2
10
1.885242
20
-1.731182
0
VERTEX
8
2
10
1.905606
20
-1.716016
0
VERTEX
8
2
10
1.924768
20
-1.699561
0
VERTEX
8
2
10
1.942656
20
-1.681875
0
VERTEX
8
2
10
1.959197
20
-1.663018
0
VERTEX
8
2
10
1.974316
20
-1.643047
0
VERTEX
8
2
10
1.987942
20
-1.622022
0
VERTEX
8
2
10
2.000000
20
-1.600000
0
SEQEND
8
2
0
POLYLINE
8
2
66
1
40
0.016000
41
0.016000
0
VERTEX
8
2
10
1.450000
20
-1.600000
0
VERTEX
8
2
10
1.448164
20
-1.567246
0
VERTEX
8
2
10
1.442813
20
-1.536719
0
VERTEX
8
2
10
1.434180
20
-1.508770
0
VERTEX
8
2
10
1.422500
20
-1.483750
0
VERTEX
8
2
10
1.408008
20
-1.462012
0
VERTEX
8
2
10
1.390937
20
-1.443906
0
VERTEX
8
2
10
1.371524
20
-1.429785
0
VERTEX
8
2
10
1.350000
20
-1.420000
0
SEQEND
8
2
0
POLYLINE
8
2
66
1
40
0.016000
41
0.016000
0
VERTEX
8
2
10
1.450000
20
-1.600000
0
VERTEX
8
2
10
1.448164
20
-1.632754
0
VERTEX
8
2
10
1.442813
20
-1.663281
0
VERTEX
8
2
10
1.434180
20
-1.691230
0
VERTEX
8
2
10
1.422500
20
-1.716250
0
VERTEX
8
2
10
1.408008
20
-1.737988
0
VERTEX
8
2
10
1.390937
20
-1.756094
0
VERTEX
8
2
10
1.371524
20
-1.770215
0
VERTEX
8
2
10
1.350000
20
-1.780000
0
SEQEND
8
2
0
POLYLINE
8
2
66
1
40
0.016000
41
0.016000
0
VERTEX
8
2
10
1.400000
20
-1.500000
0
VERTEX
8
2
10
1.430000
20
-1.500000
0
SEQEND
8
2
0
POLYLINE
8
2
66
1
40
0.016000
41
0.016000
0
VERTEX
8
2
10
1.400000
20
-1.700000
0
VERTEX
8
2
10
1.430000
20
-1.700000
0
SEQEND
8
2
0
POLYLINE
8
2
66
1
40
0.016000
41
0.016000
0
VERTEX
8
2
10
1.200000
20
-1.500000
0
VERTEX
8
2
10
1.400000
20
-1.500000
0
SEQEND
8
2
0
TEXT
8
0
10
1.220000
20
-1.490000
40
0.080000
41
1.000000
1
9
0
POLYLINE
8
2
66
1
40
0.016000
41
0.016000
0
VERTEX
8
2
10
1.200000
20
-1.700000
0
VERTEX
8
2
10
1.400000
20
-1.700000
0
SEQEND
8
2
0
TEXT
8
0
10
1.140000
20
-1.690000
40
0.080000
41
1.000000
1
10
0
POLYLINE
8
2
66
1
40
0.016000
41
0.016000
0
VERTEX
8
2
10
2.200000
20
-1.600000
0
VERTEX
8
2
10
2.000000
20
-1.600000
0
SEQEND
8
2
0
TEXT
8
0
10
2.100000
20
-1.590000
40
0.080000
41
1.000000
1
8
0
TEXT
8
0
10
1.342000
20
-1.377000
40
0.120000
41
0.666667
1
U5:C
0
TEXT
8
0
10
1.342000
20
-1.898000
40
0.080000
41
1.000000
1
74HC86
0
POLYLINE
8
2
66
1
40
0.016000
41
0.016000
0
VERTEX
8
2
10
2.000000
20
-2.000000
0
VERTEX
8
2
10
1.987942
20
-1.976331
0
VERTEX
8
2
10
1.974316
20
-1.954082
0
VERTEX
8
2
10
1.959197
20
-1.933269
0
VERTEX
8
2
10
1.942656
20
-1.913906
0
VERTEX
8
2
10
1.924768
20
-1.896008
0
VERTEX
8
2
10
1.905606
20
-1.879590
0
VERTEX
8
2
10
1.885242
20
-1.864665
0
VERTEX
8
2
10
1.863750
20
-1.851250
0
VERTEX
8
2
10
1.841204
20
-1.839358
0
VERTEX
8
2
10
1.817676
20
-1.829004
0
VERTEX
8
2
10
1.793240
20
-1.820203
0
VERTEX
8
2
10
1.767969
20
-1.812969
0
VERTEX
8
2
10
1.741936
20
-1.807317
0
VERTEX
8
2
10
1.715215
20
-1.803262
0
VERTEX
8
2
10
1.687878
20
-1.800818
0
VERTEX
8
2
10
1.660000
20
-1.800000
0
VERTEX
8
2
10
1.400000
20
-1.800000
0
VERTEX
8
2
10
1.409363
20
-1.800928
0
VERTEX
8
2
10
1.418652
20
-1.803672
0
VERTEX
8
2
10
1.427795
20
-1.808174
0
VERTEX
8
2
10
1.436719
20
-1.814375
0
VERTEX
8
2
10
1.453613
20
-1.831641
0
VERTEX
8
2
10
1.468750
20
-1.855000
0
VERTEX
8
2
10
1.481543
20
-1.883984
0
VERTEX
8
2
10
1.491406
20
-1.918125
0
VERTEX
8
2
10
1.497754
20
-1.956953
0
VERTEX
8
2
10
1.500000
20
-2.000000
0
VERTEX
8
2
10
1.497754
20
-2.040176
0
VERTEX
8
2
10
1.491406
20
-2.077656
0
VERTEX
8
2
10
1.481543
20
-2.111621
0
VERTEX
8
2
10
1.468750
20
-2.141250
0
VERTEX
8
2
10
1.453613
20
-2.165723
0
VERTEX
8
2
10
1.436719
20
-2.184219
0
VERTEX
8
2
10
1.427795
20
-2.190969
0
VERTEX
8
2
10
1.418652
20
-2.195918
0
VERTEX
8
2
10
1.409363
20
-2.198963
0
VERTEX
8
2
10
1.400000
20
-2.200000
0
VERTEX
8
2
10
1.660000
20
-2.200000
0
VERTEX
8
2
10
1.687878
20
-2.199072
0
VERTEX
8
2
10
1.715215
20
-2.196328
0
VERTEX
8
2
10
1.741936
20
-2.191826
0
VERTEX
8
2
10
1.767969
20
-2.185625
0
VERTEX
8
2
10
1.793240
20
-2.177783
0
VERTEX
8
2
10
1.817676
20
-2.168360
0
VERTEX
8
2
10
1.841204
20
-2.157412
0
VERTEX
8
2
10
1.863750
20
-2.145000
0
VERTEX
8
2
10
1.885242
20
-2.131181
0
VERTEX
8
2
10
1.905606
20
-2.116016
0
VERTEX
8
2
10
1.924768
20
-2.099561
0
VERTEX
8
2
10
1.942656
20
-2.081875
0
VERTEX
8
2
10
1.959197
20
-2.063018
0
VERTEX
8
2
10
1.974316
20
-2.043047
0
VERTEX
8
2
10
1.987942
20
-2.022022
0
VERTEX
8
2
10
2.000000
20
-2.000000
0
SEQEND
8
2
0
POLYLINE
8
2
66
1
40
0.016000
41
0.016000
0
VERTEX
8
2
10
1.450000
20
-2.000000
0
VERTEX
8
2
10
1.448164
20
-1.967246
0
VERTEX
8
2
10
1.442813
20
-1.936719
0
VERTEX
8
2
10
1.434180
20
-1.908770
0
VERTEX
8
2
10
1.422500
20
-1.883750
0
VERTEX
8
2
10
1.408008
20
-1.862012
0
VERTEX
8
2
10
1.390937
20
-1.843906
0
VERTEX
8
2
10
1.371524
20
-1.829785
0
VERTEX
8
2
10
1.350000
20
-1.820000
0
SEQEND
8
2
0
POLYLINE
8
2
66
1
40
0.016000
41
0.016000
0
VERTEX
8
2
10
1.450000
20
-2.000000
0
VERTEX
8
2
10
1.448164
20
-2.032754
0
VERTEX
8
2
10
1.442813
20
-2.063281
0
VERTEX
8
2
10
1.434180
20
-2.091230
0
VERTEX
8
2
10
1.422500
20
-2.116250
0
VERTEX
8
2
10
1.408008
20
-2.137988
0
VERTEX
8
2
10
1.390937
20
-2.156094
0
VERTEX
8
2
10
1.371524
20
-2.170215
0
VERTEX
8
2
10
1.350000
20
-2.180000
0
SEQEND
8
2
0
POLYLINE
8
2
66
1
40
0.016000
41
0.016000
0
VERTEX
8
2
10
1.400000
20
-1.900000
0
VERTEX
8
2
10
1.430000
20
-1.900000
0
SEQEND
8
2
0
POLYLINE
8
2
66
1
40
0.016000
41
0.016000
0
VERTEX
8
2
10
1.400000
20
-2.100000
0
VERTEX
8
2
10
1.430000
20
-2.100000
0
SEQEND
8
2
0
POLYLINE
8
2
66
1
40
0.016000
41
0.016000
0
VERTEX
8
2
10
1.200000
20
-1.900000
0
VERTEX
8
2
10
1.400000
20
-1.900000
0
SEQEND
8
2
0
TEXT
8
0
10
1.140000
20
-1.890000
40
0.080000
41
1.000000
1
12
0
POLYLINE
8
2
66
1
40
0.016000
41
0.016000
0
VERTEX
8
2
10
1.200000
20
-2.100000
0
VERTEX
8
2
10
1.400000
20
-2.100000
0
SEQEND
8
2
0
TEXT
8
0
10
1.140000
20
-2.090000
40
0.080000
41
1.000000
1
13
0
POLYLINE
8
2
66
1
40
0.016000
41
0.016000
0
VERTEX
8
2
10
2.200000
20
-2.000000
0
VERTEX
8
2
10
2.000000
20
-2.000000
0
SEQEND
8
2
0
TEXT
8
0
10
2.100000
20
-1.990000
40
0.080000
41
1.000000
1
11
0
TEXT
8
0
10
1.342000
20
-1.777000
40
0.120000
41
0.666667
1
U5:D
0
TEXT
8
0
10
1.342000
20
-2.298000
40
0.080000
41
1.000000
1
74HC86
0
CIRCLE
8
1
10
-2.100000
20
1.100000
40
0.020000
0
POLYLINE
8
2
66
1
40
0.016000
41
0.016000
0
VERTEX
8
2
10
4.700000
20
1.050000
0
VERTEX
8
2
10
4.800000
20
1.050000
0
VERTEX
8
2
10
4.800000
20
1.150000
0
VERTEX
8
2
10
4.700000
20
1.150000
0
VERTEX
8
2
10
4.700000
20
1.050000
0
SEQEND
8
2
0
TEXT
8
2
10
4.710000
20
1.060000
40
0.080000
41
1.000000
1
?
0
POLYLINE
8
2
66
1
40
0.016000
41
0.016000
0
VERTEX
8
2
10
4.600000
20
1.100000
0
VERTEX
8
2
10
4.700000
20
1.100000
0
SEQEND
8
2
0
POLYLINE
8
2
66
1
40
0.016000
41
0.016000
0
VERTEX
8
2
10
4.400000
20
1.050000
0
VERTEX
8
2
10
4.500000
20
1.050000
0
VERTEX
8
2
10
4.500000
20
1.150000
0
VERTEX
8
2
10
4.400000
20
1.150000
0
VERTEX
8
2
10
4.400000
20
1.050000
0
SEQEND
8
2
0
TEXT
8
2
10
4.410000
20
1.060000
40
0.080000
41
1.000000
1
?
0
POLYLINE
8
2
66
1
40
0.016000
41
0.016000
0
VERTEX
8
2
10
4.300000
20
1.100000
0
VERTEX
8
2
10
4.400000
20
1.100000
0
SEQEND
8
2
0
POLYLINE
8
2
66
1
40
0.016000
41
0.016000
0
VERTEX
8
2
10
4.100000
20
1.050000
0
VERTEX
8
2
10
4.200000
20
1.050000
0
VERTEX
8
2
10
4.200000
20
1.150000
0
VERTEX
8
2
10
4.100000
20
1.150000
0
VERTEX
8
2
10
4.100000
20
1.050000
0
SEQEND
8
2
0
TEXT
8
2
10
4.110000
20
1.060000
40
0.080000
41
1.000000
1
?
0
POLYLINE
8
2
66
1
40
0.016000
41
0.016000
0
VERTEX
8
2
10
4.000000
20
1.100000
0
VERTEX
8
2
10
4.100000
20
1.100000
0
SEQEND
8
2
0
POLYLINE
8
2
66
1
40
0.016000
41
0.016000
0
VERTEX
8
2
10
3.800000
20
1.050000
0
VERTEX
8
2
10
3.900000
20
1.050000
0
VERTEX
8
2
10
3.900000
20
1.150000
0
VERTEX
8
2
10
3.800000
20
1.150000
0
VERTEX
8
2
10
3.800000
20
1.050000
0
SEQEND
8
2
0
TEXT
8
2
10
3.810000
20
1.060000
40
0.080000
41
1.000000
1
?
0
POLYLINE
8
2
66
1
40
0.016000
41
0.016000
0
VERTEX
8
2
10
3.700000
20
1.100000
0
VERTEX
8
2
10
3.800000
20
1.100000
0
SEQEND
8
2
0
POLYLINE
8
2
66
1
40
0.016000
41
0.016000
0
VERTEX
8
2
10
2.900000
20
0.300000
0
VERTEX
8
2
10
3.500000
20
0.300000
0
VERTEX
8
2
10
3.500000
20
1.500000
0
VERTEX
8
2
10
2.900000
20
1.500000
0
VERTEX
8
2
10
2.900000
20
0.300000
0
SEQEND
8
2
0
POLYLINE
8
2
66
1
40
0.016000
41
0.016000
0
VERTEX
8
2
10
2.700000
20
1.400000
0
VERTEX
8
2
10
2.900000
20
1.400000
0
SEQEND
8
2
0
TEXT
8
0
10
2.950000
20
1.360000
40
0.080000
41
1.000000
1
A0
0
TEXT
8
0
10
2.720000
20
1.410000
40
0.080000
41
1.000000
1
5
0
POLYLINE
8
2
66
1
40
0.016000
41
0.016000
0
VERTEX
8
2
10
2.700000
20
1.300000
0
VERTEX
8
2
10
2.900000
20
1.300000
0
SEQEND
8
2
0
TEXT
8
0
10
2.950000
20
1.260000
40
0.080000
41
1.000000
1
A1
0
TEXT
8
0
10
2.720000
20
1.310000
40
0.080000
41
1.000000
1
3
0
POLYLINE
8
2
66
1
40
0.016000
41
0.016000
0
VERTEX
8
2
10
2.700000
20
1.200000
0
VERTEX
8
2
10
2.900000
20
1.200000
0
SEQEND
8
2
0
TEXT
8
0
10
2.950000
20
1.160000
40
0.080000
41
1.000000
1
A2
0
TEXT
8
0
10
2.640000
20
1.210000
40
0.080000
41
1.000000
1
14
0
POLYLINE
8
2
66
1
40
0.016000
41
0.016000
0
VERTEX
8
2
10
2.700000
20
1.100000
0
VERTEX
8
2
10
2.900000
20
1.100000
0
SEQEND
8
2
0
TEXT
8
0
10
2.950000
20
1.060000
40
0.080000
41
1.000000
1
A3
0
TEXT
8
0
10
2.640000
20
1.110000
40
0.080000
41
1.000000
1
12
0
POLYLINE
8
2
66
1
40
0.016000
41
0.016000
0
VERTEX
8
2
10
2.700000
20
0.900000
0
VERTEX
8
2
10
2.900000
20
0.900000
0
SEQEND
8
2
0
TEXT
8
0
10
2.950000
20
0.860000
40
0.080000
41
1.000000
1
B0
0
TEXT
8
0
10
2.720000
20
0.910000
40
0.080000
41
1.000000
1
6
0
POLYLINE
8
2
66
1
40
0.016000
41
0.016000
0
VERTEX
8
2
10
2.700000
20
0.800000
0
VERTEX
8
2
10
2.900000
20
0.800000
0
SEQEND
8
2
0
TEXT
8
0
10
2.950000
20
0.760000
40
0.080000
41
1.000000
1
B1
0
TEXT
8
0
10
2.720000
20
0.810000
40
0.080000
41
1.000000
1
2
0
POLYLINE
8
2
66
1
40
0.016000
41
0.016000
0
VERTEX
8
2
10
2.700000
20
0.700000
0
VERTEX
8
2
10
2.900000
20
0.700000
0
SEQEND
8
2
0
TEXT
8
0
10
2.950000
20
0.660000
40
0.080000
41
1.000000
1
B2
0
TEXT
8
0
10
2.640000
20
0.710000
40
0.080000
41
1.000000
1
15
0
POLYLINE
8
2
66
1
40
0.016000
41
0.016000
0
VERTEX
8
2
10
2.700000
20
0.600000
0
VERTEX
8
2
10
2.900000
20
0.600000
0
SEQEND
8
2
0
TEXT
8
0
10
2.950000
20
0.560000
40
0.080000
41
1.000000
1
B3
0
TEXT
8
0
10
2.640000
20
0.610000
40
0.080000
41
1.000000
1
11
0
POLYLINE
8
2
66
1
40
0.016000
41
0.016000
0
VERTEX
8
2
10
2.700000
20
0.400000
0
VERTEX
8
2
10
2.900000
20
0.400000
0
SEQEND
8
2
0
TEXT
8
0
10
2.950000
20
0.360000
40
0.080000
41
1.000000
1
C0
0
TEXT
8
0
10
2.720000
20
0.410000
40
0.080000
41
1.000000
1
7
0
POLYLINE
8
2
66
1
40
0.016000
41
0.016000
0
VERTEX
8
2
10
3.700000
20
0.400000
0
VERTEX
8
2
10
3.500000
20
0.400000
0
SEQEND
8
2
0
TEXT
8
0
10
3.290000
20
0.360000
40
0.080000
41
1.000000
1
C4
0
TEXT
8
0
10
3.600000
20
0.410000
40
0.080000
41
1.000000
1
9
0
POLYLINE
8
2
66
1
40
0.016000
41
0.016000
0
VERTEX
8
2
10
3.700000
20
1.400000
0
VERTEX
8
2
10
3.500000
20
1.400000
0
SEQEND
8
2
0
TEXT
8
0
10
3.290000
20
1.360000
40
0.080000
41
1.000000
1
S0
0
TEXT
8
0
10
3.600000
20
1.410000
40
0.080000
41
1.000000
1
4
0
POLYLINE
8
2
66
1
40
0.016000
41
0.016000
0
VERTEX
8
2
10
3.700000
20
1.300000
0
VERTEX
8
2
10
3.500000
20
1.300000
0
SEQEND
8
2
0
TEXT
8
0
10
3.290000
20
1.260000
40
0.080000
41
1.000000
1
S1
0
TEXT
8
0
10
3.600000
20
1.310000
40
0.080000
41
1.000000
1
1
0
POLYLINE
8
2
66
1
40
0.016000
41
0.016000
0
VERTEX
8
2
10
3.700000
20
1.200000
0
VERTEX
8
2
10
3.500000
20
1.200000
0
SEQEND
8
2
0
TEXT
8
0
10
3.290000
20
1.160000
40
0.080000
41
1.000000
1
S2
0
TEXT
8
0
10
3.600000
20
1.210000
40
0.080000
41
1.000000
1
13
0
POLYLINE
8
2
66
1
40
0.016000
41
0.016000
0
VERTEX
8
2
10
3.700000
20
1.100000
0
VERTEX
8
2
10
3.500000
20
1.100000
0
SEQEND
8
2
0
TEXT
8
0
10
3.290000
20
1.060000
40
0.080000
41
1.000000
1
S3
0
TEXT
8
0
10
3.600000
20
1.110000
40
0.080000
41
1.000000
1
10
0
TEXT
8
0
10
2.892000
20
1.523000
40
0.120000
41
0.666667
1
U4
0
TEXT
8
0
10
2.892000
20
0.202000
40
0.080000
41
1.000000
1
74HC283
0
POLYLINE
8
2
66
1
40
0.016000
41
0.016000
0
VERTEX
8
2
10
3.700000
20
-1.400000
0
VERTEX
8
2
10
3.687942
20
-1.376331
0
VERTEX
8
2
10
3.674317
20
-1.354082
0
VERTEX
8
2
10
3.659197
20
-1.333269
0
VERTEX
8
2
10
3.642656
20
-1.313906
0
VERTEX
8
2
10
3.624768
20
-1.296008
0
VERTEX
8
2
10
3.605606
20
-1.279590
0
VERTEX
8
2
10
3.585242
20
-1.264665
0
VERTEX
8
2
10
3.563750
20
-1.251250
0
VERTEX
8
2
10
3.541203
20
-1.239358
0
VERTEX
8
2
10
3.517676
20
-1.229004
0
VERTEX
8
2
10
3.493240
20
-1.220203
0
VERTEX
8
2
10
3.467969
20
-1.212969
0
VERTEX
8
2
10
3.441936
20
-1.207317
0
VERTEX
8
2
10
3.415215
20
-1.203262
0
VERTEX
8
2
10
3.387878
20
-1.200818
0
VERTEX
8
2
10
3.360000
20
-1.200000
0
VERTEX
8
2
10
3.100000
20
-1.200000
0
VERTEX
8
2
10
3.109363
20
-1.200928
0
VERTEX
8
2
10
3.118652
20
-1.203672
0
VERTEX
8
2
10
3.127795
20
-1.208174
0
VERTEX
8
2
10
3.136719
20
-1.214375
0
VERTEX
8
2
10
3.153613
20
-1.231641
0
VERTEX
8
2
10
3.168750
20
-1.255000
0
VERTEX
8
2
10
3.181543
20
-1.283984
0
VERTEX
8
2
10
3.191406
20
-1.318125
0
VERTEX
8
2
10
3.197754
20
-1.356953
0
VERTEX
8
2
10
3.200000
20
-1.400000
0
VERTEX
8
2
10
3.197754
20
-1.440176
0
VERTEX
8
2
10
3.191406
20
-1.477656
0
VERTEX
8
2
10
3.181543
20
-1.511621
0
VERTEX
8
2
10
3.168750
20
-1.541250
0
VERTEX
8
2
10
3.153613
20
-1.565723
0
VERTEX
8
2
10
3.136719
20
-1.584219
0
VERTEX
8
2
10
3.127795
20
-1.590969
0
VERTEX
8
2
10
3.118652
20
-1.595918
0
VERTEX
8
2
10
3.109363
20
-1.598963
0
VERTEX
8
2
10
3.100000
20
-1.600000
0
VERTEX
8
2
10
3.360000
20
-1.600000
0
VERTEX
8
2
10
3.387878
20
-1.599072
0
VERTEX
8
2
10
3.415215
20
-1.596328
0
VERTEX
8
2
10
3.441936
20
-1.591826
0
VERTEX
8
2
10
3.467969
20
-1.585625
0
VERTEX
8
2
10
3.493240
20
-1.577783
0
VERTEX
8
2
10
3.517676
20
-1.568359
0
VERTEX
8
2
10
3.541203
20
-1.557412
0
VERTEX
8
2
10
3.563750
20
-1.545000
0
VERTEX
8
2
10
3.585242
20
-1.531181
0
VERTEX
8
2
10
3.605606
20
-1.516016
0
VERTEX
8
2
10
3.624768
20
-1.499561
0
VERTEX
8
2
10
3.642656
20
-1.481875
0
VERTEX
8
2
10
3.659197
20
-1.463018
0
VERTEX
8
2
10
3.674317
20
-1.443047
0
VERTEX
8
2
10
3.687942
20
-1.422022
0
VERTEX
8
2
10
3.700000
20
-1.400000
0
SEQEND
8
2
0
POLYLINE
8
2
66
1
40
0.016000
41
0.016000
0
VERTEX
8
2
10
3.150000
20
-1.400000
0
VERTEX
8
2
10
3.148164
20
-1.367246
0
VERTEX
8
2
10
3.142812
20
-1.336719
0
VERTEX
8
2
10
3.134180
20
-1.308770
0
VERTEX
8
2
10
3.122500
20
-1.283750
0
VERTEX
8
2
10
3.108008
20
-1.262012
0
VERTEX
8
2
10
3.090937
20
-1.243906
0
VERTEX
8
2
10
3.071524
20
-1.229785
0
VERTEX
8
2
10
3.050000
20
-1.220000
0
SEQEND
8
2
0
POLYLINE
8
2
66
1
40
0.016000
41
0.016000
0
VERTEX
8
2
10
3.150000
20
-1.400000
0
VERTEX
8
2
10
3.148164
20
-1.432754
0
VERTEX
8
2
10
3.142812
20
-1.463281
0
VERTEX
8
2
10
3.134180
20
-1.491230
0
VERTEX
8
2
10
3.122500
20
-1.516250
0
VERTEX
8
2
10
3.108008
20
-1.537988
0
VERTEX
8
2
10
3.090937
20
-1.556094
0
VERTEX
8
2
10
3.071524
20
-1.570215
0
VERTEX
8
2
10
3.050000
20
-1.580000
0
SEQEND
8
2
0
POLYLINE
8
2
66
1
40
0.016000
41
0.016000
0
VERTEX
8
2
10
3.100000
20
-1.300000
0
VERTEX
8
2
10
3.130000
20
-1.300000
0
SEQEND
8
2
0
POLYLINE
8
2
66
1
40
0.016000
41
0.016000
0
VERTEX
8
2
10
3.100000
20
-1.500000
0
VERTEX
8
2
10
3.130000
20
-1.500000
0
SEQEND
8
2
0
POLYLINE
8
2
66
1
40
0.016000
41
0.016000
0
VERTEX
8
2
10
2.900000
20
-1.300000
0
VERTEX
8
2
10
3.100000
20
-1.300000
0
SEQEND
8
2
0
TEXT
8
0
10
2.920000
20
-1.290000
40
0.080000
41
1.000000
1
4
0
POLYLINE
8
2
66
1
40
0.016000
41
0.016000
0
VERTEX
8
2
10
2.900000
20
-1.500000
0
VERTEX
8
2
10
3.100000
20
-1.500000
0
SEQEND
8
2
0
TEXT
8
0
10
2.920000
20
-1.490000
40
0.080000
41
1.000000
1
5
0
POLYLINE
8
2
66
1
40
0.016000
41
0.016000
0
VERTEX
8
2
10
3.900000
20
-1.400000
0
VERTEX
8
2
10
3.700000
20
-1.400000
0
SEQEND
8
2
0
TEXT
8
0
10
3.800000
20
-1.390000
40
0.080000
41
1.000000
1
6
0
TEXT
8
0
10
3.042000
20
-1.177000
40
0.120000
41
0.666667
1
U6:B
0
TEXT
8
0
10
3.042000
20
-1.698000
40
0.080000
41
1.000000
1
74HC86
0
POLYLINE
8
2
66
1
40
0.016000
41
0.016000
0
VERTEX
8
2
10
3.700000
20
-1.800000
0
VERTEX
8
2
10
3.687942
20
-1.776331
0
VERTEX
8
2
10
3.674317
20
-1.754082
0
VERTEX
8
2
10
3.659197
20
-1.733269
0
VERTEX
8
2
10
3.642656
20
-1.713906
0
VERTEX
8
2
10
3.624768
20
-1.696008
0
VERTEX
8
2
10
3.605606
20
-1.679590
0
VERTEX
8
2
10
3.585242
20
-1.664665
0
VERTEX
8
2
10
3.563750
20
-1.651250
0
VERTEX
8
2
10
3.541203
20
-1.639358
0
VERTEX
8
2
10
3.517676
20
-1.629004
0
VERTEX
8
2
10
3.493240
20
-1.620203
0
VERTEX
8
2
10
3.467969
20
-1.612969
0
VERTEX
8
2
10
3.441936
20
-1.607317
0
VERTEX
8
2
10
3.415215
20
-1.603262
0
VERTEX
8
2
10
3.387878
20
-1.600818
0
VERTEX
8
2
10
3.360000
20
-1.600000
0
VERTEX
8
2
10
3.100000
20
-1.600000
0
VERTEX
8
2
10
3.109363
20
-1.600928
0
VERTEX
8
2
10
3.118652
20
-1.603672
0
VERTEX
8
2
10
3.127795
20
-1.608174
0
VERTEX
8
2
10
3.136719
20
-1.614375
0
VERTEX
8
2
10
3.153613
20
-1.631641
0
VERTEX
8
2
10
3.168750
20
-1.655000
0
VERTEX
8
2
10
3.181543
20
-1.683984
0
VERTEX
8
2
10
3.191406
20
-1.718125
0
VERTEX
8
2
10
3.197754
20
-1.756953
0
VERTEX
8
2
10
3.200000
20
-1.800000
0
VERTEX
8
2
10
3.197754
20
-1.840176
0
VERTEX
8
2
10
3.191406
20
-1.877656
0
VERTEX
8
2
10
3.181543
20
-1.911621
0
VERTEX
8
2
10
3.168750
20
-1.941250
0
VERTEX
8
2
10
3.153613
20
-1.965723
0
VERTEX
8
2
10
3.136719
20
-1.984219
0
VERTEX
8
2
10
3.127795
20
-1.990969
0
VERTEX
8
2
10
3.118652
20
-1.995918
0
VERTEX
8
2
10
3.109363
20
-1.998963
0
VERTEX
8
2
10
3.100000
20
-2.000000
0
VERTEX
8
2
10
3.360000
20
-2.000000
0
VERTEX
8
2
10
3.387878
20
-1.999072
0
VERTEX
8
2
10
3.415215
20
-1.996328
0
VERTEX
8
2
10
3.441936
20
-1.991826
0
VERTEX
8
2
10
3.467969
20
-1.985625
0
VERTEX
8
2
10
3.493240
20
-1.977783
0
VERTEX
8
2
10
3.517676
20
-1.968359
0
VERTEX
8
2
10
3.541203
20
-1.957412
0
VERTEX
8
2
10
3.563750
20
-1.945000
0
VERTEX
8
2
10
3.585242
20
-1.931182
0
VERTEX
8
2
10
3.605606
20
-1.916016
0
VERTEX
8
2
10
3.624768
20
-1.899561
0
VERTEX
8
2
10
3.642656
20
-1.881875
0
VERTEX
8
2
10
3.659197
20
-1.863018
0
VERTEX
8
2
10
3.674317
20
-1.843047
0
VERTEX
8
2
10
3.687942
20
-1.822022
0
VERTEX
8
2
10
3.700000
20
-1.800000
0
SEQEND
8
2
0
POLYLINE
8
2
66
1
40
0.016000
41
0.016000
0
VERTEX
8
2
10
3.150000
20
-1.800000
0
VERTEX
8
2
10
3.148164
20
-1.767246
0
VERTEX
8
2
10
3.142812
20
-1.736719
0
VERTEX
8
2
10
3.134180
20
-1.708770
0
VERTEX
8
2
10
3.122500
20
-1.683750
0
VERTEX
8
2
10
3.108008
20
-1.662012
0
VERTEX
8
2
10
3.090937
20
-1.643906
0
VERTEX
8
2
10
3.071524
20
-1.629785
0
VERTEX
8
2
10
3.050000
20
-1.620000
0
SEQEND
8
2
0
POLYLINE
8
2
66
1
40
0.016000
41
0.016000
0
VERTEX
8
2
10
3.150000
20
-1.800000
0
VERTEX
8
2
10
3.148164
20
-1.832754
0
VERTEX
8
2
10
3.142812
20
-1.863281
0
VERTEX
8
2
10
3.134180
20
-1.891230
0
VERTEX
8
2
10
3.122500
20
-1.916250
0
VERTEX
8
2
10
3.108008
20
-1.937988
0
VERTEX
8
2
10
3.090937
20
-1.956094
0
VERTEX
8
2
10
3.071524
20
-1.970215
0
VERTEX
8
2
10
3.050000
20
-1.980000
0
SEQEND
8
2
0
POLYLINE
8
2
66
1
40
0.016000
41
0.016000
0
VERTEX
8
2
10
3.100000
20
-1.700000
0
VERTEX
8
2
10
3.130000
20
-1.700000
0
SEQEND
8
2
0
POLYLINE
8
2
66
1
40
0.016000
41
0.016000
0
VERTEX
8
2
10
3.100000
20
-1.900000
0
VERTEX
8
2
10
3.130000
20
-1.900000
0
SEQEND
8
2
0
POLYLINE
8
2
66
1
40
0.016000
41
0.016000
0
VERTEX
8
2
10
2.900000
20
-1.700000
0
VERTEX
8
2
10
3.100000
20
-1.700000
0
SEQEND
8
2
0
TEXT
8
0
10
2.920000
20
-1.690000
40
0.080000
41
1.000000
1
9
0
POLYLINE
8
2
66
1
40
0.016000
41
0.016000
0
VERTEX
8
2
10
2.900000
20
-1.900000
0
VERTEX
8
2
10
3.100000
20
-1.900000
0
SEQEND
8
2
0
TEXT
8
0
10
2.840000
20
-1.890000
40
0.080000
41
1.000000
1
10
0
POLYLINE
8
2
66
1
40
0.016000
41
0.016000
0
VERTEX
8
2
10
3.900000
20
-1.800000
0
VERTEX
8
2
10
3.700000
20
-1.800000
0
SEQEND
8
2
0
TEXT
8
0
10
3.800000
20
-1.790000
40
0.080000
41
1.000000
1
8
0
TEXT
8
0
10
3.042000
20
-1.577000
40
0.120000
41
0.666667
1
U6:C
0
TEXT
8
0
10
3.042000
20
-2.098000
40
0.080000
41
1.000000
1
74HC86
0
POLYLINE
8
2
66
1
40
0.016000
41
0.016000
0
VERTEX
8
2
10
3.700000
20
-2.200000
0
VERTEX
8
2
10
3.687942
20
-2.176331
0
VERTEX
8
2
10
3.674317
20
-2.154082
0
VERTEX
8
2
10
3.659197
20
-2.133269
0
VERTEX
8
2
10
3.642656
20
-2.113906
0
VERTEX
8
2
10
3.624768
20
-2.096008
0
VERTEX
8
2
10
3.605606
20
-2.079590
0
VERTEX
8
2
10
3.585242
20
-2.064665
0
VERTEX
8
2
10
3.563750
20
-2.051250
0
VERTEX
8
2
10
3.541203
20
-2.039358
0
VERTEX
8
2
10
3.517676
20
-2.029004
0
VERTEX
8
2
10
3.493240
20
-2.020203
0
VERTEX
8
2
10
3.467969
20
-2.012969
0
VERTEX
8
2
10
3.441936
20
-2.007317
0
VERTEX
8
2
10
3.415215
20
-2.003262
0
VERTEX
8
2
10
3.387878
20
-2.000818
0
VERTEX
8
2
10
3.360000
20
-2.000000
0
VERTEX
8
2
10
3.100000
20
-2.000000
0
VERTEX
8
2
10
3.109363
20
-2.000927
0
VERTEX
8
2
10
3.118652
20
-2.003672
0
VERTEX
8
2
10
3.127795
20
-2.008174
0
VERTEX
8
2
10
3.136719
20
-2.014375
0
VERTEX
8
2
10
3.153613
20
-2.031641
0
VERTEX
8
2
10
3.168750
20
-2.055000
0
VERTEX
8
2
10
3.181543
20
-2.083984
0
VERTEX
8
2
10
3.191406
20
-2.118125
0
VERTEX
8
2
10
3.197754
20
-2.156953
0
VERTEX
8
2
10
3.200000
20
-2.200000
0
VERTEX
8
2
10
3.197754
20
-2.240175
0
VERTEX
8
2
10
3.191406
20
-2.277656
0
VERTEX
8
2
10
3.181543
20
-2.311621
0
VERTEX
8
2
10
3.168750
20
-2.341250
0
VERTEX
8
2
10
3.153613
20
-2.365723
0
VERTEX
8
2
10
3.136719
20
-2.384219
0
VERTEX
8
2
10
3.127795
20
-2.390969
0
VERTEX
8
2
10
3.118652
20
-2.395918
0
VERTEX
8
2
10
3.109363
20
-2.398962
0
VERTEX
8
2
10
3.100000
20
-2.400000
0
VERTEX
8
2
10
3.360000
20
-2.400000
0
VERTEX
8
2
10
3.387878
20
-2.399072
0
VERTEX
8
2
10
3.415215
20
-2.396328
0
VERTEX
8
2
10
3.441936
20
-2.391826
0
VERTEX
8
2
10
3.467969
20
-2.385625
0
VERTEX
8
2
10
3.493240
20
-2.377783
0
VERTEX
8
2
10
3.517676
20
-2.368360
0
VERTEX
8
2
10
3.541203
20
-2.357412
0
VERTEX
8
2
10
3.563750
20
-2.345000
0
VERTEX
8
2
10
3.585242
20
-2.331182
0
VERTEX
8
2
10
3.605606
20
-2.316016
0
VERTEX
8
2
10
3.624768
20
-2.299561
0
VERTEX
8
2
10
3.642656
20
-2.281875
0
VERTEX
8
2
10
3.659197
20
-2.263018
0
VERTEX
8
2
10
3.674317
20
-2.243047
0
VERTEX
8
2
10
3.687942
20
-2.222022
0
VERTEX
8
2
10
3.700000
20
-2.200000
0
SEQEND
8
2
0
POLYLINE
8
2
66
1
40
0.016000
41
0.016000
0
VERTEX
8
2
10
3.150000
20
-2.200000
0
VERTEX
8
2
10
3.148164
20
-2.167246
0
VERTEX
8
2
10
3.142812
20
-2.136719
0
VERTEX
8
2
10
3.134180
20
-2.108770
0
VERTEX
8
2
10
3.122500
20
-2.083750
0
VERTEX
8
2
10
3.108008
20
-2.062012
0
VERTEX
8
2
10
3.090937
20
-2.043906
0
VERTEX
8
2
10
3.071524
20
-2.029785
0
VERTEX
8
2
10
3.050000
20
-2.020000
0
SEQEND
8
2
0
POLYLINE
8
2
66
1
40
0.016000
41
0.016000
0
VERTEX
8
2
10
3.150000
20
-2.200000
0
VERTEX
8
2
10
3.148164
20
-2.232754
0
VERTEX
8
2
10
3.142812
20
-2.263281
0
VERTEX
8
2
10
3.134180
20
-2.291230
0
VERTEX
8
2
10
3.122500
20
-2.316250
0
VERTEX
8
2
10
3.108008
20
-2.337988
0
VERTEX
8
2
10
3.090937
20
-2.356094
0
VERTEX
8
2
10
3.071524
20
-2.370215
0
VERTEX
8
2
10
3.050000
20
-2.380000
0
SEQEND
8
2
0
POLYLINE
8
2
66
1
40
0.016000
41
0.016000
0
VERTEX
8
2
10
3.100000
20
-2.100000
0
VERTEX
8
2
10
3.130000
20
-2.100000
0
SEQEND
8
2
0
POLYLINE
8
2
66
1
40
0.016000
41
0.016000
0
VERTEX
8
2
10
3.100000
20
-2.300000
0
VERTEX
8
2
10
3.130000
20
-2.300000
0
SEQEND
8
2
0
POLYLINE
8
2
66
1
40
0.016000
41
0.016000
0
VERTEX
8
2
10
2.900000
20
-2.100000
0
VERTEX
8
2
10
3.100000
20
-2.100000
0
SEQEND
8
2
0
TEXT
8
0
10
2.840000
20
-2.090000
40
0.080000
41
1.000000
1
12
0
POLYLINE
8
2
66
1
40
0.016000
41
0.016000
0
VERTEX
8
2
10
2.900000
20
-2.300000
0
VERTEX
8
2
10
3.100000
20
-2.300000
0
SEQEND
8
2
0
TEXT
8
0
10
2.840000
20
-2.290000
40
0.080000
41
1.000000
1
13
0
POLYLINE
8
2
66
1
40
0.016000
41
0.016000
0
VERTEX
8
2
10
3.900000
20
-2.200000
0
VERTEX
8
2
10
3.700000
20
-2.200000
0
SEQEND
8
2
0
TEXT
8
0
10
3.800000
20
-2.190000
40
0.080000
41
1.000000
1
11
0
TEXT
8
0
10
3.042000
20
-1.977000
40
0.120000
41
0.666667
1
U6:D
0
TEXT
8
0
10
3.042000
20
-2.498000
40
0.080000
41
1.000000
1
74HC86
0
CIRCLE
8
1
10
2.600000
20
-3.200000
40
0.020000
0
POLYLINE
8
2
66
1
40
0.016000
41
0.016000
0
VERTEX
8
2
10
4.000000
20
-1.050000
0
VERTEX
8
2
10
4.100000
20
-1.050000
0
VERTEX
8
2
10
4.100000
20
-0.950000
0
VERTEX
8
2
10
4.000000
20
-0.950000
0
VERTEX
8
2
10
4.000000
20
-1.050000
0
SEQEND
8
2
0
TEXT
8
2
10
4.010000
20
-1.040000
40
0.080000
41
1.000000
1
?
0
POLYLINE
8
2
66
1
40
0.016000
41
0.016000
0
VERTEX
8
2
10
3.900000
20
-1.000000
0
VERTEX
8
2
10
4.000000
20
-1.000000
0
SEQEND
8
2
0
POLYLINE
8
2
66
1
40
0.016000
41
0.016000
0
VERTEX
8
2
10
3.700000
20
-1.000000
0
VERTEX
8
2
10
3.687942
20
-0.976331
0
VERTEX
8
2
10
3.674317
20
-0.954082
0
VERTEX
8
2
10
3.659197
20
-0.933269
0
VERTEX
8
2
10
3.642656
20
-0.913906
0
VERTEX
8
2
10
3.624768
20
-0.896008
0
VERTEX
8
2
10
3.605606
20
-0.879590
0
VERTEX
8
2
10
3.585242
20
-0.864665
0
VERTEX
8
2
10
3.563750
20
-0.851250
0
VERTEX
8
2
10
3.541203
20
-0.839358
0
VERTEX
8
2
10
3.517676
20
-0.829004
0
VERTEX
8
2
10
3.493240
20
-0.820203
0
VERTEX
8
2
10
3.467969
20
-0.812969
0
VERTEX
8
2
10
3.441936
20
-0.807317
0
VERTEX
8
2
10
3.415215
20
-0.803262
0
VERTEX
8
2
10
3.387878
20
-0.800818
0
VERTEX
8
2
10
3.360000
20
-0.800000
0
VERTEX
8
2
10
3.100000
20
-0.800000
0
VERTEX
8
2
10
3.109363
20
-0.800928
0
VERTEX
8
2
10
3.118652
20
-0.803672
0
VERTEX
8
2
10
3.127795
20
-0.808174
0
VERTEX
8
2
10
3.136719
20
-0.814375
0
VERTEX
8
2
10
3.153613
20
-0.831641
0
VERTEX
8
2
10
3.168750
20
-0.855000
0
VERTEX
8
2
10
3.181543
20
-0.883984
0
VERTEX
8
2
10
3.191406
20
-0.918125
0
VERTEX
8
2
10
3.197754
20
-0.956953
0
VERTEX
8
2
10
3.200000
20
-1.000000
0
VERTEX
8
2
10
3.197754
20
-1.040176
0
VERTEX
8
2
10
3.191406
20
-1.077656
0
VERTEX
8
2
10
3.181543
20
-1.111621
0
VERTEX
8
2
10
3.168750
20
-1.141250
0
VERTEX
8
2
10
3.153613
20
-1.165723
0
VERTEX
8
2
10
3.136719
20
-1.184219
0
VERTEX
8
2
10
3.127795
20
-1.190969
0
VERTEX
8
2
10
3.118652
20
-1.195918
0
VERTEX
8
2
10
3.109363
20
-1.198963
0
VERTEX
8
2
10
3.100000
20
-1.200000
0
VERTEX
8
2
10
3.360000
20
-1.200000
0
VERTEX
8
2
10
3.387878
20
-1.199072
0
VERTEX
8
2
10
3.415215
20
-1.196328
0
VERTEX
8
2
10
3.441936
20
-1.191826
0
VERTEX
8
2
10
3.467969
20
-1.185625
0
VERTEX
8
2
10
3.493240
20
-1.177783
0
VERTEX
8
2
10
3.517676
20
-1.168359
0
VERTEX
8
2
10
3.541203
20
-1.157412
0
VERTEX
8
2
10
3.563750
20
-1.145000
0
VERTEX
8
2
10
3.585242
20
-1.131181
0
VERTEX
8
2
10
3.605606
20
-1.116016
0
VERTEX
8
2
10
3.624768
20
-1.099561
0
VERTEX
8
2
10
3.642656
20
-1.081875
0
VERTEX
8
2
10
3.659197
20
-1.063018
0
VERTEX
8
2
10
3.674317
20
-1.043047
0
VERTEX
8
2
10
3.687942
20
-1.022022
0
VERTEX
8
2
10
3.700000
20
-1.000000
0
SEQEND
8
2
0
POLYLINE
8
2
66
1
40
0.016000
41
0.016000
0
VERTEX
8
2
10
3.150000
20
-1.000000
0
VERTEX
8
2
10
3.148164
20
-0.967246
0
VERTEX
8
2
10
3.142812
20
-0.936719
0
VERTEX
8
2
10
3.134180
20
-0.908770
0
VERTEX
8
2
10
3.122500
20
-0.883750
0
VERTEX
8
2
10
3.108008
20
-0.862012
0
VERTEX
8
2
10
3.090937
20
-0.843906
0
VERTEX
8
2
10
3.071524
20
-0.829785
0
VERTEX
8
2
10
3.050000
20
-0.820000
0
SEQEND
8
2
0
POLYLINE
8
2
66
1
40
0.016000
41
0.016000
0
VERTEX
8
2
10
3.150000
20
-1.000000
0
VERTEX
8
2
10
3.148164
20
-1.032754
0
VERTEX
8
2
10
3.142812
20
-1.063281
0
VERTEX
8
2
10
3.134180
20
-1.091230
0
VERTEX
8
2
10
3.122500
20
-1.116250
0
VERTEX
8
2
10
3.108008
20
-1.137988
0
VERTEX
8
2
10
3.090937
20
-1.156094
0
VERTEX
8
2
10
3.071524
20
-1.170215
0
VERTEX
8
2
10
3.050000
20
-1.180000
0
SEQEND
8
2
0
POLYLINE
8
2
66
1
40
0.016000
41
0.016000
0
VERTEX
8
2
10
3.100000
20
-0.900000
0
VERTEX
8
2
10
3.130000
20
-0.900000
0
SEQEND
8
2
0
POLYLINE
8
2
66
1
40
0.016000
41
0.016000
0
VERTEX
8
2
10
3.100000
20
-1.100000
0
VERTEX
8
2
10
3.130000
20
-1.100000
0
SEQEND
8
2
0
POLYLINE
8
2
66
1
40
0.016000
41
0.016000
0
VERTEX
8
2
10
2.900000
20
-0.900000
0
VERTEX
8
2
10
3.100000
20
-0.900000
0
SEQEND
8
2
0
TEXT
8
0
10
2.920000
20
-0.890000
40
0.080000
41
1.000000
1
1
0
POLYLINE
8
2
66
1
40
0.016000
41
0.016000
0
VERTEX
8
2
10
2.900000
20
-1.100000
0
VERTEX
8
2
10
3.100000
20
-1.100000
0
SEQEND
8
2
0
TEXT
8
0
10
2.920000
20
-1.090000
40
0.080000
41
1.000000
1
2
0
POLYLINE
8
2
66
1
40
0.016000
41
0.016000
0
VERTEX
8
2
10
3.900000
20
-1.000000
0
VERTEX
8
2
10
3.700000
20
-1.000000
0
SEQEND
8
2
0
TEXT
8
0
10
3.800000
20
-0.990000
40
0.080000
41
1.000000
1
3
0
TEXT
8
0
10
3.042000
20
-0.777000
40
0.120000
41
0.666667
1
U6:A
0
TEXT
8
0
10
3.042000
20
-1.298000
40
0.080000
41
1.000000
1
74HC86
0
CIRCLE
8
1
10
-1.500000
20
1.400000
40
0.020000
0
POLYLINE
8
2
66
1
40
0.016000
41
0.016000
0
VERTEX
8
2
10
-4.500000
20
1.100000
0
VERTEX
8
2
10
-4.100000
20
1.100000
0
VERTEX
8
2
10
-4.100000
20
1.600000
0
VERTEX
8
2
10
-4.500000
20
1.600000
0
VERTEX
8
2
10
-4.500000
20
1.100000
0
SEQEND
8
2
0
TEXT
8
2
10
-4.520000
20
1.537000
40
0.056000
41
1.428571
1
OFF
0
TEXT
8
2
10
-4.280000
20
1.537000
40
0.056000
41
1.428571
1
ON
0
POLYLINE
8
2
66
1
40
0.016000
41
0.016000
0
VERTEX
8
2
10
-4.450000
20
1.480000
0
VERTEX
8
2
10
-4.150000
20
1.480000
0
VERTEX
8
2
10
-4.150000
20
1.530000
0
VERTEX
8
2
10
-4.450000
20
1.530000
0
VERTEX
8
2
10
-4.450000
20
1.480000
0
SEQEND
8
2
0
POLYLINE
8
2
66
1
40
0.016000
41
0.016000
0
VERTEX
8
2
10
-4.300000
20
1.480000
0
VERTEX
8
2
10
-4.150000
20
1.480000
0
VERTEX
8
2
10
-4.150000
20
1.530000
0
VERTEX
8
2
10
-4.300000
20
1.530000
0
VERTEX
8
2
10
-4.300000
20
1.480000
0
SEQEND
8
2
0
POLYLINE
8
2
66
1
40
0.016000
41
0.016000
0
VERTEX
8
2
10
-4.450000
20
1.380000
0
VERTEX
8
2
10
-4.150000
20
1.380000
0
VERTEX
8
2
10
-4.150000
20
1.430000
0
VERTEX
8
2
10
-4.450000
20
1.430000
0
VERTEX
8
2
10
-4.450000
20
1.380000
0
VERTEX
8
2
10
-4.300000
20
1.380000
0
VERTEX
8
2
10
-4.300000
20
1.430000
0
VERTEX
8
2
10
-4.450000
20
1.430000
0
VERTEX
8
2
10
-4.450000
20
1.380000
0
SEQEND
8
2
0
POLYLINE
8
2
66
1
40
0.016000
41
0.016000
0
VERTEX
8
2
10
-4.450000
20
1.280000
0
VERTEX
8
2
10
-4.150000
20
1.280000
0
VERTEX
8
2
10
-4.150000
20
1.330000
0
VERTEX
8
2
10
-4.450000
20
1.330000
0
VERTEX
8
2
10
-4.450000
20
1.280000
0
VERTEX
8
2
10
-4.300000
20
1.280000
0
VERTEX
8
2
10
-4.300000
20
1.330000
0
VERTEX
8
2
10
-4.450000
20
1.330000
0
VERTEX
8
2
10
-4.450000
20
1.280000
0
SEQEND
8
2
0
POLYLINE
8
2
66
1
40
0.016000
41
0.016000
0
VERTEX
8
2
10
-4.450000
20
1.180000
0
VERTEX
8
2
10
-4.150000
20
1.180000
0
VERTEX
8
2
10
-4.150000
20
1.230000
0
VERTEX
8
2
10
-4.450000
20
1.230000
0
VERTEX
8
2
10
-4.450000
20
1.180000
0
SEQEND
8
2
0
POLYLINE
8
2
66
1
40
0.016000
41
0.016000
0
VERTEX
8
2
10
-4.300000
20
1.180000
0
VERTEX
8
2
10
-4.150000
20
1.180000
0
VERTEX
8
2
10
-4.150000
20
1.230000
0
VERTEX
8
2
10
-4.300000
20
1.230000
0
VERTEX
8
2
10
-4.300000
20
1.180000
0
SEQEND
8
2
0
POLYLINE
8
2
66
1
40
0.016000
41
0.016000
0
VERTEX
8
2
10
-4.000000
20
1.500000
0
VERTEX
8
2
10
-4.100000
20
1.500000
0
SEQEND
8
2
0
TEXT
8
0
10
-4.000000
20
1.510000
40
0.080000
41
1.000000
1
1
0
POLYLINE
8
2
66
1
40
0.016000
41
0.016000
0
VERTEX
8
2
10
-4.000000
20
1.400000
0
VERTEX
8
2
10
-4.100000
20
1.400000
0
SEQEND
8
2
0
TEXT
8
0
10
-4.000000
20
1.410000
40
0.080000
41
1.000000
1
2
0
POLYLINE
8
2
66
1
40
0.016000
41
0.016000
0
VERTEX
8
2
10
-4.000000
20
1.300000
0
VERTEX
8
2
10
-4.100000
20
1.300000
0
SEQEND
8
2
0
TEXT
8
0
10
-4.000000
20
1.310000
40
0.080000
41
1.000000
1
3
0
POLYLINE
8
2
66
1
40
0.016000
41
0.016000
0
VERTEX
8
2
10
-4.000000
20
1.200000
0
VERTEX
8
2
10
-4.100000
20
1.200000
0
SEQEND
8
2
0
TEXT
8
0
10
-4.000000
20
1.210000
40
0.080000
41
1.000000
1
4
0
POLYLINE
8
2
66
1
40
0.016000
41
0.016000
0
VERTEX
8
2
10
-4.600000
20
1.500000
0
VERTEX
8
2
10
-4.500000
20
1.500000
0
SEQEND
8
2
0
TEXT
8
0
10
-4.680000
20
1.510000
40
0.080000
41
1.000000
1
5
0
CIRCLE
8
3
10
-4.500000
20
1.700000
40
0.040000
0
POLYLINE
8
3
66
1
40
0.008000
41
0.008000
0
VERTEX
8
3
10
-4.500000
20
1.720000
0
VERTEX
8
3
10
-4.510000
20
1.710000
0
SEQEND
8
3
0
POLYLINE
8
3
66
1
40
0.008000
41
0.008000
0
VERTEX
8
3
10
-4.500000
20
1.720000
0
VERTEX
8
3
10
-4.490000
20
1.710000
0
SEQEND
8
3
0
POLYLINE
8
3
66
1
40
0.008000
41
0.008000
0
VERTEX
8
3
10
-4.500000
20
1.720000
0
VERTEX
8
3
10
-4.500000
20
1.680000
0
SEQEND
8
3
0
CIRCLE
8
3
10
-4.100000
20
1.700000
40
0.040000
0
POLYLINE
8
3
66
1
40
0.008000
41
0.008000
0
VERTEX
8
3
10
-4.100000
20
1.680000
0
VERTEX
8
3
10
-4.110000
20
1.690000
0
SEQEND
8
3
0
POLYLINE
8
3
66
1
40
0.008000
41
0.008000
0
VERTEX
8
3
10
-4.100000
20
1.680000
0
VERTEX
8
3
10
-4.090000
20
1.690000
0
SEQEND
8
3
0
POLYLINE
8
3
66
1
40
0.008000
41
0.008000
0
VERTEX
8
3
10
-4.100000
20
1.680000
0
VERTEX
8
3
10
-4.100000
20
1.720000
0
SEQEND
8
3
0
TEXT
8
0
10
-4.508000
20
1.623000
40
0.120000
41
0.666667
1
DSW1
0
TEXT
8
0
10
-4.508000
20
1.002000
40
0.080000
41
1.000000
1
DIPSWC_4
0
POLYLINE
8
4
66
1
40
0.008000
41
0.008000
0
VERTEX
8
4
10
-4.850000
20
1.550000
0
VERTEX
8
4
10
-4.950000
20
1.600000
0
VERTEX
8
4
10
-4.900000
20
1.650000
0
VERTEX
8
4
10
-4.850000
20
1.550000
0
SEQEND
8
4
0
POLYLINE
8
4
66
1
40
0.008000
41
0.008000
0
VERTEX
8
4
10
-4.800000
20
1.500000
0
VERTEX
8
4
10
-4.850000
20
1.550000
0
SEQEND
8
4
0
POLYLINE
8
4
66
1
40
0.008000
41
0.008000
0
VERTEX
8
4
10
-4.800000
20
1.590000
0
VERTEX
8
4
10
-4.780000
20
1.590000
0
SEQEND
8
4
0
POLYLINE
8
4
66
1
40
0.008000
41
0.008000
0
VERTEX
8
4
10
-4.760000
20
1.590000
0
VERTEX
8
4
10
-4.740000
20
1.590000
0
SEQEND
8
4
0
POLYLINE
8
4
66
1
40
0.008000
41
0.008000
0
VERTEX
8
4
10
-4.720000
20
1.590000
0
VERTEX
8
4
10
-4.700000
20
1.590000
0
SEQEND
8
4
0
POLYLINE
8
4
66
1
40
0.008000
41
0.008000
0
VERTEX
8
4
10
-4.680000
20
1.590000
0
VERTEX
8
4
10
-4.660000
20
1.590000
0
SEQEND
8
4
0
POLYLINE
8
4
66
1
40
0.008000
41
0.008000
0
VERTEX
8
4
10
-4.800000
20
1.560000
0
VERTEX
8
4
10
-4.620000
20
1.560000
0
SEQEND
8
4
0
POLYLINE
8
4
66
1
40
0.008000
41
0.008000
0
VERTEX
8
4
10
-4.640000
20
1.590000
0
VERTEX
8
4
10
-4.620000
20
1.590000
0
SEQEND
8
4
0
TEXT
8
4
10
-5.620000
20
1.610000
40
0.080000
41
1.000000
1
DSW1(NO)
0
POLYLINE
8
1
66
1
40
0.016000
41
0.016000
0
VERTEX
8
1
10
-2.800000
20
0.000000
0
VERTEX
8
1
10
-2.800000
20
-0.100000
0
SEQEND
8
1
0
POLYLINE
8
1
66
1
40
0.016000
41
0.016000
0
VERTEX
8
1
10
-2.900000
20
-0.100000
0
VERTEX
8
1
10
-2.700000
20
-0.100000
0
SEQEND
8
1
0
POLYLINE
8
1
66
1
40
0.016000
41
0.016000
0
VERTEX
8
1
10
-2.850000
20
-0.150000
0
VERTEX
8
1
10
-2.750000
20
-0.150000
0
SEQEND
8
1
0
POLYLINE
8
1
66
1
40
0.016000
41
0.016000
0
VERTEX
8
1
10
-2.810000
20
-0.200000
0
VERTEX
8
1
10
-2.790000
20
-0.200000
0
SEQEND
8
1
0
CIRCLE
8
1
10
-2.800000
20
0.700000
40
0.020000
0
CIRCLE
8
1
10
-3.400000
20
1.600000
40
0.020000
0
CIRCLE
8
1
10
-3.200000
20
1.400000
40
0.020000
0
CIRCLE
8
1
10
-3.000000
20
1.300000
40
0.020000
0
POLYLINE
8
2
66
1
40
0.016000
41
0.016000
0
VERTEX
8
2
10
-3.440000
20
0.200000
0
VERTEX
8
2
10
-3.360000
20
0.200000
0
VERTEX
8
2
10
-3.360000
20
0.500000
0
VERTEX
8
2
10
-3.440000
20
0.500000
0
VERTEX
8
2
10
-3.440000
20
0.200000
0
SEQEND
8
2
0
POLYLINE
8
2
66
1
40
0.016000
41
0.016000
0
VERTEX
8
2
10
-3.400000
20
0.100000
0
VERTEX
8
2
10
-3.400000
20
0.200000
0
SEQEND
8
2
0
POLYLINE
8
2
66
1
40
0.016000
41
0.016000
0
VERTEX
8
2
10
-3.400000
20
0.600000
0
VERTEX
8
2
10
-3.400000
20
0.500000
0
SEQEND
8
2
0
TEXT
8
0
10
-3.302000
20
0.373000
40
0.120000
41
0.666667
1
R1
0
TEXT
8
0
10
-3.302000
20
0.268000
40
0.080000
41
1.000000
1
10K
0
POLYLINE
8
2
66
1
40
0.016000
41
0.016000
0
VERTEX
8
2
10
-3.240000
20
0.200000
0
VERTEX
8
2
10
-3.160000
20
0.200000
0
VERTEX
8
2
10
-3.160000
20
0.500000
0
VERTEX
8
2
10
-3.240000
20
0.500000
0
VERTEX
8
2
10
-3.240000
20
0.200000
0
SEQEND
8
2
0
POLYLINE
8
2
66
1
40
0.016000
41
0.016000
0
VERTEX
8
2
10
-3.200000
20
0.100000
0
VERTEX
8
2
10
-3.200000
20
0.200000
0
SEQEND
8
2
0
POLYLINE
8
2
66
1
40
0.016000
41
0.016000
0
VERTEX
8
2
10
-3.200000
20
0.600000
0
VERTEX
8
2
10
-3.200000
20
0.500000
0
SEQEND
8
2
0
TEXT
8
0
10
-3.102000
20
0.373000
40
0.120000
41
0.666667
1
R2
0
TEXT
8
0
10
-3.102000
20
0.268000
40
0.080000
41
1.000000
1
10K
0
CIRCLE
8
1
10
-3.200000
20
0.100000
40
0.020000
0
POLYLINE
8
2
66
1
40
0.016000
41
0.016000
0
VERTEX
8
2
10
-3.040000
20
0.200000
0
VERTEX
8
2
10
-2.960000
20
0.200000
0
VERTEX
8
2
10
-2.960000
20
0.500000
0
VERTEX
8
2
10
-3.040000
20
0.500000
0
VERTEX
8
2
10
-3.040000
20
0.200000
0
SEQEND
8
2
0
POLYLINE
8
2
66
1
40
0.016000
41
0.016000
0
VERTEX
8
2
10
-3.000000
20
0.100000
0
VERTEX
8
2
10
-3.000000
20
0.200000
0
SEQEND
8
2
0
POLYLINE
8
2
66
1
40
0.016000
41
0.016000
0
VERTEX
8
2
10
-3.000000
20
0.600000
0
VERTEX
8
2
10
-3.000000
20
0.500000
0
SEQEND
8
2
0
TEXT
8
0
10
-2.902000
20
0.373000
40
0.120000
41
0.666667
1
R3
0
TEXT
8
0
10
-2.902000
20
0.268000
40
0.080000
41
1.000000
1
10K
0
CIRCLE
8
1
10
-3.000000
20
0.100000
40
0.020000
0
POLYLINE
8
2
66
1
40
0.016000
41
0.016000
0
VERTEX
8
2
10
-2.840000
20
0.200000
0
VERTEX
8
2
10
-2.760000
20
0.200000
0
VERTEX
8
2
10
-2.760000
20
0.500000
0
VERTEX
8
2
10
-2.840000
20
0.500000
0
VERTEX
8
2
10
-2.840000
20
0.200000
0
SEQEND
8
2
0
POLYLINE
8
2
66
1
40
0.016000
41
0.016000
0
VERTEX
8
2
10
-2.800000
20
0.100000
0
VERTEX
8
2
10
-2.800000
20
0.200000
0
SEQEND
8
2
0
POLYLINE
8
2
66
1
40
0.016000
41
0.016000
0
VERTEX
8
2
10
-2.800000
20
0.600000
0
VERTEX
8
2
10
-2.800000
20
0.500000
0
SEQEND
8
2
0
TEXT
8
0
10
-2.702000
20
0.373000
40
0.120000
41
0.666667
1
R4
0
TEXT
8
0
10
-2.702000
20
0.268000
40
0.080000
41
1.000000
1
10K
0
CIRCLE
8
1
10
-2.800000
20
0.100000
40
0.020000
0
POLYLINE
8
2
66
1
40
0.016000
41
0.016000
0
VERTEX
8
2
10
-4.700000
20
-1.200000
0
VERTEX
8
2
10
-4.300000
20
-1.200000
0
VERTEX
8
2
10
-4.300000
20
-0.700000
0
VERTEX
8
2
10
-4.700000
20
-0.700000
0
VERTEX
8
2
10
-4.700000
20
-1.200000
0
SEQEND
8
2
0
TEXT
8
2
10
-4.720000
20
-0.763000
40
0.056000
41
1.428571
1
OFF
0
TEXT
8
2
10
-4.480000
20
-0.763000
40
0.056000
41
1.428571
1
ON
0
POLYLINE
8
2
66
1
40
0.016000
41
0.016000
0
VERTEX
8
2
10
-4.650000
20
-0.820000
0
VERTEX
8
2
10
-4.350000
20
-0.820000
0
VERTEX
8
2
10
-4.350000
20
-0.770000
0
VERTEX
8
2
10
-4.650000
20
-0.770000
0
VERTEX
8
2
10
-4.650000
20
-0.820000
0
SEQEND
8
2
0
POLYLINE
8
2
66
1
40
0.016000
41
0.016000
0
VERTEX
8
2
10
-4.500000
20
-0.820000
0
VERTEX
8
2
10
-4.350000
20
-0.820000
0
VERTEX
8
2
10
-4.350000
20
-0.770000
0
VERTEX
8
2
10
-4.500000
20
-0.770000
0
VERTEX
8
2
10
-4.500000
20
-0.820000
0
SEQEND
8
2
0
POLYLINE
8
2
66
1
40
0.016000
41
0.016000
0
VERTEX
8
2
10
-4.650000
20
-0.920000
0
VERTEX
8
2
10
-4.350000
20
-0.920000
0
VERTEX
8
2
10
-4.350000
20
-0.870000
0
VERTEX
8
2
10
-4.650000
20
-0.870000
0
VERTEX
8
2
10
-4.650000
20
-0.920000
0
VERTEX
8
2
10
-4.500000
20
-0.920000
0
VERTEX
8
2
10
-4.500000
20
-0.870000
0
VERTEX
8
2
10
-4.650000
20
-0.870000
0
VERTEX
8
2
10
-4.650000
20
-0.920000
0
SEQEND
8
2
0
POLYLINE
8
2
66
1
40
0.016000
41
0.016000
0
VERTEX
8
2
10
-4.650000
20
-1.020000
0
VERTEX
8
2
10
-4.350000
20
-1.020000
0
VERTEX
8
2
10
-4.350000
20
-0.970000
0
VERTEX
8
2
10
-4.650000
20
-0.970000
0
VERTEX
8
2
10
-4.650000
20
-1.020000
0
VERTEX
8
2
10
-4.500000
20
-1.020000
0
VERTEX
8
2
10
-4.500000
20
-0.970000
0
VERTEX
8
2
10
-4.650000
20
-0.970000
0
VERTEX
8
2
10
-4.650000
20
-1.020000
0
SEQEND
8
2
0
POLYLINE
8
2
66
1
40
0.016000
41
0.016000
0
VERTEX
8
2
10
-4.650000
20
-1.120000
0
VERTEX
8
2
10
-4.350000
20
-1.120000
0
VERTEX
8
2
10
-4.350000
20
-1.070000
0
VERTEX
8
2
10
-4.650000
20
-1.070000
0
VERTEX
8
2
10
-4.650000
20
-1.120000
0
SEQEND
8
2
0
POLYLINE
8
2
66
1
40
0.016000
41
0.016000
0
VERTEX
8
2
10
-4.500000
20
-1.120000
0
VERTEX
8
2
10
-4.350000
20
-1.120000
0
VERTEX
8
2
10
-4.350000
20
-1.070000
0
VERTEX
8
2
10
-4.500000
20
-1.070000
0
VERTEX
8
2
10
-4.500000
20
-1.120000
0
SEQEND
8
2
0
POLYLINE
8
2
66
1
40
0.016000
41
0.016000
0
VERTEX
8
2
10
-4.200000
20
-0.800000
0
VERTEX
8
2
10
-4.300000
20
-0.800000
0
SEQEND
8
2
0
TEXT
8
0
10
-4.200000
20
-0.790000
40
0.080000
41
1.000000
1
1
0
POLYLINE
8
2
66
1
40
0.016000
41
0.016000
0
VERTEX
8
2
10
-4.200000
20
-0.900000
0
VERTEX
8
2
10
-4.300000
20
-0.900000
0
SEQEND
8
2
0
TEXT
8
0
10
-4.200000
20
-0.890000
40
0.080000
41
1.000000
1
2
0
POLYLINE
8
2
66
1
40
0.016000
41
0.016000
0
VERTEX
8
2
10
-4.200000
20
-1.000000
0
VERTEX
8
2
10
-4.300000
20
-1.000000
0
SEQEND
8
2
0
TEXT
8
0
10
-4.200000
20
-0.990000
40
0.080000
41
1.000000
1
3
0
POLYLINE
8
2
66
1
40
0.016000
41
0.016000
0
VERTEX
8
2
10
-4.200000
20
-1.100000
0
VERTEX
8
2
10
-4.300000
20
-1.100000
0
SEQEND
8
2
0
TEXT
8
0
10
-4.200000
20
-1.090000
40
0.080000
41
1.000000
1
4
0
POLYLINE
8
2
66
1
40
0.016000
41
0.016000
0
VERTEX
8
2
10
-4.800000
20
-0.800000
0
VERTEX
8
2
10
-4.700000
20
-0.800000
0
SEQEND
8
2
0
TEXT
8
0
10
-4.880000
20
-0.790000
40
0.080000
41
1.000000
1
5
0
CIRCLE
8
3
10
-4.700000
20
-0.600000
40
0.040000
0
POLYLINE
8
3
66
1
40
0.008000
41
0.008000
0
VERTEX
8
3
10
-4.700000
20
-0.580000
0
VERTEX
8
3
10
-4.710000
20
-0.590000
0
SEQEND
8
3
0
POLYLINE
8
3
66
1
40
0.008000
41
0.008000
0
VERTEX
8
3
10
-4.700000
20
-0.580000
0
VERTEX
8
3
10
-4.690000
20
-0.590000
0
SEQEND
8
3
0
POLYLINE
8
3
66
1
40
0.008000
41
0.008000
0
VERTEX
8
3
10
-4.700000
20
-0.580000
0
VERTEX
8
3
10
-4.700000
20
-0.620000
0
SEQEND
8
3
0
CIRCLE
8
3
10
-4.300000
20
-0.600000
40
0.040000
0
POLYLINE
8
3
66
1
40
0.008000
41
0.008000
0
VERTEX
8
3
10
-4.300000
20
-0.620000
0
VERTEX
8
3
10
-4.310000
20
-0.610000
0
SEQEND
8
3
0
POLYLINE
8
3
66
1
40
0.008000
41
0.008000
0
VERTEX
8
3
10
-4.300000
20
-0.620000
0
VERTEX
8
3
10
-4.290000
20
-0.610000
0
SEQEND
8
3
0
POLYLINE
8
3
66
1
40
0.008000
41
0.008000
0
VERTEX
8
3
10
-4.300000
20
-0.620000
0
VERTEX
8
3
10
-4.300000
20
-0.580000
0
SEQEND
8
3
0
TEXT
8
0
10
-4.708000
20
-0.677000
40
0.120000
41
0.666667
1
DSW2
0
TEXT
8
0
10
-4.708000
20
-1.298000
40
0.080000
41
1.000000
1
DIPSWC_4
0
POLYLINE
8
4
66
1
40
0.008000
41
0.008000
0
VERTEX
8
4
10
-4.950000
20
-0.750000
0
VERTEX
8
4
10
-5.050000
20
-0.700000
0
VERTEX
8
4
10
-5.000000
20
-0.650000
0
VERTEX
8
4
10
-4.950000
20
-0.750000
0
SEQEND
8
4
0
POLYLINE
8
4
66
1
40
0.008000
41
0.008000
0
VERTEX
8
4
10
-4.900000
20
-0.800000
0
VERTEX
8
4
10
-4.950000
20
-0.750000
0
SEQEND
8
4
0
POLYLINE
8
4
66
1
40
0.008000
41
0.008000
0
VERTEX
8
4
10
-4.900000
20
-0.710000
0
VERTEX
8
4
10
-4.880000
20
-0.710000
0
SEQEND
8
4
0
POLYLINE
8
4
66
1
40
0.008000
41
0.008000
0
VERTEX
8
4
10
-4.860000
20
-0.710000
0
VERTEX
8
4
10
-4.840000
20
-0.710000
0
SEQEND
8
4
0
POLYLINE
8
4
66
1
40
0.008000
41
0.008000
0
VERTEX
8
4
10
-4.820000
20
-0.710000
0
VERTEX
8
4
10
-4.800000
20
-0.710000
0
SEQEND
8
4
0
POLYLINE
8
4
66
1
40
0.008000
41
0.008000
0
VERTEX
8
4
10
-4.780000
20
-0.710000
0
VERTEX
8
4
10
-4.760000
20
-0.710000
0
SEQEND
8
4
0
POLYLINE
8
4
66
1
40
0.008000
41
0.008000
0
VERTEX
8
4
10
-4.900000
20
-0.740000
0
VERTEX
8
4
10
-4.720000
20
-0.740000
0
SEQEND
8
4
0
POLYLINE
8
4
66
1
40
0.008000
41
0.008000
0
VERTEX
8
4
10
-4.740000
20
-0.710000
0
VERTEX
8
4
10
-4.720000
20
-0.710000
0
SEQEND
8
4
0
TEXT
8
4
10
-5.720000
20
-0.690000
40
0.080000
41
1.000000
1
DSW2(NO)
0
CIRCLE
8
1
10
-1.600000
20
-0.800000
40
0.020000
0
CIRCLE
8
1
10
-1.800000
20
-0.900000
40
0.020000
0
CIRCLE
8
1
10
-2.000000
20
-1.000000
40
0.020000
0
CIRCLE
8
1
10
-2.200000
20
-1.100000
40
0.020000
0
POLYLINE
8
1
66
1
40
0.016000
41
0.016000
0
VERTEX
8
1
10
-2.700000
20
-1.800000
0
VERTEX
8
1
10
-2.700000
20
-1.900000
0
SEQEND
8
1
0
POLYLINE
8
1
66
1
40
0.016000
41
0.016000
0
VERTEX
8
1
10
-2.800000
20
-1.900000
0
VERTEX
8
1
10
-2.600000
20
-1.900000
0
SEQEND
8
1
0
POLYLINE
8
1
66
1
40
0.016000
41
0.016000
0
VERTEX
8
1
10
-2.750000
20
-1.950000
0
VERTEX
8
1
10
-2.650000
20
-1.950000
0
SEQEND
8
1
0
POLYLINE
8
1
66
1
40
0.016000
41
0.016000
0
VERTEX
8
1
10
-2.710000
20
-2.000000
0
VERTEX
8
1
10
-2.690000
20
-2.000000
0
SEQEND
8
1
0
CIRCLE
8
1
10
-2.700000
20
-0.900000
40
0.020000
0
CIRCLE
8
1
10
-3.100000
20
-1.000000
40
0.020000
0
CIRCLE
8
1
10
-2.900000
20
-1.100000
40
0.020000
0
POLYLINE
8
2
66
1
40
0.016000
41
0.016000
0
VERTEX
8
2
10
-2.740000
20
-1.600000
0
VERTEX
8
2
10
-2.660000
20
-1.600000
0
VERTEX
8
2
10
-2.660000
20
-1.300000
0
VERTEX
8
2
10
-2.740000
20
-1.300000
0
VERTEX
8
2
10
-2.740000
20
-1.600000
0
SEQEND
8
2
0
POLYLINE
8
2
66
1
40
0.016000
41
0.016000
0
VERTEX
8
2
10
-2.700000
20
-1.700000
0
VERTEX
8
2
10
-2.700000
20
-1.600000
0
SEQEND
8
2
0
POLYLINE
8
2
66
1
40
0.016000
41
0.016000
0
VERTEX
8
2
10
-2.700000
20
-1.200000
0
VERTEX
8
2
10
-2.700000
20
-1.300000
0
SEQEND
8
2
0
TEXT
8
0
10
-2.602000
20
-1.427000
40
0.120000
41
0.666667
1
R6
0
TEXT
8
0
10
-2.602000
20
-1.532000
40
0.080000
41
1.000000
1
10K
0
CIRCLE
8
1
10
-2.700000
20
-1.700000
40
0.020000
0
POLYLINE
8
2
66
1
40
0.016000
41
0.016000
0
VERTEX
8
2
10
-2.940000
20
-1.600000
0
VERTEX
8
2
10
-2.860000
20
-1.600000
0
VERTEX
8
2
10
-2.860000
20
-1.300000
0
VERTEX
8
2
10
-2.940000
20
-1.300000
0
VERTEX
8
2
10
-2.940000
20
-1.600000
0
SEQEND
8
2
0
POLYLINE
8
2
66
1
40
0.016000
41
0.016000
0
VERTEX
8
2
10
-2.900000
20
-1.700000
0
VERTEX
8
2
10
-2.900000
20
-1.600000
0
SEQEND
8
2
0
POLYLINE
8
2
66
1
40
0.016000
41
0.016000
0
VERTEX
8
2
10
-2.900000
20
-1.200000
0
VERTEX
8
2
10
-2.900000
20
-1.300000
0
SEQEND
8
2
0
TEXT
8
0
10
-2.802000
20
-1.427000
40
0.120000
41
0.666667
1
R7
0
TEXT
8
0
10
-2.802000
20
-1.532000
40
0.080000
41
1.000000
1
10K
0
CIRCLE
8
1
10
-2.900000
20
-1.700000
40
0.020000
0
POLYLINE
8
2
66
1
40
0.016000
41
0.016000
0
VERTEX
8
2
10
-3.140000
20
-1.600000
0
VERTEX
8
2
10
-3.060000
20
-1.600000
0
VERTEX
8
2
10
-3.060000
20
-1.300000
0
VERTEX
8
2
10
-3.140000
20
-1.300000
0
VERTEX
8
2
10
-3.140000
20
-1.600000
0
SEQEND
8
2
0
POLYLINE
8
2
66
1
40
0.016000
41
0.016000
0
VERTEX
8
2
10
-3.100000
20
-1.700000
0
VERTEX
8
2
10
-3.100000
20
-1.600000
0
SEQEND
8
2
0
POLYLINE
8
2
66
1
40
0.016000
41
0.016000
0
VERTEX
8
2
10
-3.100000
20
-1.200000
0
VERTEX
8
2
10
-3.100000
20
-1.300000
0
SEQEND
8
2
0
TEXT
8
0
10
-3.002000
20
-1.427000
40
0.120000
41
0.666667
1
R5
0
TEXT
8
0
10
-3.002000
20
-1.532000
40
0.080000
41
1.000000
1
10K
0
POLYLINE
8
2
66
1
40
0.016000
41
0.016000
0
VERTEX
8
2
10
-3.340000
20
-1.600000
0
VERTEX
8
2
10
-3.260000
20
-1.600000
0
VERTEX
8
2
10
-3.260000
20
-1.300000
0
VERTEX
8
2
10
-3.340000
20
-1.300000
0
VERTEX
8
2
10
-3.340000
20
-1.600000
0
SEQEND
8
2
0
POLYLINE
8
2
66
1
40
0.016000
41
0.016000
0
VERTEX
8
2
10
-3.300000
20
-1.700000
0
VERTEX
8
2
10
-3.300000
20
-1.600000
0
SEQEND
8
2
0
POLYLINE
8
2
66
1
40
0.016000
41
0.016000
0
VERTEX
8
2
10
-3.300000
20
-1.200000
0
VERTEX
8
2
10
-3.300000
20
-1.300000
0
SEQEND
8
2
0
TEXT
8
0
10
-3.202000
20
-1.427000
40
0.120000
41
0.666667
1
R8
0
TEXT
8
0
10
-3.202000
20
-1.532000
40
0.080000
41
1.000000
1
10K
0
CIRCLE
8
1
10
-3.100000
20
-1.700000
40
0.020000
0
CIRCLE
8
1
10
-3.300000
20
-0.800000
40
0.020000
0
CIRCLE
8
1
10
0.700000
20
-3.200000
40
0.020000
0
POLYLINE
8
4
66
1
40
0.008000
41
0.008000
0
VERTEX
8
4
10
-4.150000
20
-3.150000
0
VERTEX
8
4
10
-4.250000
20
-3.100000
0
VERTEX
8
4
10
-4.200000
20
-3.050000
0
VERTEX
8
4
10
-4.150000
20
-3.150000
0
SEQEND
8
4
0
POLYLINE
8
4
66
1
40
0.008000
41
0.008000
0
VERTEX
8
4
10
-4.100000
20
-3.200000
0
VERTEX
8
4
10
-4.150000
20
-3.150000
0
SEQEND
8
4
0
POLYLINE
8
4
66
1
40
0.008000
41
0.008000
0
VERTEX
8
4
10
-4.100000
20
-3.110000
0
VERTEX
8
4
10
-4.080000
20
-3.110000
0
SEQEND
8
4
0
POLYLINE
8
4
66
1
40
0.008000
41
0.008000
0
VERTEX
8
4
10
-4.060000
20
-3.110000
0
VERTEX
8
4
10
-4.040000
20
-3.110000
0
SEQEND
8
4
0
POLYLINE
8
4
66
1
40
0.008000
41
0.008000
0
VERTEX
8
4
10
-4.020000
20
-3.110000
0
VERTEX
8
4
10
-4.000000
20
-3.110000
0
SEQEND
8
4
0
POLYLINE
8
4
66
1
40
0.008000
41
0.008000
0
VERTEX
8
4
10
-3.980000
20
-3.110000
0
VERTEX
8
4
10
-3.960000
20
-3.110000
0
SEQEND
8
4
0
POLYLINE
8
4
66
1
40
0.008000
41
0.008000
0
VERTEX
8
4
10
-4.100000
20
-3.140000
0
VERTEX
8
4
10
-3.920000
20
-3.140000
0
SEQEND
8
4
0
POLYLINE
8
4
66
1
40
0.008000
41
0.008000
0
VERTEX
8
4
10
-3.940000
20
-3.110000
0
VERTEX
8
4
10
-3.920000
20
-3.110000
0
SEQEND
8
4
0
TEXT
8
4
10
-4.920000
20
-3.090000
40
0.080000
41
1.000000
1
SW1(COM)
0
CIRCLE
8
1
10
-2.200000
20
-0.600000
40
0.020000
0
POLYLINE
8
2
66
1
40
0.016000
41
0.016000
0
VERTEX
8
2
10
-3.040000
20
-3.100000
0
VERTEX
8
2
10
-2.960000
20
-3.100000
0
VERTEX
8
2
10
-2.960000
20
-2.800000
0
VERTEX
8
2
10
-3.040000
20
-2.800000
0
VERTEX
8
2
10
-3.040000
20
-3.100000
0
SEQEND
8
2
0
POLYLINE
8
2
66
1
40
0.016000
41
0.016000
0
VERTEX
8
2
10
-3.000000
20
-3.200000
0
VERTEX
8
2
10
-3.000000
20
-3.100000
0
SEQEND
8
2
0
POLYLINE
8
2
66
1
40
0.016000
41
0.016000
0
VERTEX
8
2
10
-3.000000
20
-2.700000
0
VERTEX
8
2
10
-3.000000
20
-2.800000
0
SEQEND
8
2
0
TEXT
8
0
10
-2.902000
20
-2.927000
40
0.120000
41
0.666667
1
R9
0
TEXT
8
0
10
-2.902000
20
-3.032000
40
0.080000
41
1.000000
1
10K
0
CIRCLE
8
1
10
-3.000000
20
-1.700000
40
0.020000
0
POLYLINE
8
2
66
1
40
0.016000
41
0.016000
0
VERTEX
8
2
10
-0.300000
20
2.950000
0
VERTEX
8
2
10
-0.200000
20
2.950000
0
VERTEX
8
2
10
-0.200000
20
3.050000
0
VERTEX
8
2
10
-0.300000
20
3.050000
0
VERTEX
8
2
10
-0.300000
20
2.950000
0
SEQEND
8
2
0
TEXT
8
2
10
-0.290000
20
2.960000
40
0.080000
41
1.000000
1
?
0
POLYLINE
8
2
66
1
40
0.016000
41
0.016000
0
VERTEX
8
2
10
-0.400000
20
3.000000
0
VERTEX
8
2
10
-0.300000
20
3.000000
0
SEQEND
8
2
0
POLYLINE
8
2
66
1
40
0.016000
41
0.016000
0
VERTEX
8
2
10
-0.600000
20
3.000000
0
VERTEX
8
2
10
-0.601037
20
3.022022
0
VERTEX
8
2
10
-0.604082
20
3.043047
0
VERTEX
8
2
10
-0.609031
20
3.063018
0
VERTEX
8
2
10
-0.615781
20
3.081875
0
VERTEX
8
2
10
-0.624231
20
3.099561
0
VERTEX
8
2
10
-0.634277
20
3.116016
0
VERTEX
8
2
10
-0.645818
20
3.131181
0
VERTEX
8
2
10
-0.658750
20
3.145000
0
VERTEX
8
2
10
-0.672971
20
3.157412
0
VERTEX
8
2
10
-0.688379
20
3.168360
0
VERTEX
8
2
10
-0.704870
20
3.177783
0
VERTEX
8
2
10
-0.722344
20
3.185625
0
VERTEX
8
2
10
-0.740696
20
3.191826
0
VERTEX
8
2
10
-0.759824
20
3.196328
0
VERTEX
8
2
10
-0.779626
20
3.199072
0
VERTEX
8
2
10
-0.800000
20
3.200000
0
VERTEX
8
2
10
-1.200000
20
3.200000
0
VERTEX
8
2
10
-1.200000
20
2.800000
0
VERTEX
8
2
10
-0.800000
20
2.800000
0
VERTEX
8
2
10
-0.779626
20
2.801037
0
VERTEX
8
2
10
-0.759824
20
2.804082
0
VERTEX
8
2
10
-0.740696
20
2.809031
0
VERTEX
8
2
10
-0.722344
20
2.815781
0
VERTEX
8
2
10
-0.704870
20
2.824231
0
VERTEX
8
2
10
-0.688379
20
2.834277
0
VERTEX
8
2
10
-0.672971
20
2.845818
0
VERTEX
8
2
10
-0.658750
20
2.858750
0
VERTEX
8
2
10
-0.645818
20
2.872971
0
VERTEX
8
2
10
-0.634277
20
2.888379
0
VERTEX
8
2
10
-0.624231
20
2.904871
0
VERTEX
8
2
10
-0.615781
20
2.922344
0
VERTEX
8
2
10
-0.609031
20
2.940696
0
VERTEX
8
2
10
-0.604082
20
2.959824
0
VERTEX
8
2
10
-0.601037
20
2.979626
0
VERTEX
8
2
10
-0.600000
20
3.000000
0
SEQEND
8
2
0
POLYLINE
8
2
66
1
40
0.016000
41
0.016000
0
VERTEX
8
2
10
-1.400000
20
3.100000
0
VERTEX
8
2
10
-1.200000
20
3.100000
0
SEQEND
8
2
0
TEXT
8
0
10
-1.380000
20
3.110000
40
0.080000
41
1.000000
1
1
0
POLYLINE
8
2
66
1
40
0.016000
41
0.016000
0
VERTEX
8
2
10
-1.400000
20
2.900000
0
VERTEX
8
2
10
-1.200000
20
2.900000
0
SEQEND
8
2
0
TEXT
8
0
10
-1.380000
20
2.910000
40
0.080000
41
1.000000
1
2
0
POLYLINE
8
2
66
1
40
0.016000
41
0.016000
0
VERTEX
8
2
10
-0.400000
20
3.000000
0
VERTEX
8
2
10
-0.600000
20
3.000000
0
SEQEND
8
2
0
TEXT
8
0
10
-0.500000
20
3.010000
40
0.080000
41
1.000000
1
3
0
TEXT
8
0
10
-1.208000
20
3.223000
40
0.120000
41
0.666667
1
U1:A
0
TEXT
8
0
10
-1.208000
20
2.702000
40
0.080000
41
1.000000
1
74HC08
0
CIRCLE
8
2
10
-3.330000
20
-3.200000
40
0.020000
0
CIRCLE
8
2
10
-3.570000
20
-3.200000
40
0.020000
0
POLYLINE
8
2
66
1
40
0.016000
41
0.016000
0
VERTEX
8
2
10
-3.600000
20
-3.200000
0
VERTEX
8
2
10
-3.590000
20
-3.200000
0
SEQEND
8
2
0
POLYLINE
8
2
66
1
40
0.016000
41
0.016000
0
VERTEX
8
2
10
-3.310000
20
-3.200000
0
VERTEX
8
2
10
-3.300000
20
-3.200000
0
SEQEND
8
2
0
POLYLINE
8
2
66
1
40
0.016000
41
0.016000
0
VERTEX
8
2
10
-3.550000
20
-3.190000
0
VERTEX
8
2
10
-3.360000
20
-3.070000
0
SEQEND
8
2
0
POLYLINE
8
2
66
1
40
0.016000
41
0.016000
0
VERTEX
8
2
10
-3.700000
20
-3.200000
0
VERTEX
8
2
10
-3.600000
20
-3.200000
0
SEQEND
8
2
0
POLYLINE
8
2
66
1
40
0.016000
41
0.016000
0
VERTEX
8
2
10
-3.200000
20
-3.200000
0
VERTEX
8
2
10
-3.300000
20
-3.200000
0
SEQEND
8
2
0
CIRCLE
8
3
10
-3.300000
20
-3.100000
40
0.040000
0
POLYLINE
8
3
66
1
40
0.008000
41
0.008000
0
VERTEX
8
3
10
-3.300000
20
-3.120000
0
VERTEX
8
3
10
-3.310000
20
-3.110000
0
SEQEND
8
3
0
POLYLINE
8
3
66
1
40
0.008000
41
0.008000
0
VERTEX
8
3
10
-3.300000
20
-3.120000
0
VERTEX
8
3
10
-3.290000
20
-3.110000
0
SEQEND
8
3
0
POLYLINE
8
3
66
1
40
0.008000
41
0.008000
0
VERTEX
8
3
10
-3.300000
20
-3.120000
0
VERTEX
8
3
10
-3.300000
20
-3.080000
0
SEQEND
8
3
0
CIRCLE
8
3
10
-3.200000
20
-3.100000
40
0.040000
0
POLYLINE
8
3
66
1
40
0.008000
41
0.008000
0
VERTEX
8
3
10
-3.200000
20
-3.080000
0
VERTEX
8
3
10
-3.210000
20
-3.090000
0
SEQEND
8
3
0
POLYLINE
8
3
66
1
40
0.008000
41
0.008000
0
VERTEX
8
3
10
-3.200000
20
-3.080000
0
VERTEX
8
3
10
-3.190000
20
-3.090000
0
SEQEND
8
3
0
POLYLINE
8
3
66
1
40
0.008000
41
0.008000
0
VERTEX
8
3
10
-3.200000
20
-3.080000
0
VERTEX
8
3
10
-3.200000
20
-3.120000
0
SEQEND
8
3
0
TEXT
8
0
10
-3.608000
20
-3.047000
40
0.120000
41
0.666667
1
SW1
0
TEXT
8
0
10
-3.608000
20
-3.317500
40
0.080000
41
1.000000
1
SW-SPST
0
CIRCLE
8
1
10
-3.000000
20
-3.200000
40
0.020000
0
ENDSEC
0
EOF

